<svg width="24" height="24" viewBox="0 0 24 24" fill="none" xmlns="http://www.w3.org/2000/svg">
<path d="M7.72681 15.5878C8.74994 16.6396 9.78699 17.5538 10.5911 18.2207C10.9924 18.5535 11.3343 18.8235 11.5852 19.0166C11.7105 19.113 11.8128 19.1904 11.8879 19.246C11.9255 19.2739 11.9561 19.2961 11.9788 19.3125L11.9993 19.3271L12.0198 19.3125C12.0423 19.2962 12.073 19.2738 12.1106 19.246C12.1856 19.1905 12.2879 19.114 12.4133 19.0175C12.6642 18.8246 13.006 18.5546 13.4075 18.2216C14.2116 17.5548 15.2485 16.6398 16.2717 15.5878C16.3319 15.5259 16.3915 15.4631 16.4514 15.4003H18.6125C18.2227 15.8543 17.8198 16.2912 17.4182 16.7041C15.2804 18.9019 13.0972 20.5164 12.8801 20.663L12.4465 20.956C12.1763 21.1382 11.8223 21.1382 11.552 20.956L11.1184 20.663L11.1165 20.6621C10.902 20.5164 8.71909 18.9017 6.58032 16.7031C6.1787 16.2902 5.77494 15.8543 5.38501 15.4003H7.5481C7.60786 15.4629 7.66678 15.5261 7.72681 15.5878ZM12.9172 9.20406C13.2127 9.17335 13.5005 9.30948 13.6653 9.55659L15.428 12.2001H20.8469C20.7036 12.4746 20.5508 12.7465 20.387 13.0117C20.2228 13.2774 20.0458 13.5393 19.8625 13.7998H15.0002C14.7328 13.7998 14.4826 13.6667 14.3342 13.4443L13.178 11.7089L11.7424 15.2978C11.6425 15.5472 11.4236 15.7301 11.1604 15.7841C10.8971 15.838 10.6239 15.7564 10.4338 15.5664L8.66821 13.7998H4.13501C3.95189 13.5395 3.77568 13.2772 3.61157 13.0117C3.44772 12.7465 3.29491 12.4745 3.15161 12.2001H9.00024C9.21232 12.2002 9.41571 12.2846 9.56567 12.4345L10.7083 13.5771L12.2571 9.70308C12.3674 9.42724 12.6217 9.23482 12.9172 9.20406ZM16.1555 3.00093C17.7005 3.06491 19.1641 3.7091 20.2239 4.80464C21.2812 5.89775 21.8502 7.35217 21.7952 8.85347C21.7933 9.43688 21.6895 10.0221 21.5139 10.6005H19.8215C20.0626 9.97872 20.1955 9.38738 20.1956 8.83784C20.1956 8.82729 20.1961 8.81616 20.1965 8.80562C20.2383 7.74675 19.8393 6.70772 19.0745 5.91695C18.3132 5.12992 17.2495 4.65331 16.1116 4.60054C15.4091 4.61475 14.7247 4.80332 14.1262 5.14546C13.8941 5.27821 13.6389 5.5228 13.3762 5.85933C13.1192 6.18859 12.8891 6.56055 12.6907 6.9023C12.5475 7.14857 12.2842 7.29974 11.9993 7.29976C11.7144 7.29976 11.4511 7.14856 11.3079 6.9023C11.1094 6.56057 10.8793 6.18858 10.6223 5.85933C10.3596 5.5228 10.1044 5.27821 9.87231 5.14546C9.27374 4.80322 8.58865 4.61468 7.88599 4.60054C6.74821 4.65342 5.68526 5.13003 4.92407 5.91695C4.15915 6.70772 3.76022 7.74672 3.802 8.80562C3.80242 8.81616 3.80298 8.82729 3.80298 8.83784C3.803 9.3875 3.93676 9.97861 4.17798 10.6005H2.48364C2.30812 10.0222 2.20421 9.43682 2.20239 8.85347C2.14737 7.3523 2.71647 5.89772 3.77368 4.80464C4.83351 3.70899 6.29796 3.06491 7.84302 3.00093C7.85792 3.00032 7.87303 2.99973 7.88794 2.99995C8.8656 3.01448 9.82436 3.27476 10.6672 3.75679C11.159 4.03808 11.5643 4.46656 11.8831 4.87495C11.9224 4.92541 11.9614 4.97616 11.9993 5.0273C12.0371 4.97614 12.0761 4.92542 12.1155 4.87495C12.4343 4.46655 12.8395 4.03808 13.3313 3.75679C14.1742 3.27474 15.1329 3.01447 16.1106 2.99995C16.1255 2.99973 16.1406 3.00031 16.1555 3.00093Z" fill="#33363D"/>
</svg>
