<svg width="24" height="24" viewBox="0 0 24 24" fill="none" xmlns="http://www.w3.org/2000/svg">
<path d="M17.25 7.23535C17.25 7.05028 17.1339 6.95219 17.0391 6.93066L17 6.92676H7L6.96094 6.93066C6.86607 6.95219 6.75 7.05028 6.75 7.23535V18.8828C6.75023 19.6789 7.34958 20.25 8 20.25H16C16.6504 20.25 17.2498 19.6789 17.25 18.8828V7.23535ZM9.25 16.7646V10.4121C9.25 9.9979 9.58579 9.66211 10 9.66211C10.4142 9.66211 10.75 9.9979 10.75 10.4121V16.7646C10.75 17.1789 10.4142 17.5146 10 17.5146C9.58579 17.5146 9.25 17.1789 9.25 16.7646ZM13.25 16.7646V10.4121C13.25 9.9979 13.5858 9.66211 14 9.66211C14.4142 9.66211 14.75 9.9979 14.75 10.4121V16.7646C14.75 17.1789 14.4142 17.5146 14 17.5146C13.5858 17.5146 13.25 17.1789 13.25 16.7646ZM14.25 4.05859C14.2499 3.84723 14.0982 3.75 14 3.75H10C9.90178 3.75 9.75011 3.84723 9.75 4.05859V5.11719C9.75 5.32871 9.90174 5.42676 10 5.42676H14C14.0983 5.42676 14.25 5.32871 14.25 5.11719V4.05859ZM15.75 5.11719C15.75 5.2219 15.7398 5.32557 15.7227 5.42676H20C20.4142 5.42676 20.75 5.76254 20.75 6.17676C20.7498 6.59084 20.4141 6.92676 20 6.92676H18.7227C18.7397 7.02776 18.75 7.13083 18.75 7.23535V18.8828C18.7498 20.4254 17.5584 21.75 16 21.75H8C6.44156 21.75 5.25024 20.4254 5.25 18.8828V7.23535C5.25 7.13083 5.26026 7.02776 5.27734 6.92676H4C3.58588 6.92676 3.25016 6.59084 3.25 6.17676C3.25 5.76254 3.58579 5.42676 4 5.42676H8.27734C8.2602 5.32557 8.25 5.2219 8.25 5.11719V4.05859C8.25012 3.10067 8.99377 2.25 10 2.25H14C15.0062 2.25 15.7499 3.10067 15.75 4.05859V5.11719Z" fill="#33363D"/>
</svg>
