<svg width="24" height="24" viewBox="0 0 24 24" fill="none" xmlns="http://www.w3.org/2000/svg">
<path d="M4.14453 2.77344C4.55855 2.77367 4.89453 3.10937 4.89453 3.52344V7.34375C6.39563 4.89227 9.05561 3.25 12.0986 3.25C16.8184 3.25045 20.6054 7.18976 20.6055 12C20.6054 16.8102 16.8184 20.7495 12.0986 20.75C8.31242 20.75 5.12303 18.2109 4.0127 14.7275C3.88707 14.333 4.10449 13.9109 4.49902 13.7852C4.89358 13.6596 5.31566 13.8779 5.44141 14.2725C6.36718 17.1767 9.00945 19.25 12.0986 19.25C15.9468 19.2495 19.1054 16.0256 19.1055 12C19.1054 7.97435 15.9468 4.75045 12.0986 4.75C9.51728 4.75 7.25027 6.19582 6.03223 8.36719C5.99566 8.43231 5.94852 8.4877 5.89746 8.53711H9.77539C10.1893 8.53735 10.5253 8.87312 10.5254 9.28711C10.5253 9.70112 10.1894 10.0369 9.77539 10.0371H4.14453C3.94575 10.0371 3.75488 9.95787 3.61426 9.81738C3.47369 9.67677 3.39456 9.48594 3.39453 9.28711V3.52344C3.39454 3.10923 3.73032 2.77344 4.14453 2.77344Z" fill="#33363D"/>
</svg>
