<svg width="24" height="24" viewBox="0 0 24 24" fill="none" xmlns="http://www.w3.org/2000/svg">
<path fill-rule="evenodd" clip-rule="evenodd" d="M16.4343 2.43431C16.7467 2.12189 17.2533 2.12189 17.5657 2.43431L21.5657 6.43431C21.7157 6.58434 21.8 6.78782 21.8 7C21.8 7.21217 21.7157 7.41565 21.5657 7.56568L12.5657 16.5657C12.4157 16.7157 12.2122 16.8 12 16.8H8C7.55817 16.8 7.2 16.4418 7.2 16V12C7.2 11.7878 7.28429 11.5843 7.43431 11.4343L16.4343 2.43431ZM17 4.13137L15.1314 6L18 8.86863L19.8686 7L17 4.13137ZM16.8686 10L14 7.13137L8.8 12.3314V15.2H11.6686L16.8686 10ZM4.8 4.6C4.68954 4.6 4.6 4.68954 4.6 4.8V19.2C4.6 19.3105 4.68954 19.4 4.8 19.4H19.2C19.3105 19.4 19.4 19.3105 19.4 19.2V12.2C19.4 11.7582 19.7582 11.4 20.2 11.4C20.6418 11.4 21 11.7582 21 12.2V19.2C21 20.1941 20.1941 21 19.2 21H4.8C3.80589 21 3 20.1941 3 19.2V4.8C3 3.80588 3.80589 3 4.8 3H11.7992C12.241 3 12.5992 3.35817 12.5992 3.8C12.5992 4.24182 12.241 4.6 11.7992 4.6H4.8Z" fill="#33363D"/>
</svg>
