<svg width="24" height="24" viewBox="0 0 24 24" fill="none" xmlns="http://www.w3.org/2000/svg">
<path d="M11.481 13.4763C11.895 13.4765 12.231 13.8122 12.231 14.2263C12.2309 14.6403 11.895 14.9761 11.481 14.9763H8.14209C7.72793 14.9763 7.39218 14.6405 7.39209 14.2263C7.39209 13.8121 7.72788 13.4763 8.14209 13.4763H11.481ZM14.1558 10.1375C14.5699 10.1375 14.9057 10.4733 14.9058 10.8875C14.9058 11.3017 14.57 11.6375 14.1558 11.6375H8.14209C7.72788 11.6375 7.39209 11.3017 7.39209 10.8875C7.39213 10.4733 7.7279 10.1375 8.14209 10.1375H14.1558ZM17.3013 10.2761V5.323C17.3012 4.50812 16.6406 3.84754 15.8257 3.84741H6.47217C5.65731 3.84755 4.99667 4.50812 4.99658 5.323V18.6775C4.99658 19.4925 5.6572 20.153 6.47217 20.1531H13.0884C13.5025 20.1531 13.8382 20.489 13.8384 20.9031C13.8384 21.3173 13.5026 21.6531 13.0884 21.6531H6.47217C4.82877 21.653 3.49657 20.3209 3.49658 18.6775V5.323C3.49667 3.6797 4.82888 2.34755 6.47217 2.34741H15.8257C17.469 2.34754 18.8012 3.67969 18.8013 5.323V10.2761C18.801 10.6901 18.4653 11.0261 18.0513 11.0261C17.6372 11.0261 17.3015 10.6901 17.3013 10.2761ZM14.1558 6.79858C14.5699 6.79858 14.9056 7.13452 14.9058 7.54858C14.9058 7.9628 14.57 8.29858 14.1558 8.29858H8.14209C7.72788 8.29858 7.39209 7.9628 7.39209 7.54858C7.39227 7.13452 7.72798 6.79858 8.14209 6.79858H14.1558Z" fill="#CDD1D5"/>
<path d="M14.6844 14.2867C14.918 14.0518 15.298 14.0503 15.533 14.2838C15.768 14.5174 15.7686 14.8975 15.535 15.1324L14.5916 16.0817H19.1629C19.3251 16.0816 19.5394 15.9812 19.7391 15.7184C19.9359 15.4593 20.0535 15.1201 20.0535 14.8239C20.0535 14.5317 19.9385 14.222 19.7508 13.9908C19.5628 13.7596 19.348 13.6579 19.1629 13.6578H17.5965C17.2653 13.6577 16.9969 13.3895 16.9969 13.0582C16.9969 12.727 17.2653 12.4588 17.5965 12.4586H19.1629C19.8008 12.4587 20.3311 12.8024 20.6824 13.235C21.034 13.6679 21.2537 14.2412 21.2537 14.8239C21.2537 15.4026 21.0368 15.993 20.6941 16.444C20.3545 16.891 19.8237 17.2818 19.1629 17.2819H14.5926L15.6277 18.3219C15.8615 18.5568 15.8607 18.9368 15.6258 19.1705C15.3909 19.4041 15.0109 19.4034 14.7772 19.1686L12.7244 17.1051C12.4915 16.8711 12.4907 16.4925 12.7234 16.2584L14.6844 14.2867Z" fill="#CDD1D5"/>
</svg>
