<svg width="24" height="24" viewBox="0 0 24 24" fill="none" xmlns="http://www.w3.org/2000/svg">
<path fill-rule="evenodd" clip-rule="evenodd" d="M10.7272 2.74153C11.4302 2.03859 12.5699 2.03859 13.2728 2.74153L16.1137 5.58239L18.2852 7.95368L21.1012 10.7697C21.8042 11.4726 21.8042 12.6123 21.1012 13.3153L18.2792 16.1373L16.1076 18.4091L13.2728 21.2439C12.5699 21.9468 11.4302 21.9468 10.7272 21.2439L7.89241 18.4091L5.72084 16.1373L2.89879 13.3153C2.19585 12.6123 2.19585 11.4726 2.89879 10.7697L5.71479 7.95367L7.88636 5.58239L10.7272 2.74153ZM12.1414 3.8729C12.0633 3.7948 11.9367 3.7948 11.8586 3.8729L9.04259 6.6889L6.87102 9.06018L4.03016 11.901C3.95206 11.9791 3.95206 12.1058 4.03016 12.1839L6.86496 15.0187L9.03654 17.2905L11.8586 20.1125C11.9367 20.1906 12.0633 20.1906 12.1414 20.1125L14.9635 17.2905L17.1351 15.0187L19.9699 12.1839C20.048 12.1058 20.048 11.9791 19.9699 11.901L17.129 9.06018L14.9574 6.68889L12.1414 3.8729Z" fill="#33363D"/>
</svg>
