<svg width="24" height="24" viewBox="0 0 24 24" fill="none" xmlns="http://www.w3.org/2000/svg">
<path d="M10.9785 2.6008C11.1908 2.59521 11.3968 2.67425 11.5508 2.82053L15.7461 6.80588C15.664 6.80151 15.5813 6.80002 15.498 6.80002C14.887 6.80007 14.3039 6.91957 13.7705 7.13596L11.0293 4.53146L4.59961 11.3186V19.3996H8.19922C8.26982 19.3996 8.33811 19.4098 8.40332 19.427C8.4032 19.4393 8.40234 19.4518 8.40234 19.4641V20.9729C8.3374 20.9899 8.2695 21.0002 8.19922 21.0002H3.7998C3.3582 21.0001 3.00022 20.642 3 20.2004V11.0002C3 10.7955 3.07895 10.598 3.21973 10.4494L10.4189 2.84982C10.5649 2.69576 10.7664 2.6065 10.9785 2.6008ZM10.7871 17.76C13.503 15.4483 17.495 15.4484 20.2109 17.76C20.7104 18.1851 20.998 18.8082 20.998 19.4641V21.0002H10V19.4641C10 18.8082 10.2877 18.1851 10.7871 17.76ZM19.1738 18.9787C17.0556 17.1758 13.9424 17.1757 11.8242 18.9787C11.6983 19.0859 11.6199 19.2377 11.6035 19.4006H19.3955C19.3791 19.2376 19.2998 19.086 19.1738 18.9787ZM15.5 8.39963C15.6162 8.39963 15.731 8.40629 15.8438 8.41916C15.9702 8.43367 16.0937 8.45875 16.2148 8.48849C16.3513 8.52189 16.4839 8.5641 16.6123 8.61545C16.6307 8.62281 16.6498 8.62825 16.668 8.63596C17.7445 9.09142 18.4999 10.1572 18.5 11.3996C18.5 13.0565 17.1569 14.3996 15.5 14.3996C13.8431 14.3996 12.5 13.0565 12.5 11.3996C12.5001 9.86956 13.6457 8.60716 15.126 8.42307H15.125C15.1351 8.42182 15.1452 8.42129 15.1553 8.42014C15.1912 8.41602 15.2273 8.41223 15.2637 8.40939C15.2848 8.40773 15.3059 8.40574 15.3271 8.40451C15.3843 8.40126 15.442 8.39963 15.5 8.39963ZM15.5 10.0002C14.7269 10.0002 14.0998 10.6266 14.0996 11.3996C14.0996 12.1728 14.7268 12.8 15.5 12.8C16.2732 12.8 16.9004 12.1728 16.9004 11.3996C16.9002 10.6266 16.2731 10.0002 15.5 10.0002Z" fill="#33363D"/>
</svg>
