<svg width="24" height="24" viewBox="0 0 24 24" fill="none" xmlns="http://www.w3.org/2000/svg">
<path d="M15.5733 9.17089C15.893 8.86627 16.3993 8.87867 16.7041 9.19823C17.0087 9.51794 16.9963 10.0242 16.6768 10.3291L11.1738 15.5791C10.8645 15.8739 10.3783 15.8734 10.0694 15.5781L7.32228 12.9531C7.00299 12.6478 6.99168 12.1416 7.29689 11.8223C7.60216 11.503 8.10837 11.4917 8.42775 11.7969L10.6211 13.8935L15.5733 9.17089Z" fill="#CDD1D5"/>
<path d="M4.5498 19.4502H19.4502V4.5498H4.5498V19.4502ZM21.0498 19.5C21.0498 20.356 20.356 21.0498 19.5 21.0498H4.5C3.64396 21.0498 2.9502 20.356 2.9502 19.5V4.5C2.9502 3.64396 3.64396 2.9502 4.5 2.9502H19.5C20.356 2.9502 21.0498 3.64396 21.0498 4.5V19.5Z" fill="#CDD1D5"/>
</svg>
