<svg width="24" height="24" viewBox="0 0 24 24" fill="none" xmlns="http://www.w3.org/2000/svg">
<path d="M2 12C2 17.5228 6.47715 22 12 22V22C17.5228 22 22 17.5228 22 12V12C22 6.47715 17.5228 2 12 2V2C6.47715 2 2 6.47715 2 12V12Z" fill="#CDD1D5"/>
<path fill-rule="evenodd" clip-rule="evenodd" d="M15.7528 8.33948C16.1176 8.58876 16.2113 9.08656 15.962 9.45135L11.862 15.4513C11.7277 15.6479 11.5129 15.7744 11.2759 15.7965C11.0389 15.8187 10.8043 15.7341 10.636 15.5659L8.13439 13.0659C7.82188 12.7535 7.82172 12.247 8.13404 11.9345C8.44636 11.622 8.95289 11.6218 9.26541 11.9341L11.085 13.7525L14.6409 8.54864C14.8902 8.18385 15.388 8.09021 15.7528 8.33948Z" fill="white"/>
</svg>
