<svg width="197" height="46" viewBox="0 0 197 46" fill="none" xmlns="http://www.w3.org/2000/svg">
<mask id="mask0_13583_62973" style="mask-type:luminance" maskUnits="userSpaceOnUse" x="5" y="2" width="36" height="41">
<path d="M40.9678 2.56641H5.96777V42.5664H40.9678V2.56641Z" fill="white"/>
</mask>
<g mask="url(#mask0_13583_62973)">
<path d="M33.3723 4.30183C32.5758 2.56669 30.0533 2.04473 27.7265 3.13096C25.3996 4.21719 24.1628 6.5025 24.9595 8.23059C25.756 9.95868 28.2855 10.4877 30.6053 9.39441C32.9251 8.30818 34.1689 6.02286 33.3723 4.29478" fill="#E7290F"/>
<path d="M27.0482 38.4471C27.8517 38.1579 25.0288 39.5193 24.3091 39.9072C22.0731 41.0922 19.39 41.734 17.3217 42.1784C13.1851 43.0671 9.61456 42.4394 7.60219 40.0694C3.57044 35.3295 7.28775 25.4477 15.8963 17.9922C20.2005 14.2609 24.91 11.8486 29.0535 10.9599C31.1218 10.5155 33.0504 10.4521 34.7134 10.7906C34.7134 10.7906 39.367 11.5736 37.0961 17.3362C37.0961 17.3362 31.1847 30.3145 14.5477 37.4737C14.5477 37.4737 25.2175 29.9195 30.3602 20.4961C30.3602 20.4961 34.4478 13.7036 28.1941 13.8236C28.1941 13.8236 25.5389 13.8025 21.4233 16.2218C17.7968 18.2249 13.2271 21.8927 10.7325 28.2267C10.7325 28.2267 6.43528 38.5671 18.3348 39.6603C18.3348 39.6603 22.6391 40.0553 27.0482 38.4613" fill="#004998"/>
<path d="M36.4802 20.3408C35.8164 21.3424 34.5098 23.2539 33.2031 24.9185C34.7263 25.0455 36.2216 25.4545 35.1526 28.4523C35.1526 28.4523 33.3917 33.0581 28.249 37.7134C28.249 37.7134 36.9344 32.6138 40.0508 25.906C40.0508 25.906 43.6842 18.8244 36.4802 20.3408Z" fill="#10A035"/>
</g>
<path d="M67.264 6.8H62.608C63.088 8.064 65.408 8.864 67.408 8.992V10.448C65.104 10.32 62.816 9.536 61.664 8.288C60.496 9.552 58.208 10.32 55.888 10.448V8.992C57.904 8.88 60.208 8.064 60.688 6.8H56.096V5.344H60.784V3.92H62.512V5.344H67.264V6.8ZM55.136 12.848V11.36H68.208V12.848H62.512V14.032C64 14.08 65.28 14.304 66.176 14.736C67.04 15.152 67.552 15.792 67.552 16.704C67.552 17.616 67.04 18.256 66.176 18.656C65.12 19.184 63.536 19.36 61.696 19.36C59.856 19.36 58.256 19.184 57.2 18.656C56.336 18.256 55.824 17.616 55.824 16.704C55.824 15.792 56.336 15.152 57.2 14.736C58.08 14.304 59.344 14.096 60.8 14.032V12.848H55.136ZM57.568 16.704C57.568 17.008 57.76 17.248 58.112 17.424C58.784 17.776 60.016 17.92 61.696 17.92C63.36 17.92 64.592 17.776 65.264 17.424C65.632 17.248 65.824 17.008 65.824 16.704C65.824 16.4 65.632 16.16 65.264 15.968C64.592 15.632 63.36 15.488 61.696 15.488C60.016 15.488 58.784 15.632 58.112 15.968C57.76 16.16 57.568 16.4 57.568 16.704ZM70.9754 7.216V5.696H73.8554V4.016H75.5834V5.696H78.4634V7.216H75.5834C75.6794 9.472 76.9914 10.592 78.7354 10.976V12.528C76.9914 12.208 75.5034 11.312 74.7514 10.064C73.9994 11.328 72.4794 12.432 70.7194 12.704V11.168C72.4954 10.784 73.7754 9.52 73.8554 7.216H70.9754ZM82.7034 12.88H80.9594V9.696H78.0954V8.208H80.9594V4.432H82.7034V12.88ZM71.6634 16.32C71.6634 15.344 72.1594 14.64 72.9754 14.176C74.0474 13.584 75.6154 13.344 77.3434 13.344C79.0714 13.344 80.6554 13.584 81.7114 14.176C82.5114 14.64 83.0394 15.344 83.0394 16.32C83.0394 17.296 82.5114 17.984 81.7114 18.464C80.6554 19.056 79.0714 19.28 77.3434 19.28C75.6154 19.28 74.0474 19.056 72.9754 18.464C72.1594 17.984 71.6634 17.296 71.6634 16.32ZM73.3914 16.32C73.3914 16.688 73.5994 16.992 73.9674 17.232C74.6394 17.616 75.8394 17.808 77.3434 17.808C78.8474 17.808 80.0474 17.616 80.7194 17.232C81.1034 16.992 81.2954 16.688 81.2954 16.32C81.2954 15.936 81.1034 15.648 80.7194 15.408C80.0474 15.024 78.8474 14.832 77.3434 14.832C75.8394 14.832 74.6394 15.024 73.9674 15.408C73.5994 15.648 73.3914 15.936 73.3914 16.32ZM92.6388 11.472H86.1428V4.528H87.8868V9.968H93.1028C94.4148 9.968 95.3108 9.776 95.9348 9.296V4.432H97.6788V7.696H99.7908V9.216H97.6788V12.528H95.9348V10.752C95.3268 11.248 94.2868 11.472 92.6388 11.472ZM86.9748 19.088V13.456H97.6788V19.088H86.9748ZM95.9348 14.944H88.7028V17.616H95.9348V14.944ZM113.438 6.224H103.806V11.152H113.55V12.672H108.654V16.8H114.19V18.304H101.31V16.8H106.926V12.672H102.062V4.688H113.438V6.224ZM127.054 10.08V6.224H117.326V4.688H128.798V9.728C128.798 11.376 128.67 13.152 128.414 14.416H126.702C126.926 13.2 127.054 11.504 127.054 10.08ZM123.134 10.208H124.878V16.8H129.55V18.304H116.67V16.8H119.358V10.208H121.086V16.8H123.134V10.208ZM132.621 7.264C132.621 6.464 132.957 5.84 133.581 5.408C134.557 4.704 136.253 4.416 138.493 4.416C140.717 4.416 142.413 4.704 143.389 5.408C144.013 5.84 144.349 6.464 144.349 7.264C144.349 8.064 144.013 8.672 143.389 9.104C142.413 9.808 140.717 10.096 138.493 10.096C136.253 10.096 134.557 9.808 133.581 9.104C132.957 8.672 132.621 8.064 132.621 7.264ZM134.365 7.264C134.365 7.584 134.541 7.856 134.861 8.064C135.549 8.48 136.829 8.624 138.493 8.624C140.141 8.624 141.437 8.48 142.109 8.064C142.429 7.856 142.621 7.584 142.621 7.264C142.621 6.928 142.429 6.656 142.109 6.464C141.437 6.048 140.141 5.872 138.493 5.872C136.829 5.872 135.549 6.048 134.861 6.464C134.541 6.656 134.365 6.928 134.365 7.264ZM140.237 14.592V12.64H136.701V14.592H140.237ZM134.989 14.592V12.64H131.933V11.152H145.005V12.64H141.949V14.592H144.061V19.184H142.317V16.08H132.797V14.592H134.989ZM147.772 7.216V5.696H150.652V4.016H152.38V5.696H155.26V7.216H152.38C152.476 9.472 153.788 10.592 155.532 10.976V12.528C153.788 12.208 152.3 11.312 151.548 10.064C150.796 11.328 149.276 12.432 147.516 12.704V11.168C149.292 10.784 150.572 9.52 150.652 7.216H147.772ZM159.5 12.88H157.756V9.696H154.892V8.208H157.756V4.432H159.5V12.88ZM148.46 16.32C148.46 15.344 148.956 14.64 149.772 14.176C150.844 13.584 152.412 13.344 154.14 13.344C155.868 13.344 157.452 13.584 158.508 14.176C159.308 14.64 159.836 15.344 159.836 16.32C159.836 17.296 159.308 17.984 158.508 18.464C157.452 19.056 155.868 19.28 154.14 19.28C152.412 19.28 150.844 19.056 149.772 18.464C148.956 17.984 148.46 17.296 148.46 16.32ZM150.188 16.32C150.188 16.688 150.396 16.992 150.764 17.232C151.436 17.616 152.636 17.808 154.14 17.808C155.644 17.808 156.844 17.616 157.516 17.232C157.9 16.992 158.092 16.688 158.092 16.32C158.092 15.936 157.9 15.648 157.516 15.408C156.844 15.024 155.644 14.832 154.14 14.832C152.636 14.832 151.436 15.024 150.764 15.408C150.396 15.648 150.188 15.936 150.188 16.32Z" fill="#6D7882"/>
<path d="M61.728 33.688H55.296V25.464H62.736V27.512H57.696V31.656H62.24C63.472 31.656 64.176 31.496 64.704 31.144V25.304H67.136V29.096H69.168V31.192H67.136V35.672H64.704V33.08C64.176 33.48 63.28 33.688 61.728 33.688ZM56.064 34.872H58.512V38.12H67.376V40.152H56.064V34.872ZM71.0554 29.208C71.0554 27.88 71.5034 26.856 72.3674 26.2C73.0714 25.672 74.0154 25.384 75.1514 25.384C76.3034 25.384 77.2634 25.672 77.9674 26.2C78.7994 26.856 79.2794 27.88 79.2794 29.208C79.2794 30.504 78.7994 31.528 77.9674 32.184C77.2634 32.728 76.3034 33.016 75.1514 33.016C74.0154 33.016 73.0714 32.728 72.3674 32.184C71.5034 31.528 71.0554 30.504 71.0554 29.208ZM73.4234 29.208C73.4234 29.768 73.5834 30.248 73.9034 30.536C74.1914 30.808 74.6074 30.968 75.1514 30.968C75.7274 30.968 76.1274 30.808 76.4154 30.536C76.7354 30.248 76.8954 29.768 76.8954 29.208C76.8954 28.616 76.7354 28.152 76.4154 27.848C76.1274 27.592 75.7274 27.416 75.1514 27.416C74.6074 27.416 74.1914 27.592 73.9034 27.848C73.5834 28.152 73.4234 28.616 73.4234 29.208ZM80.6074 33.352V25.304H83.0394V40.072H80.6074V35.304C80.0474 35.72 79.1514 35.912 77.5674 35.912H76.1434V40.088H73.6954V35.912H70.4954V33.848H78.0794C79.2954 33.848 80.0634 33.72 80.6074 33.352ZM94.0628 26.248V28.152H85.5348V26.248H88.6228V24.872H91.0708V26.248H94.0628ZM88.2708 31.528C88.2708 31.8 88.3988 32.04 88.5908 32.232C88.8788 32.472 89.2948 32.616 89.8068 32.616C90.3348 32.616 90.7508 32.472 91.0228 32.232C91.2308 32.04 91.3588 31.8 91.3588 31.528C91.3588 31.256 91.2308 31.016 91.0228 30.824C90.7508 30.584 90.3348 30.456 89.8068 30.456C89.2948 30.456 88.8788 30.584 88.5908 30.824C88.3988 31.016 88.2708 31.256 88.2708 31.528ZM85.9508 31.528C85.9508 30.728 86.2708 30.04 86.8468 29.528C87.5188 28.952 88.5268 28.6 89.8068 28.6C91.1028 28.6 92.1108 28.952 92.7828 29.528C93.3588 30.04 93.6788 30.728 93.6788 31.528C93.6788 32.328 93.3588 33.016 92.7828 33.528C92.1108 34.12 91.1028 34.456 89.8068 34.456C88.5268 34.456 87.5188 34.12 86.8468 33.528C86.2708 33.016 85.9508 32.328 85.9508 31.528ZM95.4228 25.304H97.8548V28.84H99.8868V30.936H97.8548V34.408H95.4228V25.304ZM86.6068 37.112V35.064H97.8548V40.312H95.4228V37.112H86.6068ZM111.182 31.256V27.624H101.806V25.56H113.614V30.792C113.614 32.44 113.47 34.232 113.214 35.528H110.782C111.022 34.312 111.182 32.648 111.182 31.256ZM107.31 37.4V31.096H109.71V37.4H114.35V39.464H101.166V37.4H103.566V31.096H105.95V37.4H107.31ZM125.309 36.184C124.557 37.576 122.829 38.728 121.021 39.144V37C122.733 36.232 124.093 34.952 124.093 30.808V25.464H126.525V30.808C126.525 34.952 127.853 36.216 129.581 37V39.144C127.789 38.728 126.093 37.56 125.309 36.184ZM130.845 25.304H133.277V31.08H135.437V33.176H133.277V40.072H130.845V25.304ZM136.764 29.128C136.764 27.752 137.276 26.68 138.108 26.04C138.796 25.48 139.692 25.208 140.732 25.208C141.788 25.208 142.684 25.48 143.372 26.04C143.996 26.52 144.412 27.224 144.604 28.12H146.588V25.304H149.02V33.176H146.588V30.168H144.604C144.412 31.048 143.98 31.752 143.372 32.232C142.684 32.776 141.788 33.048 140.732 33.048C139.692 33.048 138.796 32.776 138.108 32.232C137.276 31.576 136.764 30.52 136.764 29.128ZM139.116 29.128C139.116 29.8 139.308 30.312 139.676 30.648C139.948 30.904 140.3 31.032 140.732 31.032C141.164 31.032 141.532 30.904 141.804 30.648C142.172 30.312 142.364 29.8 142.364 29.128C142.364 28.472 142.172 27.96 141.804 27.624C141.532 27.368 141.164 27.224 140.732 27.224C140.3 27.224 139.948 27.368 139.676 27.624C139.308 27.96 139.116 28.472 139.116 29.128ZM140.236 35.144H146.604V33.688H149.02V40.232H137.804V33.688H140.236V35.144ZM146.604 38.264V37.144H140.236V38.264H146.604ZM154.843 25.384H157.275V27.72C157.275 30.312 158.427 31.464 160.283 31.992V34.104C158.539 33.832 156.923 32.968 156.075 31.88C155.259 33.016 153.643 33.944 151.835 34.264V32.184C153.755 31.592 154.843 30.232 154.843 27.72V25.384ZM164.379 25.304V35.672H161.947V29.848H159.099V27.8H161.947V25.304H164.379ZM164.619 38.12V40.152H153.163V34.888H155.595V38.12H164.619ZM171.883 34.088H167.595V25.464H173.339V27.368H169.851V28.808H173.163V30.712H169.851V32.184H172.395C173.387 32.184 173.979 32.024 174.459 31.688V25.384H176.651V28.76H177.675V25.304H179.947V34.408H177.675V30.84H176.651V34.328H174.459V33.496C174.011 33.896 173.291 34.088 171.883 34.088ZM168.443 37.112V35.064H179.947V40.312H177.515V37.112H168.443ZM183.05 27.592V25.56H189.082V27.592H187.226V31.944C187.226 35.368 187.93 36.408 189.226 37.048V39.144C187.818 38.808 186.714 37.992 186.058 37C185.402 37.992 184.298 38.808 182.906 39.144V37.048C184.266 36.376 184.922 35.368 184.922 31.944V27.592H183.05ZM189.994 32.904H188.138V30.824H189.994V25.384H192.234V39.944H189.994V32.904ZM195.306 25.304V40.072H193.018V25.304H195.306Z" fill="#131416"/>
</svg>
