<svg width="24" height="24" viewBox="0 0 24 24" fill="none" xmlns="http://www.w3.org/2000/svg">
<path d="M2 12C2 17.5228 6.47715 22 12 22C17.5228 22 22 17.5228 22 12C22 6.47715 17.5228 2 12 2C6.47715 2 2 6.47715 2 12Z" fill="#256EF4"/>
<path d="M12.9601 8.23247C12.6744 7.93261 12.1995 7.92145 11.8995 8.20708C11.5997 8.49276 11.5885 8.96771 11.8742 9.26763L14.0001 11.5001H7.75013C7.33592 11.5001 7.00013 11.8358 7.00013 12.2501C7.00013 12.6643 7.33592 13.0001 7.75013 13.0001H14.0001L11.8742 15.2325C11.5885 15.5324 11.5997 16.0073 11.8995 16.293C12.1995 16.5787 12.6744 16.5675 12.9601 16.2676L16.2931 12.7676C16.569 12.478 16.569 12.0221 16.2931 11.7325L12.9601 8.23247Z" fill="white"/>
</svg>
