<svg width="24" height="24" viewBox="0 0 24 24" fill="none" xmlns="http://www.w3.org/2000/svg">
<path d="M19.5 3C20.3284 3 21 3.67157 21 4.5V19.5C21 20.3284 20.3284 21 19.5 21H4.5C3.67157 21 3 20.3284 3 19.5V4.5C3 3.67157 3.67157 3 4.5 3H19.5ZM4.5 19.5H19.5V15.75H16.8105L14.9961 17.5645L14.9951 17.5664C14.8562 17.7047 14.6911 17.8142 14.5098 17.8887C14.3292 17.9628 14.1356 17.9994 13.9404 17.999V18H10.0596V17.999C9.86438 17.9994 9.6708 17.9628 9.49023 17.8887C9.30894 17.8142 9.14382 17.7047 9.00488 17.5664L9.00391 17.5645L7.18945 15.75H4.5V19.5ZM4.5 14.25H7.19043V14.251C7.33652 14.2507 7.48165 14.2707 7.62109 14.3125L7.75977 14.3613L7.89258 14.4238C7.97881 14.4696 8.0601 14.5242 8.13574 14.5859L8.24512 14.6836L8.24609 14.6855L10.0605 16.5H13.9395L15.7539 14.6855L15.7549 14.6836C15.8938 14.5453 16.0589 14.4358 16.2402 14.3613L16.3789 14.3125C16.5184 14.2707 16.6635 14.2507 16.8096 14.251V14.25H19.5V4.5H4.5V14.25Z" fill="#33363D"/>
</svg>
