<svg width="24" height="24" viewBox="0 0 24 24" fill="none" xmlns="http://www.w3.org/2000/svg">
<path d="M14.4448 4.17337C15.1988 3.41895 16.4216 3.41859 17.1762 4.17239L19.2153 6.20852C19.97 6.96263 19.9704 8.18624 19.2162 8.94095L9.59125 18.5708C9.32219 18.84 8.97901 19.024 8.60589 19.0991L4.30707 19.9654C4.06079 20.015 3.80595 19.938 3.62836 19.7603C3.45077 19.5826 3.37351 19.3278 3.42328 19.0816L4.29144 14.7876C4.36669 14.4153 4.55025 14.0729 4.81879 13.8042L14.4448 4.17337ZM16.1157 5.23294C15.947 5.06474 15.6737 5.06539 15.5053 5.23391L5.87933 14.8648C5.81937 14.9248 5.77895 15.0013 5.76214 15.0845L5.11761 18.271L8.31 17.6284C8.39337 17.6116 8.4696 17.5704 8.52972 17.5103L18.1547 7.8804C18.3233 7.71173 18.3234 7.4386 18.1547 7.27005L16.1157 5.23294Z" fill="#33363D"/>
<path d="M16.4417 17.9615C15.4518 16.405 13.248 16.2259 12.0198 17.6021L11.2884 18.4214C11.0127 18.7305 11.0399 19.2052 11.349 19.481C11.658 19.7567 12.1328 19.7295 12.4085 19.4204L13.139 18.6011C13.7047 17.9671 14.7201 18.0492 15.1761 18.7662C16.0983 20.2162 18.1015 20.4913 19.3802 19.3433L20.7054 18.1538C21.0135 17.8771 21.0387 17.4024 20.762 17.0943C20.4853 16.7862 20.0106 16.7609 19.7025 17.0376L18.3782 18.2271C17.7893 18.7558 16.8665 18.6292 16.4417 17.9615Z" fill="#33363D"/>
</svg>
