<svg width="24" height="24" viewBox="0 0 24 24" fill="none" xmlns="http://www.w3.org/2000/svg">
<path d="M2 12C2 17.5228 6.47715 22 12 22V22C17.5228 22 22 17.5228 22 12V12C22 6.47715 17.5228 2 12 2V2C6.47715 2 2 6.47715 2 12V12Z" fill="#D63D4A"/>
<path d="M10.5399 8.23247C10.8256 7.93261 11.3005 7.92145 11.6005 8.20708C11.9003 8.49276 11.9115 8.96771 11.6258 9.26763L9.49987 11.5001H15.7499C16.1641 11.5001 16.4999 11.8358 16.4999 12.2501C16.4999 12.6643 16.1641 13.0001 15.7499 13.0001H9.49987L11.6258 15.2325C11.9115 15.5324 11.9003 16.0073 11.6005 16.293C11.3005 16.5787 10.8256 16.5675 10.5399 16.2676L7.2069 12.7676C6.93103 12.478 6.93103 12.0221 7.2069 11.7325L10.5399 8.23247Z" fill="white"/>
</svg>
