<svg width="24" height="24" viewBox="0 0 24 24" fill="none" xmlns="http://www.w3.org/2000/svg">
<path fill-rule="evenodd" clip-rule="evenodd" d="M16.4343 2.43433C16.7467 2.12191 17.2533 2.12191 17.5657 2.43433L21.5657 6.43433C21.7157 6.58436 21.8 6.78784 21.8 7.00001C21.8 7.21219 21.7157 7.41567 21.5657 7.5657L12.5657 16.5657C12.4157 16.7157 12.2122 16.8 12 16.8H8C7.55817 16.8 7.2 16.4418 7.2 16V12C7.2 11.7878 7.28429 11.5844 7.43431 11.4343L16.4343 2.43433ZM17 4.13138L15.1314 6.00001L18 8.86864L19.8686 7.00001L17 4.13138ZM4.8 4.60001C4.68954 4.60001 4.6 4.68956 4.6 4.80001V19.2C4.6 19.3105 4.68954 19.4 4.8 19.4H19.2C19.3105 19.4 19.4 19.3105 19.4 19.2V12.2C19.4 11.7582 19.7582 11.4 20.2 11.4C20.6418 11.4 21 11.7582 21 12.2V19.2C21 20.1941 20.1941 21 19.2 21H4.8C3.80589 21 3 20.1941 3 19.2V4.80001C3 3.8059 3.80589 3.00001 4.8 3.00001H11.7992C12.241 3.00001 12.5992 3.35818 12.5992 3.80001C12.5992 4.24184 12.241 4.60001 11.7992 4.60001H4.8Z" fill="#33363D"/>
</svg>
