<svg width="24" height="24" viewBox="0 0 24 24" fill="none" xmlns="http://www.w3.org/2000/svg">
<path d="M3.7998 20.7744L6.74316 18.3145C7.01977 18.0794 7.37112 17.9503 7.73438 17.9502H20.2002V6.0498H3.7998V20.7744ZM7.25586 18.9277L7.76758 19.54C7.77154 19.5378 7.77581 19.5362 7.7793 19.5332L7.25586 18.9277ZM21.7998 18C21.7998 18.4111 21.6364 18.805 21.3457 19.0957C21.055 19.3864 20.6611 19.5498 20.25 19.5498H7.75977L4.74121 22.0732L4.73828 22.0762C4.5125 22.263 4.23792 22.3816 3.94727 22.4189C3.65667 22.4562 3.36131 22.4107 3.0957 22.2871C2.82999 22.1634 2.60482 21.9663 2.44629 21.7197C2.2878 21.4732 2.20252 21.1866 2.2002 20.8936V6C2.2002 5.58891 2.36362 5.19498 2.6543 4.9043C2.94498 4.61362 3.33891 4.4502 3.75 4.4502H20.25C20.6611 4.4502 21.055 4.61362 21.3457 4.9043C21.6364 5.19498 21.7998 5.58892 21.7998 6V18Z" fill="#33363D"/>
<path d="M12 13.125C12.6213 13.125 13.125 12.6213 13.125 12C13.125 11.3787 12.6213 10.875 12 10.875C11.3787 10.875 10.875 11.3787 10.875 12C10.875 12.6213 11.3787 13.125 12 13.125Z" fill="#33363D"/>
<path d="M7.5 13.125C8.12132 13.125 8.625 12.6213 8.625 12C8.625 11.3787 8.12132 10.875 7.5 10.875C6.87868 10.875 6.375 11.3787 6.375 12C6.375 12.6213 6.87868 13.125 7.5 13.125Z" fill="#33363D"/>
<path d="M16.5 13.125C17.1213 13.125 17.625 12.6213 17.625 12C17.625 11.3787 17.1213 10.875 16.5 10.875C15.8787 10.875 15.375 11.3787 15.375 12C15.375 12.6213 15.8787 13.125 16.5 13.125Z" fill="#33363D"/>
<rect width="11" height="11" rx="5.5" transform="matrix(1 0 0 -1 13 24)" fill="#228738"/>
<path fill-rule="evenodd" clip-rule="evenodd" d="M20.564 16.4867C20.7646 16.6238 20.8161 16.8976 20.679 17.0983L18.424 20.3983C18.3502 20.5063 18.232 20.5759 18.1017 20.5881C17.9713 20.6003 17.8423 20.5538 17.7497 20.4612L16.3738 19.0862C16.202 18.9145 16.2019 18.6359 16.3736 18.464C16.5454 18.2921 16.824 18.292 16.9959 18.4638L17.9967 19.4639L19.9524 16.6018C20.0896 16.4011 20.3633 16.3496 20.564 16.4867Z" fill="white"/>
</svg>
