<svg width="24" height="24" viewBox="0 0 24 24" fill="none" xmlns="http://www.w3.org/2000/svg">
<path d="M16.875 8.9502C17.3168 8.9502 17.6748 9.30817 17.6748 9.75C17.6748 10.1918 17.3168 10.5498 16.875 10.5498H7.125C6.68317 10.5498 6.3252 10.1918 6.3252 9.75C6.3252 9.30817 6.68317 8.9502 7.125 8.9502H16.875Z" fill="#33363D"/>
<path d="M16.875 11.9502C17.3168 11.9502 17.6748 12.3082 17.6748 12.75C17.6748 13.1918 17.3168 13.5498 16.875 13.5498H7.125C6.68317 13.5498 6.3252 13.1918 6.3252 12.75C6.3252 12.3082 6.68317 11.9502 7.125 11.9502H16.875Z" fill="#33363D"/>
<path d="M3.7998 18.2051L5.64258 17.2842L5.72852 17.2471C5.93302 17.1733 6.16052 17.1859 6.35742 17.2842L9 18.6055L11.6426 17.2842L11.7285 17.2471C11.933 17.1733 12.1605 17.1859 12.3574 17.2842L15 18.6055L17.6426 17.2842L17.7285 17.2471C17.933 17.1733 18.1605 17.1859 18.3574 17.2842L20.2002 18.2051V5.2998H3.7998V18.2051ZM21.7998 19.5C21.7998 19.7772 21.6567 20.0349 21.4209 20.1807C21.1852 20.3264 20.8905 20.3396 20.6426 20.2158L18 18.8945L15.3574 20.2158C15.1324 20.3282 14.8676 20.3282 14.6426 20.2158L12 18.8945L9.35742 20.2158C9.13241 20.3282 8.86759 20.3282 8.64258 20.2158L6 18.8945L3.35742 20.2158C3.10951 20.3396 2.81483 20.3264 2.5791 20.1807C2.34335 20.0349 2.2002 19.7772 2.2002 19.5V5.25C2.2002 4.83891 2.36362 4.44498 2.6543 4.1543C2.94498 3.86362 3.33891 3.7002 3.75 3.7002H20.25C20.6611 3.7002 21.055 3.86362 21.3457 4.1543C21.6364 4.44498 21.7998 4.83892 21.7998 5.25V19.5Z" fill="#33363D"/>
</svg>
