<svg width="24" height="24" viewBox="0 0 24 24" fill="none" xmlns="http://www.w3.org/2000/svg">
<path d="M14.4448 4.17337C15.1988 3.41895 16.4216 3.41859 17.1762 4.17239L19.2153 6.20852C19.97 6.96263 19.9704 8.18624 19.2162 8.94095L9.59125 18.5708C9.32219 18.84 8.97901 19.024 8.60589 19.0991L4.30707 19.9654C4.06079 20.015 3.80595 19.938 3.62836 19.7603C3.45077 19.5826 3.37351 19.3278 3.42328 19.0816L4.29144 14.7876C4.36669 14.4153 4.55025 14.0729 4.81879 13.8042L14.4448 4.17337ZM16.1157 5.23294C15.947 5.06474 15.6737 5.06539 15.5053 5.23391L5.87933 14.8648C5.81937 14.9248 5.77895 15.0013 5.76214 15.0845L5.11761 18.271L8.31 17.6284C8.39337 17.6116 8.4696 17.5704 8.52972 17.5103L18.1547 7.8804C18.3233 7.71173 18.3234 7.4386 18.1547 7.27005L16.1157 5.23294Z" fill="#33363D"/>
<rect width="11" height="11" rx="5.5" transform="matrix(1 0 0 -1 10.2861 20.8629)" fill="#228738"/>
<path fill-rule="evenodd" clip-rule="evenodd" d="M17.8501 13.3496C18.0507 13.4867 18.1023 13.7605 17.9651 13.9612L15.7101 17.2612C15.6363 17.3693 15.5181 17.4388 15.3878 17.451C15.2574 17.4632 15.1284 17.4167 15.0358 17.3242L13.66 15.9492C13.4881 15.7774 13.488 15.4988 13.6598 15.3269C13.8316 15.155 14.1102 15.1549 14.282 15.3267L15.2828 16.3268L17.2386 13.4647C17.3757 13.2641 17.6495 13.2125 17.8501 13.3496Z" fill="white"/>
</svg>
