<svg width="24" height="24" viewBox="0 0 24 24" fill="none" xmlns="http://www.w3.org/2000/svg">
<path d="M6.46973 12.4698C6.76262 12.1769 7.23738 12.1769 7.53027 12.4698C7.8231 12.7627 7.82314 13.2375 7.53027 13.5303L5.81055 15.2501H19C19.4142 15.2501 19.75 15.5858 19.75 16.0001C19.7499 16.4142 19.4142 16.7501 19 16.7501H5.81055L7.53027 18.4698C7.82313 18.7627 7.82315 19.2375 7.53027 19.5303C7.23739 19.8231 6.7626 19.8232 6.46973 19.5303L3.46973 16.5303C3.32911 16.3897 3.25003 16.1989 3.25 16.0001C3.25 15.8012 3.32912 15.6104 3.46973 15.4698L6.46973 12.4698ZM16.4697 4.46979C16.7626 4.1769 17.2374 4.17692 17.5303 4.46979L20.5303 7.46979C20.6709 7.61043 20.75 7.80118 20.75 8.00006C20.75 8.19893 20.6709 8.38971 20.5303 8.53033L17.5303 11.5303C17.2374 11.8231 16.7626 11.8231 16.4697 11.5303C16.1769 11.2375 16.177 10.7627 16.4697 10.4698L18.1895 8.75006H5C4.58583 8.75006 4.25007 8.41421 4.25 8.00006C4.25 7.58585 4.58579 7.25006 5 7.25006H18.1895L16.4697 5.53033C16.1769 5.23746 16.1769 4.76268 16.4697 4.46979Z" fill="#33363D"/>
</svg>
