<svg width="24" height="24" viewBox="0 0 24 24" fill="none" xmlns="http://www.w3.org/2000/svg">
<g clip-path="url(#clip0_13509_45396)">
<path d="M17.0098 2.0918C17.4515 2.09188 17.8096 2.44982 17.8096 2.8916V4.82422H19.7422C20.1839 4.8243 20.542 5.18225 20.542 5.62402V21.1084C20.5419 21.5501 20.1839 21.9081 19.7422 21.9082H6.99023C6.54848 21.9082 6.19055 21.5501 6.19043 21.1084V19.1758H4.25781C3.8161 19.1758 3.4582 18.8176 3.45801 18.376V3.34668C3.45819 2.6536 4.01981 2.09198 4.71289 2.0918H17.0098ZM7.79004 20.3086H18.9424V6.42383H7.79004V20.3086ZM5.05762 17.5762H6.19043V5.62402C6.19043 5.1822 6.54841 4.82422 6.99023 4.82422H16.21V3.69141H5.05762V17.5762ZM16.0986 13.9326C16.5405 13.9326 16.8984 14.2906 16.8984 14.7324C16.8983 15.1742 16.5404 15.5322 16.0986 15.5322H10.6338C10.1921 15.5321 9.83408 15.1741 9.83398 14.7324C9.83398 14.2907 10.1921 13.9327 10.6338 13.9326H16.0986ZM16.0986 10.2891C16.5405 10.2891 16.8984 10.647 16.8984 11.0889C16.8984 11.5307 16.5405 11.8887 16.0986 11.8887H10.6338C10.1921 11.8885 9.83398 11.5306 9.83398 11.0889C9.83398 10.6471 10.1921 10.2892 10.6338 10.2891H16.0986Z" fill="#33363D"/>
</g>
<defs>
<clipPath id="clip0_13509_45396">
<rect width="24" height="24" fill="white"/>
</clipPath>
</defs>
</svg>
