<svg width="24" height="24" viewBox="0 0 24 24" fill="none" xmlns="http://www.w3.org/2000/svg">
<path d="M2 12C2 17.5228 6.47715 22 12 22V22C17.5228 22 22 17.5228 22 12V12C22 6.47715 17.5228 2 12 2V2C6.47715 2 2 6.47715 2 12V12Z" fill="#D63D4A"/>
<path d="M7.76168 12.8686C8.22809 12.8686 8.6097 12.487 8.6097 12.0206C8.6097 11.5542 8.22809 11.1726 7.76168 11.1726C7.29527 11.1726 6.91366 11.5542 6.91366 12.0206C6.91366 12.487 7.29527 12.8686 7.76168 12.8686Z" fill="white"/>
<path d="M12.0002 12.848C12.4666 12.848 12.8482 12.4664 12.8482 12C12.8482 11.5336 12.4666 11.152 12.0002 11.152C11.5338 11.152 11.1522 11.5336 11.1522 12C11.1522 12.4664 11.5338 12.848 12.0002 12.848Z" fill="white"/>
<path d="M16.267 12.848C16.7334 12.848 17.1151 12.4664 17.1151 12C17.1151 11.5336 16.7334 11.152 16.267 11.152C15.8006 11.152 15.419 11.5336 15.419 12C15.419 12.4664 15.8006 12.848 16.267 12.848Z" fill="white"/>
<path d="M7.76168 12.8686C8.22809 12.8686 8.6097 12.487 8.6097 12.0206C8.6097 11.5542 8.22809 11.1726 7.76168 11.1726C7.29527 11.1726 6.91366 11.5542 6.91366 12.0206C6.91366 12.487 7.29527 12.8686 7.76168 12.8686Z" stroke="white"/>
<path d="M12.0002 12.848C12.4666 12.848 12.8482 12.4664 12.8482 12C12.8482 11.5336 12.4666 11.152 12.0002 11.152C11.5338 11.152 11.1522 11.5336 11.1522 12C11.1522 12.4664 11.5338 12.848 12.0002 12.848Z" stroke="white"/>
<path d="M16.267 12.848C16.7334 12.848 17.1151 12.4664 17.1151 12C17.1151 11.5336 16.7334 11.152 16.267 11.152C15.8006 11.152 15.419 11.5336 15.419 12C15.419 12.4664 15.8006 12.848 16.267 12.848Z" stroke="white"/>
</svg>
