<svg width="24" height="24" viewBox="0 0 24 24" fill="none" xmlns="http://www.w3.org/2000/svg">
<path d="M2 12C2 17.5228 6.47715 22 12 22V22C17.5228 22 22 17.5228 22 12V12C22 6.47715 17.5228 2 12 2V2C6.47715 2 2 6.47715 2 12V12Z" fill="#D63D4A"/>
<path d="M8.95923 6.30038C9.13595 5.95704 9.557 5.82144 9.90063 5.99765C10.2444 6.17418 10.3806 6.59622 10.2043 6.94003L9.4231 8.46054L10.5579 8.108C13.0393 7.33697 15.6725 8.73731 16.4456 11.2242C17.2185 13.7113 15.843 16.3582 13.3616 17.1295C10.8801 17.9005 8.24682 16.4993 7.47388 14.0123C7.35944 13.6432 7.56578 13.251 7.93481 13.1363C8.30391 13.0217 8.69602 13.2282 8.81079 13.5973C9.35682 15.354 11.2108 16.3313 12.9456 15.7926C14.6804 15.2534 15.6544 13.3971 15.1086 11.6402C14.5625 9.88331 12.7079 8.9057 10.9729 9.44492L9.83423 9.79941L11.3479 10.6187C11.6878 10.8027 11.815 11.228 11.6311 11.568C11.4471 11.9079 11.0218 12.0351 10.6819 11.8512L7.7063 10.2398C7.37167 10.0587 7.24267 9.64284 7.41626 9.30429L8.95923 6.30038Z" fill="white"/>
</svg>
