<svg width="95" height="60" viewBox="0 0 95 60" fill="none" xmlns="http://www.w3.org/2000/svg">
<g clip-path="url(#clip0_12563_74418)">
<g clip-path="url(#clip1_12563_74418)">
<path d="M93.3417 24.2194C91.9434 21.2057 88.3524 19.9029 85.3236 21.3086C82.292 22.7157 80.9676 26.2993 82.3646 29.3103C83.7629 32.324 87.354 33.6268 90.3828 32.221C93.4144 30.814 94.7387 27.2304 93.3417 24.2194Z" fill="#3787FB"/>
<path d="M90.1054 31.0568C92.9821 29.3493 93.9354 25.6482 92.2348 22.7902C90.5342 19.9323 86.8236 18.9996 83.9469 20.7071C81.0703 22.4146 80.1169 26.1157 81.8175 28.9737C83.5181 31.8316 87.2288 32.7643 90.1054 31.0568Z" fill="#3887FB"/>
<path d="M91.7326 27.4076C93.0601 24.3408 91.6457 20.794 88.5734 19.4856C85.5011 18.1773 81.9344 19.6028 80.6068 22.6696C79.2793 25.7365 80.6937 29.2833 83.766 30.5916C86.8383 31.9 90.405 30.4745 91.7326 27.4076Z" fill="#3987FB"/>
<path d="M90.9622 26.3295C92.1469 23.2021 90.5669 19.7218 87.4332 18.556C84.2994 17.3902 80.7986 18.9804 79.6139 22.1078C78.4292 25.2352 80.0092 28.7156 83.1429 29.8814C86.2767 31.0472 89.7775 29.457 90.9622 26.3295Z" fill="#3987FB"/>
<path d="M88.2405 28.0719C90.829 25.9357 91.1988 22.1215 89.0665 19.5526C86.9342 16.9838 83.1073 16.633 80.5188 18.7693C77.9304 20.9055 77.5606 24.7197 79.6929 27.2885C81.8252 29.8574 85.6521 30.2081 88.2405 28.0719Z" fill="#3A87FB"/>
<path d="M86.4358 27.9268C89.3585 26.2679 90.3889 22.569 88.7373 19.665C87.0857 16.761 83.3776 15.7516 80.455 17.4105C77.5323 19.0693 76.5019 22.7682 78.1535 25.6722C79.8051 28.5762 83.5132 29.5856 86.4358 27.9268Z" fill="#3B87FB"/>
<path d="M88.2955 20.1078C87.2973 16.914 83.8855 15.143 80.675 16.1523C77.4645 17.1615 75.6711 20.5687 76.6692 23.7625C77.6674 26.9563 81.0792 28.7273 84.2897 27.7181C87.5002 26.7088 89.2936 23.3016 88.2955 20.1078Z" fill="#3C88FB"/>
<path d="M85.1406 26.092C87.8442 24.0828 88.4111 20.2781 86.4069 17.5939C84.4026 14.9098 80.5862 14.3626 77.8826 16.3718C75.179 18.381 74.6121 22.1857 76.6163 24.8699C78.6206 27.554 82.437 28.1012 85.1406 26.092Z" fill="#3D88FB"/>
<path d="M86.0482 18.0009C84.6368 14.9596 81.0131 13.6453 77.9524 15.0628C74.8931 16.4831 73.5571 20.0993 74.9658 23.1419C76.3772 26.1832 80.0009 27.4975 83.0615 26.08C86.1208 24.6597 87.4569 21.0435 86.0482 18.0009Z" fill="#3D88FB"/>
<path d="M85.2602 17.9292C84.1628 14.7558 80.6868 13.0814 77.4963 14.1894C74.3058 15.2973 72.609 18.7681 73.7064 21.9415C74.8038 25.1149 78.2798 26.7893 81.4703 25.6813C84.6608 24.5734 86.3576 21.1026 85.2602 17.9292Z" fill="#3E88FB"/>
<path d="M84.5192 18.6321C84.1498 15.2894 81.1288 12.8905 77.7717 13.2741C74.4147 13.6577 71.9928 16.6785 72.3622 20.0212C72.7317 23.3639 75.7527 25.7628 79.1097 25.3792C82.4668 24.9956 84.8887 21.9748 84.5192 18.6321Z" fill="#3F88FB"/>
<path d="M82.9439 16.1785C81.5272 13.1261 77.8912 11.8076 74.8195 13.2303C71.7491 14.6559 70.4087 18.2844 71.8226 21.338C73.2393 24.3903 76.8753 25.7089 79.947 24.2861C83.0174 22.8606 84.3578 19.2321 82.9439 16.1785Z" fill="#4088FB"/>
<path d="M82.0624 20.2814C83.2237 17.1076 81.5869 13.6087 78.4065 12.4665C75.2261 11.3242 71.7064 12.9711 70.5451 16.1449C69.3838 19.3187 71.0206 22.8176 74.201 23.9598C77.3815 25.1021 80.9011 23.4552 82.0624 20.2814Z" fill="#4188FB"/>
<path d="M80.9906 19.7368C82.1309 16.5519 80.4679 13.0611 77.2762 11.9399C74.0846 10.8188 70.5729 12.4917 69.4327 15.6766C68.2925 18.8615 69.9555 22.3523 73.1471 23.4734C76.3388 24.5946 79.8504 22.9217 80.9906 19.7368Z" fill="#4188FB"/>
<path d="M78.3996 21.5827C80.823 19.2064 80.8631 15.3316 78.4889 12.9282C76.1148 10.5248 72.2256 10.503 69.8021 12.8793C67.3787 15.2557 67.3387 19.1305 69.7128 21.5338C72.0869 23.9372 75.9761 23.9591 78.3996 21.5827Z" fill="#4288FB"/>
<path d="M78.5652 14.1922C77.1419 11.1261 73.4883 9.799 70.404 11.2311C67.3198 12.6633 65.9707 16.3094 67.394 19.3755C68.8172 22.4416 72.4709 23.7687 75.5551 22.3365C78.6394 20.9044 79.9885 17.2583 78.5652 14.1922Z" fill="#4388FB"/>
<path d="M77.6418 18.4105C78.786 15.2145 77.1172 11.7115 73.9144 10.5864C70.7116 9.46126 67.1877 11.1401 66.0434 14.3361C64.8992 17.5321 66.5681 21.0351 69.7709 22.1602C72.9737 23.2854 76.4976 21.6065 77.6418 18.4105Z" fill="#4488FB"/>
<path d="M76.4963 18.0338C77.6416 14.8346 75.9711 11.3281 72.7651 10.2019C69.5591 9.07563 66.0317 10.7561 64.8863 13.9553C63.741 17.1546 65.4115 20.661 68.6175 21.7873C71.8235 22.9135 75.3509 21.233 76.4963 18.0338Z" fill="#4589FB"/>
<path d="M75.3449 17.6888C76.4914 14.4864 74.8192 10.9765 71.61 9.8491C68.4008 8.72175 64.8698 10.4039 63.7234 13.6063C62.5769 16.8087 64.249 20.3187 67.4582 21.446C70.6674 22.5734 74.1984 20.8912 75.3449 17.6888Z" fill="#4589FB"/>
<path d="M74.1807 17.3791C75.3289 14.1719 73.6543 10.6568 70.4403 9.52772C67.2263 8.39868 63.6901 10.0834 62.5419 13.2905C61.3937 16.4977 63.0683 20.0129 66.2823 21.142C69.4963 22.271 73.0325 20.5863 74.1807 17.3791Z" fill="#4689FC"/>
<path d="M73.3669 15.3229C73.5302 11.9226 70.8962 9.04701 67.4838 8.90011C64.0714 8.75321 61.1728 11.3906 61.0095 14.7909C60.8462 18.1913 63.4802 21.0668 66.8926 21.2137C70.305 21.3606 73.2036 18.7232 73.3669 15.3229Z" fill="#4789FC"/>
<path d="M68.996 20.1914C71.9881 18.528 73.0713 14.7693 71.4155 11.7961C69.7596 8.82293 65.9917 7.76118 62.9997 9.42461C60.0076 11.088 58.9244 14.8467 60.5802 17.8199C62.2361 20.7931 66.004 21.8548 68.996 20.1914Z" fill="#4889FC"/>
<path d="M70.6732 16.5767C71.7831 13.3438 70.0563 9.83884 66.8163 8.74811C63.5764 7.65737 60.0501 9.39393 58.9403 12.6268C57.8304 15.8597 59.5572 19.3647 62.7971 20.4554C66.0371 21.5462 69.5633 19.8096 70.6732 16.5767Z" fill="#4989FC"/>
<path d="M69.4549 16.4764C70.6083 13.2549 68.9261 9.72401 65.6978 8.58993C62.4694 7.45585 58.9174 9.14805 57.7641 12.3696C56.6107 15.5911 58.2929 19.122 61.5212 20.2561C64.7496 21.3902 68.3016 19.698 69.4549 16.4764Z" fill="#4989FC"/>
<path d="M68.2566 16.3361C69.4111 13.1114 67.7273 9.57696 64.4958 8.44175C61.2642 7.30655 57.7087 9.00043 56.5542 12.2251C55.3997 15.4498 57.0835 18.9842 60.3151 20.1194C63.5466 21.2546 67.1022 19.5608 68.2566 16.3361Z" fill="#4A89FC"/>
<path d="M66.7125 17.0237C68.3055 13.9845 67.1298 10.2457 64.0865 8.67283C61.0433 7.09992 57.2849 8.28855 55.6919 11.3277C54.099 14.3668 55.2747 18.1057 58.3179 19.6786C61.3612 21.2515 65.1195 20.0629 66.7125 17.0237Z" fill="#4B89FC"/>
<path d="M66.1103 15.2403C66.7578 11.8715 64.5439 8.6302 61.1653 8.00073C57.7868 7.37126 54.523 9.59194 53.8755 12.9608C53.228 16.3296 55.442 19.5708 58.8205 20.2003C62.1991 20.8298 65.4628 18.6091 66.1103 15.2403Z" fill="#4C89FC"/>
<path d="M64.4411 11.434C63.0009 8.32527 59.2954 6.98228 56.1683 8.43149C53.0411 9.88069 51.6758 13.5785 53.116 16.6872C54.5562 19.796 58.2617 21.139 61.3888 19.6898C64.516 18.2406 65.8813 14.5428 64.4411 11.434Z" fill="#4D8AFC"/>
<path d="M63.4439 11.9146C62.2718 8.69083 58.6939 7.0362 55.4525 8.21889C52.2111 9.40157 50.5337 12.9737 51.7058 16.1975C52.8779 19.4213 56.4558 21.0759 59.6972 19.8932C62.9386 18.7105 64.616 15.1384 63.4439 11.9146Z" fill="#4D8AFC"/>
<path d="M62.2475 16.1579C63.4089 12.914 61.7151 9.3587 58.4644 8.21677C55.2137 7.07484 51.6371 8.77875 50.4758 12.0226C49.3145 15.2664 51.0082 18.8217 54.2589 19.9636C57.5096 21.1056 61.0862 19.4017 62.2475 16.1579Z" fill="#4E8AFC"/>
<path d="M60.8319 11.5227C59.3864 8.40294 55.6687 7.05564 52.5304 8.51013C49.3922 9.96462 48.0226 13.6746 49.468 16.7944C50.9134 19.9142 54.6311 21.2615 57.7694 19.807C60.9077 18.3525 62.2773 14.6425 60.8319 11.5227Z" fill="#4F8AFC"/>
<path d="M60.1952 13.909C60.0184 10.4687 57.0749 7.83546 53.6207 8.02758C50.1666 8.21969 47.5098 11.1644 47.6866 14.6047C47.8635 18.045 50.807 20.6782 54.2611 20.4861C57.7153 20.294 60.3721 17.3493 60.1952 13.909Z" fill="#508AFC"/>
<path d="M57.0571 18.9139C59.5709 16.5283 59.6769 12.5732 57.2939 10.0799C54.9108 7.5866 50.9412 7.49935 48.4275 9.885C45.9138 12.2706 45.8078 16.2258 48.1908 18.7191C50.5738 21.2123 54.5434 21.2996 57.0571 18.9139Z" fill="#518AFC"/>
<path d="M57.7267 13.4103C57.096 10.0167 53.8209 7.78783 50.4116 8.43188C47.0023 9.07594 44.7498 12.3491 45.3805 15.7426C46.0112 19.1362 49.2862 21.3651 52.6955 20.721C56.1048 20.077 58.3574 16.8038 57.7267 13.4103Z" fill="#518AFC"/>
<path d="M55.336 18.5814C57.454 15.8326 56.9422 11.9041 54.1929 9.80677C51.4436 7.70946 47.4978 8.23756 45.3799 10.9863C43.2619 13.7351 43.7737 17.6636 46.523 19.7609C49.2723 21.8582 53.2181 21.3301 55.336 18.5814Z" fill="#528AFC"/>
<path d="M55.4016 14.0894C54.8932 10.6664 51.6938 8.31501 48.2556 8.83734C44.8174 9.35967 42.4422 12.558 42.9506 15.9809C43.459 19.4039 46.6583 21.7553 50.0966 21.2329C53.5348 20.7106 55.9099 17.5123 55.4016 14.0894Z" fill="#538AFC"/>
<path d="M53.322 18.6547C55.1846 15.7187 54.3125 11.8455 51.374 10.0035C48.4356 8.16146 44.5437 9.0483 42.6811 11.9843C40.8185 14.9202 41.6907 18.7935 44.6291 20.6355C47.5675 22.4775 51.4595 21.5907 53.322 18.6547Z" fill="#548AFC"/>
<path d="M51.2178 20.1465C53.7224 17.7245 53.7913 13.7474 51.3717 11.2634C48.9522 8.77944 44.9604 8.7292 42.4558 11.1512C39.9513 13.5732 39.8823 17.5503 42.3019 20.0343C44.7214 22.5182 48.7132 22.5685 51.2178 20.1465Z" fill="#558AFC"/>
<path d="M51.8363 17.3674C52.6091 13.9776 50.4801 10.6182 47.0811 9.86397C43.682 9.10975 40.3001 11.2463 39.5272 14.6361C38.7544 18.0259 40.8834 21.3853 44.2824 22.1396C47.6815 22.8938 51.0634 20.7572 51.8363 17.3674Z" fill="#558BFC"/>
<path d="M48.4045 21.368C51.1673 19.2294 51.6772 15.2725 49.5434 12.53C47.4095 9.78745 43.44 9.29784 40.6773 11.4364C37.9145 13.575 37.4046 17.5319 39.5384 20.2744C41.6723 23.0169 45.6418 23.5065 48.4045 21.368Z" fill="#568BFC"/>
<path d="M49.6192 18.0253C50.2925 14.6063 48.0587 11.3037 44.6299 10.6488C41.2011 9.99391 37.8758 12.2346 37.2025 15.6536C36.5292 19.0726 38.763 22.3751 42.1918 23.0301C45.6205 23.685 48.9459 21.4443 49.6192 18.0253Z" fill="#578BFC"/>
<path d="M47.2226 21.2482C49.4175 18.5251 48.9893 14.5552 46.2661 12.3811C43.5429 10.207 39.5559 10.652 37.361 13.3751C35.1661 16.0982 35.5943 20.0681 38.3175 22.2422C41.0407 24.4163 45.0276 23.9713 47.2226 21.2482Z" fill="#588BFC"/>
<path d="M46.5067 21.2399C48.4175 18.3065 47.5867 14.3963 44.651 12.5063C41.7153 10.6163 37.7865 11.4621 35.8758 14.3956C33.965 17.329 34.7958 21.2392 37.7315 23.1292C40.6672 25.0192 44.596 24.1734 46.5067 21.2399Z" fill="#598BFC"/>
<path d="M45.0216 22.3459C47.2418 19.6323 46.8419 15.6495 44.1283 13.4502C41.4147 11.2509 37.415 11.6678 35.1948 14.3815C32.9746 17.0951 33.3746 21.0778 36.0882 23.2771C38.8018 25.4765 42.8014 25.0595 45.0216 22.3459Z" fill="#598BFC"/>
<path d="M45.0231 21.0541C46.2038 17.7562 44.4817 14.1415 41.1768 12.9805C37.8718 11.8195 34.2355 13.5519 33.0548 16.8498C31.8741 20.1478 33.5962 23.7625 36.9011 24.9234C40.2061 26.0844 43.8424 24.3521 45.0231 21.0541Z" fill="#5A8BFC"/>
<path d="M44.3249 20.129C44.6525 16.6413 42.0814 13.5625 38.5821 13.2523C35.0829 12.942 31.9805 15.5178 31.6528 19.0054C31.3252 22.493 33.8963 25.5718 37.3956 25.8821C40.8949 26.1924 43.9972 23.6166 44.3249 20.129Z" fill="#5B8BFC"/>
<path d="M42.765 22.8444C44.2272 19.6499 42.8187 15.8914 39.619 14.4495C36.4192 13.0076 32.64 14.4283 31.1778 17.6227C29.7156 20.8171 31.1242 24.5756 34.3239 26.0176C37.5236 27.4595 41.3028 26.0388 42.765 22.8444Z" fill="#5C8BFC"/>
<path d="M42.3351 21.2605C42.5372 17.7572 39.851 14.7672 36.3355 14.5822C32.8199 14.3971 29.8062 17.0871 29.6041 20.5904C29.4021 24.0936 32.0882 27.0836 35.6038 27.2687C39.1194 27.4537 42.1331 24.7638 42.3351 21.2605Z" fill="#5D8BFC"/>
<path d="M40.9789 23.8614C42.215 20.5672 40.5411 16.9108 37.2402 15.6946C33.9393 14.4784 30.2613 16.163 29.0252 19.4572C27.7892 22.7514 29.463 26.4078 32.7639 27.624C36.0649 28.8402 39.7428 27.1556 40.9789 23.8614Z" fill="#5D8BFC"/>
<path d="M39.8662 19.7356C38.3893 16.5497 34.5926 15.1723 31.3878 16.6585C28.183 18.1447 26.7829 21.9336 28.2598 25.1195C29.7368 28.3055 33.5334 29.6828 36.7383 28.1966C39.9431 26.7104 41.3432 22.9216 39.8662 19.7356Z" fill="#5E8CFC"/>
<path d="M39.18 25.3483C40.3686 22.0281 38.6349 18.389 35.3077 17.2201C31.9804 16.0513 28.3195 17.7954 27.1308 21.1156C25.9421 24.4358 27.6758 28.075 31.0031 29.2438C34.3304 30.4126 37.9913 28.6686 39.18 25.3483Z" fill="#5F8CFC"/>
<path d="M38.5645 25.3512C39.2865 21.8988 37.0651 18.5299 33.603 17.8266C30.1409 17.1233 26.749 19.352 26.027 22.8045C25.305 26.2569 27.5264 29.6258 30.9885 30.3291C34.4506 31.0323 37.8425 28.8037 38.5645 25.3512Z" fill="#608CFC"/>
<path d="M34.2374 30.7098C37.4328 29.1732 38.7848 25.3527 37.2572 22.1764C35.7296 19.0002 31.9009 17.671 28.7056 19.2075C25.5103 20.7441 24.1583 24.5646 25.6858 27.7409C27.2134 30.9171 31.0421 32.2464 34.2374 30.7098Z" fill="#618CFC"/>
<path d="M36.9987 27.0301C37.6551 23.5564 35.363 20.2234 31.8791 19.5856C28.3953 18.9478 25.0391 21.2468 24.3827 24.7205C23.7264 28.1942 26.0185 31.5273 29.5023 32.1651C32.9861 32.8028 36.3424 30.5039 36.9987 27.0301Z" fill="#618CFC"/>
<path d="M34.6716 31.1639C37.0866 28.5627 36.9368 24.5133 34.3369 22.1193C31.737 19.7254 27.6717 19.8934 25.2566 22.4946C22.8416 25.0959 22.9914 29.1453 25.5913 31.5392C28.1911 33.9332 32.2565 33.7651 34.6716 31.1639Z" fill="#628CFC"/>
<path d="M35.568 26.4238C34.8104 22.9685 31.3816 20.7924 27.9098 21.5632C24.4379 22.3341 22.2376 25.76 22.9953 29.2153C23.753 32.6706 27.1817 34.8468 30.6535 34.0759C34.1254 33.3051 36.3257 29.8791 35.568 26.4238Z" fill="#638CFC"/>
<path d="M34.7985 26.8894C33.7277 23.5152 30.1099 21.6573 26.718 22.7398C23.326 23.8223 21.4444 27.4351 22.5152 30.8094C23.586 34.1836 27.2038 36.0414 30.5958 34.959C33.9877 33.8765 35.8694 30.2637 34.7985 26.8894Z" fill="#648CFC"/>
<path d="M34.0881 32.2167C35.3802 28.9056 33.7382 25.1904 30.4206 23.9185C27.1029 22.6465 23.366 24.2996 22.0739 27.6107C20.7818 30.9218 22.4238 34.6371 25.7414 35.909C29.0591 37.1809 32.796 35.5278 34.0881 32.2167Z" fill="#658CFD"/>
<path d="M32.1214 35.5608C34.6523 33.0496 34.6701 28.9793 32.1611 26.4695C29.6522 23.9598 25.5666 23.9609 23.0357 26.4721C20.5048 28.9833 20.487 33.0536 22.996 35.5634C25.5049 38.0732 29.5905 38.072 32.1214 35.5608Z" fill="#658CFD"/>
<path d="M33.4588 30.7493C32.6948 27.2798 29.2495 25.0973 25.7634 25.8745C22.2773 26.6517 20.0705 30.0943 20.8345 33.5637C21.5985 37.0332 25.0438 39.2157 28.5299 38.4385C32.016 37.6613 34.2227 34.2187 33.4588 30.7493Z" fill="#668CFD"/>
<path d="M32.8718 35.4557C34.0736 32.0988 32.3207 28.4195 28.9568 27.2378C25.5928 26.0561 21.8915 27.8194 20.6897 31.1762C19.4879 34.5331 21.2407 38.2124 24.6047 39.3941C27.9687 40.5758 31.67 38.8125 32.8718 35.4557Z" fill="#678DFD"/>
<path d="M32.8148 33.1021C32.0579 29.6242 28.6114 27.4291 25.1169 28.1993C21.6223 28.9694 19.403 32.4132 20.1598 35.8911C20.9167 39.3691 24.3632 41.5641 27.8578 40.794C31.3523 40.0238 33.5717 36.5801 32.8148 33.1021Z" fill="#688DFD"/>
<path d="M29.8854 41.0422C32.8594 39.0419 33.6539 35.026 31.6599 32.0723C29.6659 29.1186 25.6384 28.3457 22.6643 30.346C19.6903 32.3462 18.8958 36.3622 20.8898 39.3159C22.8838 42.2696 26.9113 43.0425 29.8854 41.0422Z" fill="#698DFD"/>
<path d="M29.4178 42.4595C32.5094 40.6389 33.5458 36.673 31.7326 33.6014C29.9195 30.5298 25.9434 29.5157 22.8518 31.3363C19.7601 33.1569 18.7238 37.1228 20.5369 40.1944C22.3501 43.266 26.3262 44.2802 29.4178 42.4595Z" fill="#698DFD"/>
<path d="M32.4651 36.8931C31.8082 33.3826 28.4167 31.0805 24.8899 31.7512C21.3631 32.4219 19.0365 35.8114 19.6934 39.3219C20.3503 42.8324 23.7419 45.1345 27.2687 44.4638C30.7955 43.7931 33.122 40.4036 32.4651 36.8931Z" fill="#6A8DFD"/>
<path d="M32.2732 41.3319C33.4125 37.9324 31.574 34.2691 28.1669 33.1499C24.7598 32.0306 21.0742 33.8791 19.9349 37.2787C18.7957 40.6782 20.6341 44.3414 24.0412 45.4607C27.4483 46.58 31.1339 44.7315 32.2732 41.3319Z" fill="#6B8DFD"/>
<path d="M29.5538 46.0547C32.6384 44.1991 33.6405 40.2107 31.7922 37.1463C29.9439 34.0819 25.945 33.1019 22.8605 34.9575C19.7759 36.8131 18.7737 40.8016 20.6221 43.866C22.4704 46.9304 26.4693 47.9103 29.5538 46.0547Z" fill="#6C8DFD"/>
<path d="M32.8866 42.2695C33.2253 38.6981 30.5949 35.5428 27.0116 35.2219C23.4282 34.901 20.2488 37.5361 19.9101 41.1076C19.5714 44.679 22.2018 47.8343 25.7851 48.1552C29.3685 48.4761 32.5479 45.8409 32.8866 42.2695Z" fill="#6D8DFD"/>
<path d="M32.5989 40.0989C31.0904 36.8468 27.2148 35.4394 23.9434 36.9573C20.672 38.4752 19.2414 42.3429 20.7499 45.595C22.2583 48.8471 26.134 50.2544 29.4053 48.7365C32.6767 47.2186 34.1074 43.351 32.5989 40.0989Z" fill="#6D8DFD"/>
<path d="M29.9927 49.7733C33.2101 48.1322 34.495 44.2096 32.8627 41.0119C31.2304 37.8141 27.2989 36.5521 24.0815 38.1932C20.8641 39.8342 19.5791 43.7568 21.2115 46.9546C22.8438 50.1524 26.7753 51.4143 29.9927 49.7733Z" fill="#6E8DFD"/>
<path d="M32.0898 49.6953C34.658 47.1542 34.6817 43.0297 32.143 40.483C29.6042 37.9362 25.4642 37.9316 22.8961 40.4727C20.328 43.0138 20.3042 47.1383 22.843 49.685C25.3817 52.2318 29.5217 52.2363 32.0898 49.6953Z" fill="#6F8DFD"/>
<path d="M31.1356 51.8828C34.322 50.168 35.5218 46.211 33.8153 43.0444C32.1089 39.8779 28.1424 38.701 24.956 40.4157C21.7696 42.1304 20.5699 46.0875 22.2763 49.254C23.9828 52.4206 27.9492 53.5975 31.1356 51.8828Z" fill="#708EFD"/>
<path d="M34.6391 44.4101C33.1241 41.1442 29.2322 39.7311 25.9428 41.2542C22.6576 42.7787 21.2211 46.6626 22.7347 49.9326C24.2497 53.1985 28.1417 54.6116 31.431 53.0885C34.7162 51.564 36.1527 47.6801 34.6391 44.4101Z" fill="#718EFD"/>
<path d="M33.2989 53.3878C36.2256 51.2466 36.8667 47.1552 34.7309 44.2495C32.5952 41.3437 28.4913 40.7239 25.5647 42.8652C22.6381 45.0064 21.997 49.0978 24.1327 52.0035C26.2685 54.9092 30.3723 55.529 33.2989 53.3878Z" fill="#718EFD"/>
<path d="M35.6254 52.7605C37.7173 49.7998 37.0117 45.7212 34.0495 43.6509C31.0872 41.5805 26.99 42.3023 24.8981 45.2631C22.8062 48.2238 23.5117 52.3024 26.474 54.3727C29.4362 56.4431 33.5335 55.7213 35.6254 52.7605Z" fill="#728EFD"/>
<path d="M37.6875 50.6762C38.179 47.0894 35.6607 43.7982 32.0626 43.3251C28.4645 42.852 25.1492 45.3762 24.6576 48.963C24.1661 52.5498 26.6844 55.841 30.2825 56.3141C33.8806 56.7872 37.1959 54.263 37.6875 50.6762Z" fill="#738EFD"/>
<path d="M36.0652 55.7945C38.9883 53.6285 39.6064 49.52 37.4457 46.6179C35.2851 43.7159 31.164 43.1191 28.2409 45.2851C25.3178 47.4511 24.6998 51.5596 26.8604 54.4617C29.021 57.3638 33.1422 57.9605 36.0652 55.7945Z" fill="#748EFD"/>
<path d="M39.3952 53.3545C40.6192 49.9355 38.834 46.1882 35.4078 44.9846C31.9816 43.781 28.2118 45.5769 26.9878 48.9959C25.7637 52.4149 27.549 56.1622 30.9752 57.3658C34.4014 58.5694 38.1712 56.7735 39.3952 53.3545Z" fill="#758EFD"/>
<path d="M40.3435 49.0996C38.9099 45.7693 35.0325 44.2399 31.683 45.6835C28.3335 47.1271 26.7803 50.9972 28.2139 54.3274C29.6474 57.6577 33.5249 59.1871 36.8744 57.7435C40.2239 56.2998 41.777 52.4298 40.3435 49.0996Z" fill="#768EFD"/>
<path d="M39.8482 57.0063C42.5476 54.5511 42.7481 50.3899 40.2961 47.712C37.8441 45.0341 33.6681 44.8536 30.9687 47.3088C28.2693 49.764 28.0688 53.9253 30.5208 56.6032C32.9728 59.2811 37.1488 59.4616 39.8482 57.0063Z" fill="#768EFD"/>
<path d="M41.701 56.6163C44.002 53.7828 43.5703 49.6381 40.7368 47.3588C37.9033 45.0795 33.7409 45.5287 31.4398 48.3622C29.1388 51.1957 29.5705 55.3404 32.404 57.6197C35.2375 59.899 39.3999 59.4498 41.701 56.6163Z" fill="#778EFD"/>
<path d="M44.0304 50.6272C42.882 47.1772 39.1393 45.3209 35.671 46.481C32.2026 47.6412 30.3219 51.3784 31.4704 54.8284C32.6188 58.2784 36.3615 60.1347 39.8298 58.9746C43.2982 57.8145 45.1789 54.0772 44.0304 50.6272Z" fill="#788FFD"/>
<path d="M41.7759 58.7905C45.0825 57.2152 46.4936 53.2736 44.9277 49.9867C43.3618 46.6998 39.4119 45.3122 36.1053 46.8875C32.7987 48.4627 31.3876 52.4043 32.9535 55.6912C34.5194 58.9782 38.4693 60.3657 41.7759 58.7905Z" fill="#798FFD"/>
<path d="M46.2133 50.1657C44.7466 46.8296 40.8374 45.3223 37.4819 46.799C34.1265 48.2756 32.5953 52.1772 34.0621 55.5132C35.5288 58.8493 39.4379 60.3566 42.7934 58.8799C46.1489 57.4032 47.68 53.5017 46.2133 50.1657Z" fill="#7A8FFD"/>
<path d="M47.5146 55.057C48.8305 51.6427 47.1239 47.825 43.7029 46.5298C40.2818 45.2347 36.4418 46.9525 35.1258 50.3668C33.8099 53.781 35.5165 57.5988 38.9375 58.8939C42.3586 60.1891 46.1987 58.4712 47.5146 55.057Z" fill="#7A8FFD"/>
<path d="M48.9001 54.1534C49.8631 50.6203 47.7724 46.9918 44.2304 46.0488C40.6885 45.1059 37.0366 47.2055 36.0736 50.7386C35.1107 54.2716 37.2014 57.9002 40.7433 58.8431C44.2852 59.7861 47.9372 57.6864 48.9001 54.1534Z" fill="#7B8FFD"/>
<path d="M49.8937 54.2541C51.1297 50.8017 49.327 47.0177 45.8673 45.8023C42.4075 44.5869 38.6009 46.4004 37.3649 49.8528C36.1289 53.3053 37.9316 57.0893 41.3914 58.3046C44.8511 59.52 48.6577 57.7065 49.8937 54.2541Z" fill="#7C8FFD"/>
<path d="M47.8482 57.371C51.0941 55.6344 52.3245 51.6116 50.5964 48.3859C48.8683 45.1602 44.8361 43.953 41.5901 45.6896C38.3442 47.4262 37.1138 51.4489 38.8419 54.6747C40.57 57.9004 44.6023 59.1076 47.8482 57.371Z" fill="#7D8FFD"/>
<path d="M50.8748 55.1014C53.2126 52.2562 52.8013 48.0724 49.9562 45.7565C47.1111 43.4407 42.9095 43.8698 40.5718 46.715C38.234 49.5602 38.6453 53.7441 41.4904 56.0599C44.3355 58.3757 48.537 57.9466 50.8748 55.1014Z" fill="#7E8FFD"/>
<path d="M52.9936 52.219C54.1325 48.7216 52.2141 44.9797 48.7087 43.8613C45.2033 42.7428 41.4384 44.6714 40.2995 48.1688C39.1606 51.6662 41.079 55.4081 44.5843 56.5266C48.0897 57.645 51.8546 55.7165 52.9936 52.219Z" fill="#7E8FFD"/>
<path d="M52.2674 54.0279C54.8508 51.3923 54.8102 47.1793 52.1766 44.6177C49.5431 42.0562 45.3139 42.1162 42.7304 44.7518C40.147 47.3874 40.1877 51.6005 42.8212 54.162C45.4548 56.7235 49.684 56.6635 52.2674 54.0279Z" fill="#7F8FFD"/>
<path d="M54.883 47.5178C54.3455 43.8809 50.9482 41.3803 47.295 41.9327C43.6418 42.4851 41.1161 45.8813 41.6536 49.5182C42.1912 53.1552 45.5885 55.6557 49.2416 55.1033C52.8948 54.5509 55.4206 51.1548 54.883 47.5178Z" fill="#808FFD"/>
<path d="M53.2154 52.6982C56.0698 50.3433 56.4782 46.1379 54.1277 43.3052C51.7772 40.4724 47.5578 40.0849 44.7035 42.4398C41.8491 44.7946 41.4406 49 43.7911 51.8328C46.1416 54.6656 50.361 55.053 53.2154 52.6982Z" fill="#8190FD"/>
<path d="M54.3174 51.2477C56.9353 48.6293 56.9367 44.4023 54.3206 41.8063C51.7045 39.2104 47.4615 39.2286 44.8436 41.8469C42.2257 44.4653 42.2243 48.6923 44.8404 51.2883C47.4565 53.8842 51.6995 53.8661 54.3174 51.2477Z" fill="#8290FD"/>
<path d="M56.8322 45.5384C56.88 41.848 53.916 38.8317 50.212 38.8011C46.5079 38.7706 43.4664 41.7375 43.4186 45.4279C43.3708 49.1182 46.3348 52.1346 50.0389 52.1651C53.7429 52.1956 56.7844 49.2287 56.8322 45.5384Z" fill="#8290FD"/>
<path d="M53.8885 50.1829C57.1208 48.3549 58.2659 44.2694 56.4459 41.0576C54.626 37.8458 50.5304 36.724 47.298 38.552C44.0657 40.3799 42.9206 44.4655 44.7405 47.6773C46.5604 50.8891 50.6561 52.0109 53.8885 50.1829Z" fill="#8390FE"/>
<path d="M57.2487 45.6232C58.6058 42.174 56.9044 38.2947 53.4484 36.9587C49.9925 35.6227 46.0907 37.3357 44.7336 40.7849C43.3765 44.2341 45.078 48.1134 48.5339 49.4494C51.9899 50.7854 55.8916 49.0724 57.2487 45.6232Z" fill="#8490FE"/>
<path d="M57.6104 44.3547C58.9228 40.8849 57.1681 37.0253 53.6913 35.7339C50.2145 34.4426 46.3321 36.2085 45.0198 39.6783C43.7074 43.1481 45.4621 47.0078 48.9389 48.2991C52.4157 49.5905 56.2981 47.8245 57.6104 44.3547Z" fill="#8590FE"/>
<path d="M58.2992 41.1078C58.4836 37.4042 55.62 34.2668 51.9032 34.1004C48.1864 33.9339 45.024 36.8013 44.8396 40.5049C44.6553 44.2086 47.5189 47.3459 51.2357 47.5124C54.9524 47.6789 58.1149 44.8114 58.2992 41.1078Z" fill="#8690FE"/>
<path d="M55.2294 45.3199C58.4211 43.3923 59.4519 39.2593 57.5318 36.0884C55.6117 32.9176 51.4678 31.9098 48.2761 33.8374C45.0844 35.765 44.0536 39.8981 45.9737 43.0689C47.8938 46.2397 52.0377 47.2475 55.2294 45.3199Z" fill="#8690FE"/>
<path d="M57.9975 35.4974C56.4379 32.1309 52.4275 30.6762 49.0411 32.2455C45.6547 33.8148 44.1759 37.817 45.7354 41.1834C47.295 44.5499 51.3054 46.0046 54.6918 44.4353C58.0782 42.866 59.557 38.8638 57.9975 35.4974Z" fill="#8790FE"/>
<path d="M58.2757 39.3398C59.5311 35.8332 57.7001 31.9899 54.1861 30.7555C50.6721 29.5211 46.8058 31.363 45.5504 34.8696C44.295 38.3761 46.126 42.2195 49.64 43.4539C53.154 44.6883 57.0203 42.8464 58.2757 39.3398Z" fill="#8890FE"/>
<path d="M56.8667 40.418C59.4006 37.6705 59.2287 33.4071 56.4826 30.8953C53.7365 28.3836 49.4561 28.5747 46.9221 31.3221C44.3882 34.0696 44.5601 38.3331 47.3062 40.8448C50.0523 43.3566 54.3327 43.1655 56.8667 40.418Z" fill="#8990FE"/>
<path d="M58.1808 36.9005C59.4391 33.386 57.6039 29.5339 54.082 28.2967C50.56 27.0594 46.6849 28.9056 45.4267 32.4201C44.1684 35.9346 46.0036 39.7867 49.5255 41.0239C53.0475 42.2611 56.9226 40.415 58.1808 36.9005Z" fill="#8A91FE"/>
<path d="M58.4104 32.8661C58.0965 29.1514 54.8181 26.4076 51.0879 26.7376C47.3578 27.0675 44.5883 30.3464 44.9023 34.0611C45.2162 37.7758 48.4946 40.5196 52.2248 40.1896C55.955 39.8597 58.7244 36.5808 58.4104 32.8661Z" fill="#8A91FE"/>
<path d="M57.8487 34.5202C59.1098 30.9978 57.2705 27.137 53.7405 25.8969C50.2106 24.6569 46.3267 26.5072 45.0656 30.0297C43.8045 33.5522 45.6438 37.413 49.1738 38.653C52.7037 39.893 56.5876 38.0427 57.8487 34.5202Z" fill="#8B91FE"/>
<path d="M57.976 30.4611C57.6398 26.74 54.3381 24.0089 50.6013 24.3611C46.8646 24.7132 44.1079 28.0153 44.444 31.7364C44.7802 35.4575 48.082 38.1886 51.8187 37.8365C55.5555 37.4843 58.3122 34.1823 57.976 30.4611Z" fill="#8C91FE"/>
<path d="M56.2497 34.0964C58.576 31.1489 58.0722 26.8917 55.1243 24.5877C52.1765 22.2837 47.9009 22.8054 45.5745 25.7529C43.2482 28.7004 43.752 32.9576 46.6999 35.2616C49.6477 37.5655 53.9233 37.0439 56.2497 34.0964Z" fill="#8D91FE"/>
<path d="M53.4837 34.894C56.8822 33.275 58.3325 29.2239 56.7231 25.8456C55.1137 22.4673 51.054 21.0412 47.6555 22.6603C44.257 24.2793 42.8066 28.3304 44.4161 31.7087C46.0255 35.087 50.0852 36.5131 53.4837 34.894Z" fill="#8E91FE"/>
<path d="M56.5647 29.9831C57.8796 26.4638 56.0868 22.5621 52.5603 21.2683C49.0338 19.9746 45.109 21.7788 43.794 25.2981C42.4791 28.8174 44.2719 32.7192 47.7984 34.0129C51.3249 35.3066 55.2497 33.5024 56.5647 29.9831Z" fill="#8E91FE"/>
<path d="M55.0816 30.725C57.4266 27.7771 56.9376 23.5045 53.9895 21.1819C51.0413 18.8593 46.7503 19.3663 44.4052 22.3142C42.0602 25.2621 42.5492 29.5347 45.4973 31.8573C48.4455 34.1799 52.7365 33.673 55.0816 30.725Z" fill="#8F91FE"/>
<path d="M53.7019 30.5567C56.5672 28.1019 56.9033 23.807 54.4525 20.9637C52.0018 18.1205 47.6922 17.8055 44.8269 20.2603C41.9615 22.7151 41.6254 27.01 44.0762 29.8532C46.5269 32.6965 50.8365 33.0114 53.7019 30.5567Z" fill="#9091FE"/>
<path d="M54.9513 21.4478C53.372 18.04 49.3112 16.5653 45.8805 18.1558C42.4525 19.7449 40.9534 23.7973 42.5339 27.2079C44.1132 30.6157 48.174 32.0904 51.6047 30.4999C55.0327 28.9108 56.5318 24.8584 54.9513 21.4478Z" fill="#9191FE"/>
<path d="M54.8814 21.8703C54.1266 18.185 50.5131 15.8207 46.8103 16.5897C43.1074 17.3587 40.7175 20.9697 41.4723 24.6551C42.227 28.3405 45.8406 30.7047 49.5434 29.9357C53.2462 29.1667 55.6361 25.5557 54.8814 21.8703Z" fill="#9291FE"/>
<path d="M50.5031 28.3729C53.9215 26.7443 55.3803 22.6695 53.7615 19.2714C52.1426 15.8733 48.0591 14.4389 44.6407 16.0674C41.2223 17.6959 39.7635 21.7708 41.3823 25.1688C43.0012 28.5669 47.0847 30.0014 50.5031 28.3729Z" fill="#9292FE"/>
<path d="M52.877 24.5744C54.7604 21.2921 53.6234 17.1225 50.3374 15.2614C47.0514 13.4003 42.8609 14.5524 40.9775 17.8347C39.0941 21.117 40.2312 25.2866 43.5171 27.1476C46.8031 29.0087 50.9937 27.8566 52.877 24.5744Z" fill="#9392FE"/>
<path d="M53.101 19.9667C52.9819 16.1926 49.8138 13.2434 46.0248 13.3796C42.2359 13.5157 39.2609 16.6857 39.38 20.4598C39.4991 24.2339 42.6672 27.1831 46.4562 27.0469C50.2451 26.9107 53.2201 23.7408 53.101 19.9667Z" fill="#9492FE"/>
<path d="M52.1531 20.9965C53.137 17.3413 50.964 13.5973 47.2995 12.6341C43.6351 11.6708 39.8669 13.853 38.883 17.5082C37.8992 21.1634 40.0722 24.9073 43.7366 25.8706C47.401 26.8339 51.1692 24.6517 52.1531 20.9965Z" fill="#9592FE"/>
<path d="M51.0608 15.5435C49.5416 12.0813 45.487 10.5146 42.0047 12.0443C38.5224 13.5739 36.931 17.6205 38.4503 21.0827C39.9696 24.5449 44.0241 26.1116 47.5064 24.5819C50.9887 23.0523 52.5801 19.0057 51.0608 15.5435Z" fill="#9692FE"/>
<path d="M48.9971 22.0639C51.5896 19.2804 51.4358 14.9406 48.6538 12.3708C45.8718 9.80102 41.5149 9.97428 38.9225 12.7578C36.3301 15.5413 36.4838 19.8811 39.2658 22.4509C42.0479 25.0207 46.4047 24.8475 48.9971 22.0639Z" fill="#9692FE"/>
<path d="M49.3882 13.6335C47.7958 10.1981 43.7023 8.71191 40.2438 10.3156C36.7881 11.9179 35.2773 16.003 36.871 19.4411C38.4634 22.8764 42.5569 24.3626 46.0154 22.759C49.4711 21.1566 50.9819 17.0716 49.3882 13.6335Z" fill="#9792FE"/>
<path d="M47.2659 20.4087C49.8891 17.6446 49.7763 13.2956 47.0139 10.6951C44.2515 8.09453 39.8856 8.22711 37.2624 10.9912C34.6392 13.7553 34.7521 18.1043 37.5145 20.7048C40.2769 23.3054 44.6427 23.1728 47.2659 20.4087Z" fill="#9892FE"/>
<path d="M47.7991 17.373C49.1903 13.8282 47.4388 9.84425 43.887 8.47471C40.3352 7.10517 36.3281 8.86862 34.9369 12.4135C33.5457 15.9584 35.2973 19.9423 38.8491 21.3118C42.4009 22.6813 46.408 20.9179 47.7991 17.373Z" fill="#9992FE"/>
<path d="M43.8001 20.1285C47.1364 18.2639 48.3362 14.0648 46.48 10.7496C44.6237 7.43442 40.4143 6.25856 37.078 8.12323C33.7417 9.9879 32.5419 14.187 34.3982 17.5022C36.2544 20.8173 40.4638 21.9932 43.8001 20.1285Z" fill="#9A92FE"/>
<path d="M46.183 15.0755C47.1282 11.3825 44.8928 7.63925 41.1902 6.71479C37.4876 5.79034 33.7199 8.03471 32.7747 11.7277C31.8296 15.4208 34.065 19.164 37.7676 20.0884C41.4702 21.0129 45.2379 18.7685 46.183 15.0755Z" fill="#9A92FE"/>
<path d="M45.0136 15.0083C46.3009 11.4126 44.4233 7.47152 40.82 6.2057C37.2166 4.93988 33.252 6.82865 31.9647 10.4244C30.6774 14.0201 32.5549 17.9612 36.1582 19.227C39.7616 20.4928 43.7263 18.6041 45.0136 15.0083Z" fill="#9B93FE"/>
<path d="M44.0395 14.2554C45.2686 10.6362 43.3245 6.7232 39.6973 5.51547C36.0701 4.30774 32.1333 6.26265 30.9042 9.88187C29.6751 13.5011 31.6191 17.4141 35.2463 18.6218C38.8735 19.8296 42.8104 17.8747 44.0395 14.2554Z" fill="#9C93FE"/>
<path d="M42.7083 8.50927C41.0864 5.05666 36.9561 3.58058 33.4829 5.21234C30.0098 6.8441 28.509 10.9658 30.1308 14.4184C31.7526 17.871 35.8829 19.3471 39.3561 17.7154C42.8293 16.0836 44.3301 11.9619 42.7083 8.50927Z" fill="#9D93FE"/>
<path d="M41.7397 8.13575C40.2221 4.63054 36.1338 3.02786 32.6083 4.55606C29.0828 6.08427 27.4551 10.1647 28.9728 13.6699C30.4904 17.1751 34.5787 18.7778 38.1042 17.2495C41.6296 15.7213 43.2573 11.641 41.7397 8.13575Z" fill="#9E93FE"/>
<path d="M39.2583 15.1902C41.9298 12.4275 41.8575 8.04078 39.0968 5.39209C36.3361 2.74339 31.9325 2.83576 29.261 5.59839C26.5895 8.36103 26.6618 12.7478 29.4225 15.3965C32.1832 18.0452 36.5868 17.9528 39.2583 15.1902Z" fill="#9E93FE"/>
<path d="M39.9437 11.4093C40.7838 7.66739 38.423 3.9696 34.6709 3.15005C30.9187 2.3305 27.196 4.69955 26.356 8.44146C25.5159 12.1834 27.8767 15.8812 31.6288 16.7007C35.381 17.5203 39.1037 15.1512 39.9437 11.4093Z" fill="#9F93FE"/>
<path d="M38.5495 11.9078C39.8972 8.30857 38.066 4.31595 34.4594 2.99001C30.8529 1.66406 26.8367 3.5069 25.489 7.10611C24.1413 10.7053 25.9725 14.6979 29.5791 16.0239C33.1856 17.3498 37.2018 15.507 38.5495 11.9078Z" fill="#A093FE"/>
<path d="M36.0226 13.7967C38.621 10.9498 38.4206 6.55402 35.5749 3.97854C32.7292 1.40306 28.3159 1.62314 25.7175 4.47011C23.1191 7.31708 23.3196 11.7128 26.1653 14.2883C29.0109 16.8638 33.4242 16.6437 36.0226 13.7967Z" fill="#A193FE"/>
<path d="M36.316 11.0184C37.5601 7.37564 35.6093 3.43149 31.9585 2.20885C28.3078 0.986212 24.3397 2.94808 23.0956 6.5908C21.8514 10.2335 23.8023 14.1777 27.453 15.4003C31.1037 16.6229 35.0718 14.6611 36.316 11.0184Z" fill="#A293FF"/>
<path d="M35.1344 6.21418C33.8712 2.58598 29.8901 0.678568 26.2423 1.95386C22.5946 3.22915 20.6615 7.20421 21.9247 10.8324C23.1879 14.4606 27.169 16.368 30.8168 15.0927C34.4645 13.8175 36.3976 9.84239 35.1344 6.21418Z" fill="#A293FF"/>
<path d="M34.0174 6.14637C32.846 2.48204 28.9102 0.471316 25.2266 1.65531C21.543 2.83929 19.5064 6.76964 20.6778 10.434C21.8492 14.0983 25.785 16.109 29.4686 14.925C33.1522 13.7411 35.1888 9.81071 34.0174 6.14637Z" fill="#A394FF"/>
<path d="M32.5123 5.15073C30.8923 1.65749 26.7307 0.14964 23.2195 1.7784C19.7055 3.40849 18.1727 7.56155 19.7914 11.052C21.41 14.5425 25.573 16.0531 29.0841 14.4244C32.5981 12.7943 34.1309 8.64122 32.5123 5.15073Z" fill="#A494FF"/>
<path d="M29.5338 13.2233C32.4628 10.6865 32.784 6.27415 30.2512 3.3679C27.7185 0.461658 23.2909 0.162107 20.3619 2.69884C17.433 5.23557 17.1118 9.64797 19.6445 12.5542C22.1773 15.4605 26.6048 15.76 29.5338 13.2233Z" fill="#A594FF"/>
<path d="M28.0634 13.3582C31.1204 10.9681 31.6651 6.57066 29.2801 3.53623C26.8952 0.501805 22.4836 -0.0205162 19.4267 2.36959C16.3697 4.7597 15.825 9.15715 18.21 12.1916C20.5949 15.226 25.0065 15.7483 28.0634 13.3582Z" fill="#A694FF"/>
<path d="M29.5246 7.04933C29.1162 3.20666 25.6568 0.435811 21.7977 0.86047C17.9386 1.28513 15.1413 4.74448 15.5496 8.58715C15.958 12.4298 19.4175 15.2007 23.2765 14.776C27.1356 14.3514 29.933 10.892 29.5246 7.04933Z" fill="#A694FF"/>
<path d="M28.2091 9.19219C28.9914 5.39847 26.5414 1.70552 22.737 0.94376C18.9326 0.181999 15.2143 2.63989 14.4321 6.4336C13.6498 10.2273 16.0997 13.9203 19.9041 14.682C23.7086 15.4438 27.4268 12.9859 28.2091 9.19219Z" fill="#A794FF"/>
<path d="M27.0542 9.0216C27.7162 5.20061 25.146 1.58286 21.3136 0.941131C17.4813 0.299402 13.838 2.8767 13.176 6.69769C12.5141 10.5187 15.0843 14.1364 18.9166 14.7782C22.749 15.4199 26.3923 12.8426 27.0542 9.0216Z" fill="#A894FF"/>
<path d="M25.9101 8.68858C26.3385 4.83232 23.5495 1.37467 19.6807 0.965703C15.8119 0.556736 12.3282 3.35132 11.8998 7.20757C11.4713 11.0638 14.2603 14.5215 18.1292 14.9304C21.998 15.3394 25.4817 12.5448 25.9101 8.68858Z" fill="#A994FF"/>
<path d="M24.597 9.5387C25.4196 5.74118 22.9994 2.01262 19.1913 1.21071C15.3833 0.408804 11.6294 2.83722 10.8068 6.63474C9.98422 10.4322 12.4044 14.1608 16.2125 14.9627C20.0205 15.7646 23.7744 13.3362 24.597 9.5387Z" fill="#AA94FF"/>
<path d="M22.8801 11.2671C24.5581 7.75286 23.0651 3.562 19.5454 1.90654C16.0257 0.25109 11.8121 1.75793 10.134 5.27217C8.45601 8.7864 9.94901 12.9773 13.4687 14.6327C16.9885 16.2882 21.2021 14.7813 22.8801 11.2671Z" fill="#AA94FF"/>
<path d="M19.2352 14.3473C22.4853 12.1769 23.3662 7.80075 21.2027 4.57286C19.0392 1.34498 14.6506 0.487702 11.4005 2.65808C8.15036 4.82845 7.2695 9.20461 9.43301 12.4325C11.5965 15.6604 15.9851 16.5177 19.2352 14.3473Z" fill="#AB94FF"/>
<path d="M19.4294 13.4365C22.0238 10.5133 21.758 6.05922 18.8358 3.48806C15.9136 0.916899 11.4414 1.2023 8.84702 4.12551C6.2526 7.04872 6.51835 11.5028 9.44059 14.074C12.3628 16.6451 16.8349 16.3597 19.4294 13.4365Z" fill="#AC95FF"/>
<path d="M16.9554 14.9186C20.1898 12.7129 21.0292 8.32101 18.8302 5.10892C16.6312 1.89684 12.2266 1.08096 8.99216 3.2866C5.75775 5.49225 4.91837 9.88418 7.11736 13.0963C9.31634 16.3083 13.721 17.1242 16.9554 14.9186Z" fill="#AD95FF"/>
<path d="M18.8894 10.0335C19.2164 6.14411 16.3178 2.7417 12.4153 2.43398C8.51274 2.12626 5.08404 5.02975 4.75707 8.91911C4.4301 12.8085 7.32867 16.2109 11.2312 16.5186C15.1338 16.8263 18.5625 13.9228 18.8894 10.0335Z" fill="#AE95FF"/>
<path d="M17.729 10.7363C18.2141 6.85922 15.4543 3.33902 11.5648 2.87371C7.67536 2.40839 4.12908 5.17416 3.64398 9.05123C3.15888 12.9283 5.91866 16.4485 9.80813 16.9138C13.6976 17.3791 17.2439 14.6134 17.729 10.7363Z" fill="#AE95FF"/>
<path d="M15.1543 14.7077C17.5787 11.6239 17.0438 7.17765 13.9595 4.77665C10.8753 2.37566 6.40975 2.92918 3.98539 6.01297C1.56104 9.09677 2.09595 13.5431 5.18016 15.9441C8.26437 18.3451 12.7299 17.7915 15.1543 14.7077Z" fill="#AF95FF"/>
<path d="M15.0652 13.5023C16.5392 9.86814 14.7824 5.74531 11.1414 4.29369C7.50034 2.84207 3.3538 4.61135 1.87982 8.24549C0.405835 11.8796 2.16258 16.0025 5.80362 17.4541C9.44466 18.9057 13.5912 17.1364 15.0652 13.5023Z" fill="#B095FF"/>
<path d="M15.0662 13.5028C16.5401 9.86863 14.7834 5.7458 11.1424 4.29418C7.50132 2.84256 3.35477 4.61184 1.88079 8.24598C0.406812 11.8801 2.16356 16.0029 5.8046 17.4546C9.44564 18.9062 13.5922 17.1369 15.0662 13.5028Z" fill="white"/>
</g>
</g>
<defs>
<clipPath id="clip0_12563_74418">
<rect width="95" height="60" fill="white"/>
</clipPath>
<clipPath id="clip1_12563_74418">
<rect width="78" height="66" fill="white" transform="translate(-1 7.54688) rotate(-25.4732)"/>
</clipPath>
</defs>
</svg>
