<svg width="71" height="58" viewBox="0 0 71 58" fill="none" xmlns="http://www.w3.org/2000/svg">
<g clip-path="url(#clip0_12563_74574)">
<path d="M11.8227 26.8212C7.55197 25.8292 3.25722 28.5622 2.23009 32.9256C1.20296 37.289 3.83242 41.6305 8.10313 42.6225C12.3738 43.6145 16.6686 40.8815 17.6957 36.518C18.7228 32.1546 16.0934 27.8132 11.8227 26.8212Z" fill="#AE95FF"/>
<path d="M5.95044 27.6328C2.3373 30.2231 1.43317 35.2809 3.93102 38.9297C6.42886 42.5785 11.3828 43.4366 14.9959 40.8462C18.6091 38.2559 19.5132 33.1981 17.0153 29.5493C14.5175 25.9005 9.56358 25.0425 5.95044 27.6328Z" fill="url(#paint0_linear_12563_74574)"/>
<path d="M7.85602 26.3431C3.81742 28.154 1.94379 32.9392 3.67114 37.0312C5.39849 41.1232 10.0727 42.9723 14.1113 41.1615C18.1499 39.3506 20.0235 34.5654 18.2962 30.4734C16.5688 26.3814 11.8946 24.5323 7.85602 26.3431Z" fill="url(#paint1_linear_12563_74574)"/>
<path d="M5.76135 38.9724C8.80734 42.157 13.8392 42.1944 17.0035 39.0514C20.1678 35.9084 20.2673 30.7814 17.2213 27.5968C14.1753 24.4122 9.1434 24.3748 5.97913 27.5178C2.81486 30.6608 2.71537 35.7878 5.76135 38.9724Z" fill="url(#paint2_linear_12563_74574)"/>
<path d="M4.66362 29.7843C2.96549 33.9324 4.87283 38.6557 8.9238 40.334C12.9748 42.0123 17.6353 40.0102 19.3335 35.8621C21.0316 31.714 19.1242 26.9908 15.0733 25.3124C11.0223 23.6341 6.36175 25.6362 4.66362 29.7843Z" fill="url(#paint3_linear_12563_74574)"/>
<path d="M7.42036 26.2175C4.04652 29.1255 3.59159 34.24 6.40427 37.641C9.21694 41.042 14.2321 41.4417 17.606 38.5337C20.9798 35.6257 21.4347 30.5112 18.622 27.1102C15.8094 23.7092 10.7942 23.3095 7.42036 26.2175Z" fill="url(#paint4_linear_12563_74574)"/>
<path d="M6.04614 28.142C3.93925 32.0948 5.35573 36.9994 9.20995 39.0966C13.0642 41.1938 17.8966 39.6895 20.0035 35.7366C22.1104 31.7838 20.6939 26.8792 16.8397 24.782C12.9855 22.6848 8.15304 24.1891 6.04614 28.142Z" fill="url(#paint5_linear_12563_74574)"/>
<path d="M14.5796 23.46C10.2257 22.9233 6.2251 26.0895 5.64393 30.532C5.06276 34.9744 8.12114 39.0108 12.475 39.5475C16.8289 40.0842 20.8295 36.918 21.4107 32.4755C21.9919 28.033 18.9335 23.9967 14.5796 23.46Z" fill="url(#paint6_linear_12563_74574)"/>
<path d="M8.30628 36.7708C11.3523 39.9553 16.3842 39.9927 19.5484 36.8498C22.7127 33.7068 22.8122 28.5798 19.7662 25.3952C16.7202 22.2106 11.6883 22.1732 8.52405 25.3162C5.35978 28.4592 5.26029 33.5862 8.30628 36.7708Z" fill="url(#paint7_linear_12563_74574)"/>
<path d="M7.77508 26.5136C5.47262 30.3533 6.63853 35.3288 10.3792 37.6267C14.1199 39.9245 19.0188 38.6746 21.3213 34.835C23.6237 30.9953 22.4578 26.0198 18.7171 23.7219C14.9765 21.424 10.0775 22.6739 7.77508 26.5136Z" fill="url(#paint8_linear_12563_74574)"/>
<path d="M10.7629 23.5018C7.06395 25.9619 5.98577 30.9863 8.3547 34.7242C10.7236 38.462 15.6426 39.4978 19.3415 37.0377C23.0405 34.5776 24.1187 29.5531 21.7497 25.8153C19.3808 22.0775 14.4618 21.0417 10.7629 23.5018Z" fill="url(#paint9_linear_12563_74574)"/>
<path d="M11.637 22.8817C7.8154 25.1361 6.47279 30.0971 8.63822 33.9625C10.8036 37.8279 15.6571 39.1339 19.4788 36.8795C23.3004 34.6251 24.643 29.6641 22.4776 25.7987C20.3121 21.9333 15.4587 20.6273 11.637 22.8817Z" fill="url(#paint10_linear_12563_74574)"/>
<path d="M8.75215 26.392C7.02084 30.5262 8.88989 35.2657 12.9268 36.978C16.9637 38.6903 21.6397 36.727 23.3711 32.5928C25.1024 28.4586 23.2333 23.7191 19.1964 22.0068C15.1595 20.2945 10.4835 22.2578 8.75215 26.392Z" fill="url(#paint11_linear_12563_74574)"/>
<path d="M9.39673 25.6937C7.49375 29.7506 9.16037 34.57 13.1192 36.4582C17.0781 38.3464 21.8301 36.5883 23.7331 32.5314C25.636 28.4745 23.9694 23.6551 20.0105 21.767C16.0517 19.8788 11.2997 21.6369 9.39673 25.6937Z" fill="url(#paint12_linear_12563_74574)"/>
<path d="M9.85132 25.4425C8.00937 29.5279 9.74877 34.3198 13.7364 36.1454C17.724 37.9711 22.4498 36.1392 24.2918 32.0538C26.1338 27.9684 24.3943 23.1765 20.4067 21.3509C16.4191 19.5252 11.6933 21.3571 9.85132 25.4425Z" fill="url(#paint13_linear_12563_74574)"/>
<path d="M17.6951 20.2847C13.3032 20.2715 9.68789 23.8883 9.62019 28.3631C9.5525 32.8378 13.058 36.476 17.45 36.4891C21.8419 36.5023 25.4572 32.8854 25.5249 28.4107C25.5926 23.936 22.0871 20.2978 17.6951 20.2847Z" fill="url(#paint14_linear_12563_74574)"/>
<path d="M13.7691 21.292C10.0772 23.7632 9.01367 28.7907 11.3936 32.5212C13.7735 36.2517 18.6956 37.2726 22.3875 34.8014C26.0794 32.3302 27.143 27.3027 24.7631 23.5722C22.3832 19.8417 17.461 18.8208 13.7691 21.292Z" fill="url(#paint15_linear_12563_74574)"/>
<path d="M12.8483 33.3948C15.8943 36.5794 20.9262 36.6168 24.0904 33.4738C27.2547 30.3308 27.3542 25.2038 24.3082 22.0192C21.2622 18.8346 16.2303 18.7972 13.066 21.9402C9.90177 25.0832 9.80228 30.2102 12.8483 33.3948Z" fill="url(#paint16_linear_12563_74574)"/>
<path d="M12.4054 23.0509C10.0142 26.8345 11.0627 31.8385 14.7472 34.2275C18.4318 36.6165 23.3572 35.4859 25.7484 31.7022C28.1396 27.9186 27.0912 22.9146 23.4066 20.5256C19.7221 18.1366 14.7967 19.2672 12.4054 23.0509Z" fill="url(#paint17_linear_12563_74574)"/>
<path d="M12.2264 24.0577C10.5516 28.2154 12.4858 32.9271 16.5465 34.5815C20.6071 36.2359 25.2566 34.2066 26.9314 30.0489C28.6062 25.8912 26.672 21.1796 22.6114 19.5252C18.5507 17.8708 13.9012 19.9001 12.2264 24.0577Z" fill="url(#paint18_linear_12563_74574)"/>
<path d="M12.7254 23.7428C11.0507 27.9005 12.9848 32.6121 17.0455 34.2666C21.1062 35.921 25.7557 33.8917 27.4304 29.734C29.1052 25.5763 27.1711 20.8646 23.1104 19.2102C19.0497 17.5558 14.4002 19.5851 12.7254 23.7428Z" fill="url(#paint19_linear_12563_74574)"/>
<path d="M22.0037 18.4478C17.683 17.697 13.5392 20.6645 12.7483 25.0759C11.9574 29.4872 14.8189 33.6719 19.1396 34.4226C23.4603 35.1734 27.604 32.2059 28.3949 27.7946C29.1858 23.3832 26.3244 19.1985 22.0037 18.4478Z" fill="url(#paint20_linear_12563_74574)"/>
<path d="M13.7661 23.0195C12.0242 27.1492 13.881 31.8938 17.9134 33.6169C21.9457 35.34 26.6267 33.3891 28.3685 29.2594C30.1104 25.1298 28.2536 20.3851 24.2212 18.662C20.1889 16.9389 15.508 18.8898 13.7661 23.0195Z" fill="url(#paint21_linear_12563_74574)"/>
<path d="M15.8336 31.5369C18.8796 34.7215 23.9115 34.7589 27.0758 31.6159C30.24 28.4729 30.3395 23.3459 27.2935 20.1613C24.2476 16.9767 19.2157 16.9393 16.0514 20.0823C12.8871 23.2253 12.7876 28.3523 15.8336 31.5369Z" fill="url(#paint22_linear_12563_74574)"/>
<path d="M16.3258 31.2556C19.3718 34.4402 24.4037 34.4776 27.568 31.3346C30.7322 28.1916 30.8317 23.0646 27.7857 19.88C24.7397 16.6955 19.7078 16.658 16.5436 19.801C13.3793 22.944 13.2798 28.071 16.3258 31.2556Z" fill="url(#paint23_linear_12563_74574)"/>
<path d="M23.6021 17.2524C19.2482 16.7158 15.2475 19.882 14.6664 24.3245C14.0852 28.7669 17.1436 32.8033 21.4975 33.34C25.8513 33.8767 29.852 30.7104 30.4332 26.268C31.0143 21.8255 27.9559 17.7891 23.6021 17.2524Z" fill="url(#paint24_linear_12563_74574)"/>
<path d="M25.4093 17.2663C21.2158 15.988 16.7566 18.4281 15.4495 22.7164C14.1423 27.0047 16.4821 31.5173 20.6756 32.7956C24.8691 34.0739 29.3282 31.6338 30.6354 27.3455C31.9426 23.0572 29.6028 18.5446 25.4093 17.2663Z" fill="url(#paint25_linear_12563_74574)"/>
<path d="M19.011 18.1714C15.3978 20.7617 14.4937 25.8195 16.9916 29.4683C19.4894 33.1171 24.4433 33.9751 28.0565 31.3848C31.6696 28.7945 32.5737 23.7367 30.0759 20.0879C27.5781 16.4391 22.6241 15.581 19.011 18.1714Z" fill="url(#paint26_linear_12563_74574)"/>
<path d="M24.1414 16.4214C19.7495 16.4082 16.1342 20.025 16.0665 24.4998C15.9988 28.9745 19.5043 32.6127 23.8963 32.6258C28.2882 32.639 31.9035 29.0222 31.9712 24.5474C32.0389 20.0727 28.5334 16.4345 24.1414 16.4214Z" fill="url(#paint27_linear_12563_74574)"/>
<path d="M17.1965 21.183C15.4652 25.3172 17.3342 30.0567 21.3711 31.769C25.408 33.4813 30.0841 31.518 31.8154 27.3838C33.5467 23.2496 31.6776 18.5101 27.6407 16.7978C23.6038 15.0855 18.9278 17.0488 17.1965 21.183Z" fill="url(#paint28_linear_12563_74574)"/>
<path d="M20.7023 17.2831C17.0034 19.7432 15.9252 24.7676 18.2941 28.5054C20.6631 32.2432 25.5821 33.279 29.281 30.8189C32.9799 28.3588 34.0581 23.3344 31.6892 19.5966C29.3203 15.8587 24.4013 14.823 20.7023 17.2831Z" fill="url(#paint29_linear_12563_74574)"/>
<path d="M19.7467 29.512C22.7927 32.6965 27.8246 32.734 30.9889 29.591C34.1531 26.448 34.2526 21.321 31.2066 18.1364C28.1606 14.9518 23.1287 14.9144 19.9645 18.0574C16.8002 21.2004 16.7007 26.3274 19.7467 29.512Z" fill="url(#paint30_linear_12563_74574)"/>
<path d="M27.0112 15.5606C22.6574 15.0239 18.6567 18.1901 18.0756 22.6326C17.4944 27.075 20.5528 31.1114 24.9067 31.6481C29.2605 32.1848 33.2612 29.0185 33.8423 24.5761C34.4235 20.1336 31.3651 16.0972 27.0112 15.5606Z" fill="url(#paint31_linear_12563_74574)"/>
<path d="M28.3022 15.4901C24.0315 14.4981 19.7367 17.2312 18.7096 21.5946C17.6825 25.958 20.3119 30.2994 24.5826 31.2914C28.8533 32.2835 33.1481 29.5504 34.1752 25.187C35.2023 20.8236 32.5729 16.4821 28.3022 15.4901Z" fill="url(#paint32_linear_12563_74574)"/>
<path d="M28.447 15.2191C24.1361 14.4153 19.9582 17.3322 19.1153 21.7341C18.2725 26.1361 21.0838 30.3562 25.3947 31.16C29.7056 31.9639 33.8835 29.047 34.7263 24.645C35.5692 20.243 32.7579 16.0229 28.447 15.2191Z" fill="url(#paint33_linear_12563_74574)"/>
<path d="M21.6666 28.677C24.7126 31.8616 29.7445 31.899 32.9088 28.756C36.073 25.613 36.1725 20.486 33.1266 17.3014C30.0806 14.1168 25.0487 14.0794 21.8844 17.2224C18.7201 20.3654 18.6206 25.4924 21.6666 28.677Z" fill="url(#paint34_linear_12563_74574)"/>
<path d="M28.852 14.7478C24.4928 14.2538 20.5217 17.4587 19.9823 21.9061C19.443 26.3535 22.5396 30.3593 26.8989 30.8533C31.2581 31.3473 35.2292 28.1425 35.7686 23.6951C36.3079 19.2477 33.2113 15.2418 28.852 14.7478Z" fill="url(#paint35_linear_12563_74574)"/>
<path d="M28.4705 14.5137C24.0785 14.5005 20.4633 18.1173 20.3956 22.5921C20.3279 27.0668 23.8334 30.705 28.2254 30.7181C32.6173 30.7313 36.2326 27.1145 36.3003 22.6397C36.368 18.165 32.8625 14.5268 28.4705 14.5137Z" fill="url(#paint36_linear_12563_74574)"/>
<path d="M23.0924 28.1267C26.1384 31.3113 31.1703 31.3487 34.3346 28.2057C37.4988 25.0627 37.5983 19.9357 34.5523 16.7511C31.5063 13.5665 26.4744 13.5291 23.3102 16.6721C20.1459 19.8151 20.0464 24.9421 23.0924 28.1267Z" fill="url(#paint37_linear_12563_74574)"/>
<path d="M21.9226 19.3083C20.2684 23.4743 22.2261 28.1756 26.2952 29.8089C30.3643 31.4423 35.0039 29.3892 36.6581 25.2232C38.3123 21.0572 36.3547 16.3558 32.2856 14.7225C28.2165 13.0891 23.5768 15.1423 21.9226 19.3083Z" fill="url(#paint38_linear_12563_74574)"/>
<path d="M25.1416 15.5706C21.5659 18.2148 20.7353 23.2848 23.2865 26.8947C25.8377 30.5047 30.8045 31.2876 34.3801 28.6434C37.9558 25.9992 38.7864 20.9293 36.2352 17.3193C33.684 13.7093 28.7172 12.9264 25.1416 15.5706Z" fill="url(#paint39_linear_12563_74574)"/>
<path d="M24.4987 27.6394C27.5446 30.824 32.5765 30.8614 35.7408 27.7184C38.9051 24.5754 39.0046 19.4484 35.9586 16.2638C32.9126 13.0792 27.8807 13.0418 24.7164 16.1848C21.5522 19.3278 21.4527 24.4548 24.4987 27.6394Z" fill="url(#paint40_linear_12563_74574)"/>
<path d="M32.5571 13.8969C28.2863 12.9048 23.9916 15.6379 22.9645 20.0013C21.9373 24.3647 24.5668 28.7062 28.8375 29.6982C33.1082 30.6902 37.403 27.9571 38.4301 23.5937C39.4572 19.2303 36.8278 14.8889 32.5571 13.8969Z" fill="url(#paint41_linear_12563_74574)"/>
<path d="M29.0321 13.8735C24.7993 15.1227 22.3193 19.6188 23.4929 23.9156C24.6666 28.2124 29.0493 30.6829 33.2821 29.4337C37.5149 28.1844 39.9949 23.6884 38.8213 19.3915C37.6477 15.0947 33.2649 12.6242 29.0321 13.8735Z" fill="url(#paint42_linear_12563_74574)"/>
<path d="M24.8406 17.3658C22.5427 21.2083 23.7146 26.1822 27.4581 28.4754C31.2015 30.7686 36.099 29.5126 38.3969 25.6701C40.6948 21.8276 39.5229 16.8537 35.7794 14.5605C32.0359 12.2673 27.1384 13.5233 24.8406 17.3658Z" fill="url(#paint43_linear_12563_74574)"/>
<path d="M27.5549 14.7768C23.9418 17.3672 23.0377 22.425 25.5355 26.0738C28.0333 29.7225 32.9873 30.5806 36.6004 27.9903C40.2136 25.3999 41.1177 20.3421 38.6198 16.6933C36.122 13.0446 31.1681 12.1865 27.5549 14.7768Z" fill="url(#paint44_linear_12563_74574)"/>
<path d="M25.5569 17.4647C23.45 21.4176 24.8665 26.3221 28.7207 28.4193C32.5749 30.5166 37.4073 29.0123 39.5142 25.0594C41.6211 21.1065 40.2046 16.202 36.3504 14.1048C32.4962 12.0075 27.6638 13.5118 25.5569 17.4647Z" fill="url(#paint45_linear_12563_74574)"/>
<path d="M26.2087 16.9849C23.9108 20.8274 25.0827 25.8014 28.8262 28.0945C32.5697 30.3877 37.4672 29.1317 39.7651 25.2892C42.063 21.4467 40.8911 16.4728 37.1476 14.1796C33.4041 11.8864 28.5066 13.1424 26.2087 16.9849Z" fill="url(#paint46_linear_12563_74574)"/>
<path d="M26.0635 18.0956C24.4242 22.2676 26.3989 26.9613 30.474 28.5794C34.5492 30.1975 39.1816 28.1271 40.8209 23.9551C42.4602 19.7832 40.4855 15.0894 36.4104 13.4713C32.3352 11.8533 27.7028 13.9236 26.0635 18.0956Z" fill="url(#paint47_linear_12563_74574)"/>
<path d="M33.2244 12.8538C28.8474 13.2852 25.5982 17.2455 25.9671 21.6994C26.3359 26.1533 30.1832 29.4143 34.5601 28.9829C38.9371 28.5516 42.1863 24.5913 41.8175 20.1374C41.4486 15.6834 37.6014 12.4225 33.2244 12.8538Z" fill="url(#paint48_linear_12563_74574)"/>
<path d="M36.0294 12.8749C31.7368 11.9806 27.5019 14.81 26.5704 19.1945C25.639 23.579 28.3637 27.8583 32.6563 28.7526C36.9489 29.6469 41.1838 26.8175 42.1153 22.433C43.0468 18.0485 40.322 13.7692 36.0294 12.8749Z" fill="url(#paint49_linear_12563_74574)"/>
<path d="M36.4872 12.7838C32.1963 11.8818 27.9566 14.7037 27.0176 19.0866C26.0787 23.4695 28.796 27.7537 33.087 28.6557C37.3779 29.5576 41.6176 26.7358 42.5566 22.3528C43.4955 17.9699 40.7782 13.6857 36.4872 12.7838Z" fill="url(#paint50_linear_12563_74574)"/>
<path d="M29.5016 26.3162C32.5476 29.5007 37.5795 29.5382 40.7437 26.3952C43.908 23.2522 44.0075 18.1252 40.9615 14.9406C37.9155 11.756 32.8836 11.7186 29.7194 14.8616C26.5551 18.0046 26.4556 23.1316 29.5016 26.3162Z" fill="url(#paint51_linear_12563_74574)"/>
<path d="M33.5428 12.7641C29.31 14.0134 26.8301 18.5094 28.0037 22.8062C29.1773 27.103 33.5601 29.5736 37.7929 28.3243C42.0257 27.075 44.5056 22.579 43.332 18.2822C42.1584 13.9853 37.7756 11.5148 33.5428 12.7641Z" fill="url(#paint52_linear_12563_74574)"/>
<path d="M28.801 17.3627C27.0697 21.4969 28.9387 26.2364 32.9756 27.9487C37.0125 29.661 41.6886 27.6977 43.4199 23.5635C45.1512 19.4293 43.2821 14.6898 39.2452 12.9775C35.2083 11.2652 30.5323 13.2285 28.801 17.3627Z" fill="url(#paint53_linear_12563_74574)"/>
<path d="M38.3575 12.4741C34.0804 11.5095 29.8022 14.2698 28.802 18.6393C27.8017 23.0089 30.4581 27.3331 34.7352 28.2977C39.0122 29.2622 43.2904 26.502 44.2906 22.1324C45.2909 17.7628 42.6345 13.4387 38.3575 12.4741Z" fill="url(#paint54_linear_12563_74574)"/>
<path d="M34.8553 12.5365C30.6225 13.7858 28.1426 18.2818 29.3162 22.5787C30.4898 26.8755 34.8726 29.346 39.1054 28.0967C43.3382 26.8475 45.8181 22.3514 44.6445 18.0546C43.4709 13.7578 39.0881 11.2873 34.8553 12.5365Z" fill="url(#paint55_linear_12563_74574)"/>
<path d="M37.6871 12.1518C33.2972 12.0543 29.6164 15.602 29.466 20.0757C29.3155 24.5493 32.7523 28.255 37.1422 28.3525C41.5321 28.45 45.2128 24.9024 45.3633 20.4287C45.5137 15.955 42.077 12.2493 37.6871 12.1518Z" fill="url(#paint56_linear_12563_74574)"/>
<path d="M38.8208 12.1399C34.4619 11.6428 30.4886 14.8449 29.9462 19.2919C29.4038 23.739 32.4977 27.747 36.8566 28.2442C41.2155 28.7413 45.1887 25.5392 45.7311 21.0922C46.2735 16.6451 43.1796 12.6371 38.8208 12.1399Z" fill="url(#paint57_linear_12563_74574)"/>
<path d="M40.631 12.3742C36.4375 11.0959 31.9783 13.536 30.6711 17.8243C29.364 22.1126 31.7038 26.6252 35.8973 27.9035C40.0907 29.1818 44.5499 26.7417 45.8571 22.4534C47.1643 18.1651 44.8244 13.6525 40.631 12.3742Z" fill="url(#paint58_linear_12563_74574)"/>
<path d="M40.2146 12.117C35.9037 11.3132 31.7258 14.2301 30.8829 18.6321C30.04 23.034 32.8514 27.2542 37.1623 28.058C41.4731 28.8618 45.6511 25.9449 46.4939 21.543C47.3368 17.141 44.5254 12.9209 40.2146 12.117Z" fill="url(#paint59_linear_12563_74574)"/>
<path d="M31.7537 17.048C30.079 21.2057 32.0131 25.9173 36.0738 27.5717C40.1345 29.2261 44.784 27.1968 46.4588 23.0391C48.1335 18.8815 46.1994 14.1698 42.1387 12.5154C38.078 10.861 33.4285 12.8903 31.7537 17.048Z" fill="url(#paint60_linear_12563_74574)"/>
<path d="M39.466 11.8954C35.0736 11.9869 31.5413 15.6878 31.5764 20.1617C31.6114 24.6355 35.2005 28.1881 39.5928 28.0966C43.9852 28.0051 47.5175 24.3042 47.4825 19.8303C47.4474 15.3565 43.8583 11.8039 39.466 11.8954Z" fill="url(#paint61_linear_12563_74574)"/>
<path d="M35.455 13.3355C31.8284 15.906 30.8975 20.9591 33.3757 24.6219C35.854 28.2846 40.803 29.17 44.4296 26.5995C48.0562 24.0289 48.9871 18.9758 46.5088 15.3131C44.0306 11.6503 39.0816 10.7649 35.455 13.3355Z" fill="url(#paint62_linear_12563_74574)"/>
<path d="M34.9008 14.1048C31.7034 17.2133 31.5529 22.3426 34.5646 25.5614C37.5763 28.7802 42.6098 28.8695 45.8072 25.761C49.0047 22.6525 49.1552 17.5232 46.1435 14.3044C43.1318 11.0857 38.0982 10.9963 34.9008 14.1048Z" fill="url(#paint63_linear_12563_74574)"/>
<path d="M33.4325 16.8607C31.7287 21.0064 33.6295 25.7324 37.6781 27.4166C41.7267 29.1007 46.3899 27.1052 48.0937 22.9594C49.7975 18.8137 47.8967 14.0876 43.8481 12.4035C39.7995 10.7194 35.1363 12.7149 33.4325 16.8607Z" fill="url(#paint64_linear_12563_74574)"/>
<path d="M35.4362 25.5715C38.4821 28.7561 43.514 28.7935 46.6783 25.6505C49.8426 22.5075 49.9421 17.3805 46.8961 14.196C43.8501 11.0114 38.8182 10.974 35.6539 14.117C32.4897 17.26 32.3902 22.387 35.4362 25.5715Z" fill="url(#paint65_linear_12563_74574)"/>
<path d="M34.8309 15.6472C32.4991 19.4687 33.6265 24.4539 37.349 26.7818C41.0715 29.1098 45.9794 27.899 48.3112 24.0775C50.6429 20.2559 49.5155 15.2708 45.7931 12.9428C42.0706 10.6149 37.1626 11.8257 34.8309 15.6472Z" fill="url(#paint66_linear_12563_74574)"/>
<path d="M41.3025 11.7855C36.9256 12.2168 33.6763 16.1771 34.0452 20.631C34.414 25.0849 38.2613 28.3459 42.6383 27.9146C47.0152 27.4832 50.2645 23.5229 49.8956 19.069C49.5268 14.6151 45.6795 11.3541 41.3025 11.7855Z" fill="url(#paint67_linear_12563_74574)"/>
<path d="M34.9589 16.9793C33.361 21.1674 35.3824 25.84 39.4739 27.4157C43.5655 28.9915 48.1777 26.8737 49.7756 22.6856C51.3736 18.4974 49.3521 13.8249 45.2606 12.2491C41.1691 10.6734 36.5568 12.7911 34.9589 16.9793Z" fill="url(#paint68_linear_12563_74574)"/>
<path d="M38.4537 13.0796C34.7618 15.5508 33.6982 20.5783 36.0781 24.3088C38.458 28.0393 43.3802 29.0602 47.0721 26.589C50.764 24.1178 51.8275 19.0903 49.4477 15.3598C47.0678 11.6293 42.1456 10.6084 38.4537 13.0796Z" fill="url(#paint69_linear_12563_74574)"/>
<path d="M41.6152 11.8999C37.3055 12.8189 34.4995 17.1141 35.3479 21.4935C36.1964 25.8728 40.3779 28.678 44.6877 27.759C48.9974 26.84 51.8034 22.5448 50.955 18.1654C50.1066 13.786 45.925 10.9809 41.6152 11.8999Z" fill="url(#paint70_linear_12563_74574)"/>
<path d="M39.0188 13.2236C35.4057 15.8139 34.5015 20.8717 36.9994 24.5205C39.4972 28.1693 44.4511 29.0274 48.0643 26.437C51.6774 23.8467 52.5815 18.7889 50.0837 15.1401C47.5859 11.4913 42.6319 10.6333 39.0188 13.2236Z" fill="url(#paint71_linear_12563_74574)"/>
<path d="M36.8145 16.2955C34.8468 20.3209 36.4353 25.1685 40.3624 27.1229C44.2895 29.0774 49.0682 27.3986 51.0358 23.3733C53.0035 19.3479 51.4151 14.5003 47.488 12.5458C43.5608 10.5914 38.7822 12.2701 36.8145 16.2955Z" fill="url(#paint72_linear_12563_74574)"/>
<path d="M41.6221 12.2466C37.4871 13.8087 35.3364 18.4743 36.8183 22.6675C38.3002 26.8608 42.8536 28.9938 46.9886 27.4317C51.1235 25.8696 53.2743 21.204 51.7923 17.0107C50.3104 12.8175 45.7571 10.6845 41.6221 12.2466Z" fill="url(#paint73_linear_12563_74574)"/>
<path d="M37.3781 16.7479C35.6468 20.8821 37.5159 25.6216 41.5528 27.3339C45.5897 29.0462 50.2657 27.0829 51.997 22.9487C53.7283 18.8146 51.8593 14.075 47.8224 12.3627C43.7855 10.6504 39.1094 12.6138 37.3781 16.7479Z" fill="url(#paint74_linear_12563_74574)"/>
<path d="M39.3278 25.5515C42.3737 28.7361 47.4056 28.7735 50.5699 25.6305C53.7342 22.4875 53.8337 17.3605 50.7877 14.1759C47.7417 10.9914 42.7098 10.9539 39.5455 14.0969C36.3813 17.2399 36.2818 22.3669 39.3278 25.5515Z" fill="url(#paint75_linear_12563_74574)"/>
<path d="M38.785 15.5076C36.3681 19.2745 37.3821 24.2862 41.0499 26.7015C44.7177 29.1169 49.6503 28.0213 52.0672 24.2544C54.4841 20.4875 53.47 15.4758 49.8023 13.0604C46.1345 10.6451 41.2019 11.7407 38.785 15.5076Z" fill="url(#paint76_linear_12563_74574)"/>
<path d="M42.564 12.5392C38.5496 14.4064 36.7406 19.2166 38.5235 23.2832C40.3064 27.3498 45.006 29.1329 49.0204 27.2657C53.0348 25.3986 54.8438 20.5884 53.0609 16.5218C51.278 12.4552 46.5784 10.6721 42.564 12.5392Z" fill="url(#paint77_linear_12563_74574)"/>
<path d="M40.4293 25.6126C43.4753 28.7971 48.5072 28.8345 51.6715 25.6915C54.8357 22.5486 54.9352 17.4215 51.8892 14.237C48.8433 11.0524 43.8114 11.015 40.6471 14.158C37.4828 17.301 37.3833 22.428 40.4293 25.6126Z" fill="url(#paint78_linear_12563_74574)"/>
<path d="M40.7907 25.6384C43.8366 28.823 48.8685 28.8604 52.0328 25.7174C55.1971 22.5744 55.2966 17.4474 52.2506 14.2628C49.2046 11.0783 44.1727 11.0409 41.0084 14.1839C37.8442 17.3268 37.7447 22.4539 40.7907 25.6384Z" fill="url(#paint79_linear_12563_74574)"/>
<path d="M40.5405 15.1688C37.8852 18.7669 38.5692 23.8403 42.0683 26.5006C45.5674 29.161 50.5565 28.4008 53.2117 24.8027C55.867 21.2047 55.183 16.1312 51.6839 13.4709C48.1848 10.8105 43.1957 11.5707 40.5405 15.1688Z" fill="url(#paint80_linear_12563_74574)"/>
<path d="M39.8787 17.0148C38.204 21.1725 40.1381 25.8841 44.1988 27.5385C48.2595 29.1929 52.909 27.1636 54.5838 23.0059C56.2585 18.8483 54.3244 14.1366 50.2637 12.4822C46.203 10.8278 41.5535 12.8571 39.8787 17.0148Z" fill="url(#paint81_linear_12563_74574)"/>
<path d="M44.4599 12.6322C40.4195 14.4388 38.5409 19.2221 40.2641 23.3159C41.9872 27.4098 46.6594 29.264 50.6998 27.4574C54.7402 25.6508 56.6188 20.8675 54.8956 16.7737C53.1725 12.6798 48.5003 10.8256 44.4599 12.6322Z" fill="url(#paint82_linear_12563_74574)"/>
<path d="M44.8085 12.6703C40.7681 14.4769 38.8896 19.2602 40.6127 23.354C42.3358 27.4479 47.0081 29.3021 51.0485 27.4955C55.0889 25.6889 56.9674 20.9056 55.2443 16.8118C53.5211 12.7179 48.8489 10.8637 44.8085 12.6703Z" fill="url(#paint83_linear_12563_74574)"/>
<path d="M40.9139 17.1285C39.2391 21.2862 41.1733 25.9979 45.234 27.6523C49.2946 29.3067 53.9441 27.2774 55.6189 23.1197C57.2937 18.962 55.3595 14.2504 51.2989 12.596C47.2382 10.9416 42.5887 12.9709 40.9139 17.1285Z" fill="url(#paint84_linear_12563_74574)"/>
<path d="M45.5417 12.7353C41.4888 14.5119 39.576 19.2814 41.2695 23.3884C42.9629 27.4954 47.6213 29.3846 51.6742 27.6081C55.7272 25.8315 57.6399 21.062 55.9464 16.955C54.253 12.848 49.5946 10.9588 45.5417 12.7353Z" fill="url(#paint85_linear_12563_74574)"/>
<path d="M41.632 17.1137C39.9007 21.2478 41.7698 25.9874 45.8067 27.6997C49.8436 29.412 54.5196 27.4486 56.2509 23.3145C57.9822 19.1803 56.1132 14.4408 52.0763 12.7285C48.0394 11.0162 43.3633 12.9795 41.632 17.1137Z" fill="url(#paint86_linear_12563_74574)"/>
<path d="M41.9611 17.1561C40.2298 21.2903 42.0989 26.0298 46.1358 27.7421C50.1727 29.4544 54.8487 27.4911 56.58 23.3569C58.3113 19.2228 56.4423 14.4832 52.4054 12.7709C48.3685 11.0586 43.6924 13.022 41.9611 17.1561Z" fill="url(#paint87_linear_12563_74574)"/>
<path d="M42.9037 16.0176C40.5325 19.8141 41.6076 24.8118 45.305 27.1803C49.0024 29.5489 53.9221 28.3912 56.2934 24.5947C58.6646 20.7982 57.5895 15.8004 53.8921 13.4319C50.1947 11.0634 45.275 12.221 42.9037 16.0176Z" fill="url(#paint88_linear_12563_74574)"/>
<path d="M51.181 12.3437C46.8439 11.6909 42.7645 14.7504 42.0696 19.1773C41.3747 23.6042 44.3273 27.7221 48.6644 28.3749C53.0016 29.0277 57.0809 25.9682 57.7759 21.5413C58.4708 17.1144 55.5182 12.9965 51.181 12.3437Z" fill="url(#paint89_linear_12563_74574)"/>
<path d="M46.2217 13.4728C42.4306 15.7809 41.1559 20.7597 43.3745 24.5932C45.5931 28.4268 50.4648 29.6634 54.2559 27.3552C58.0469 25.0471 59.3216 20.0683 57.103 16.2348C54.8845 12.4012 50.0127 11.1646 46.2217 13.4728Z" fill="url(#paint90_linear_12563_74574)"/>
<path d="M44.8258 26.1545C47.8718 29.3391 52.9037 29.3765 56.068 26.2335C59.2322 23.0905 59.3317 17.9635 56.2857 14.779C53.2397 11.5944 48.2078 11.557 45.0436 14.7C41.8793 17.843 41.7798 22.97 44.8258 26.1545Z" fill="url(#paint91_linear_12563_74574)"/>
<path d="M44.0915 16.3652C41.789 20.2049 42.9549 25.1804 46.6956 27.4782C50.4363 29.7761 55.3352 28.5262 57.6377 24.6865C59.9401 20.8468 58.7742 15.8713 55.0335 13.5735C51.2929 11.2756 46.3939 12.5255 44.0915 16.3652Z" fill="url(#paint92_linear_12563_74574)"/>
<path d="M49.0477 12.8022C44.8149 14.0515 42.3349 18.5475 43.5086 22.8443C44.6822 27.1411 49.0649 29.6117 53.2978 28.3624C57.5306 27.1131 60.0105 22.6171 58.8369 18.3202C57.6633 14.0234 53.2805 11.5529 49.0477 12.8022Z" fill="url(#paint93_linear_12563_74574)"/>
<path d="M52.8725 12.6476C48.5481 11.9177 44.4178 14.9048 43.6473 19.3197C42.8768 23.7345 45.7577 27.9051 50.0821 28.6351C54.4065 29.365 58.5367 26.3779 59.3073 21.9631C60.0778 17.5482 57.1968 13.3776 52.8725 12.6476Z" fill="url(#paint94_linear_12563_74574)"/>
<path d="M45.5116 15.79C42.8041 19.3477 43.4132 24.432 46.872 27.146C50.3308 29.86 55.3296 29.1761 58.0371 25.6184C60.7446 22.0606 60.1355 16.9764 56.6767 14.2623C53.2179 11.5483 48.2191 12.2322 45.5116 15.79Z" fill="url(#paint95_linear_12563_74574)"/>
<path d="M52.1932 12.6621C47.8012 12.6489 44.1859 16.2658 44.1182 20.7405C44.0505 25.2153 47.5561 28.8534 51.948 28.8666C56.34 28.8797 59.9553 25.2629 60.023 20.7881C60.0907 16.3134 56.5851 12.6753 52.1932 12.6621Z" fill="url(#paint96_linear_12563_74574)"/>
<path d="M54.65 13.0434C50.4439 11.8071 46.0078 14.2912 44.7417 18.5918C43.4756 22.8924 45.8589 27.3809 50.0649 28.6172C54.271 29.8535 58.7071 27.3694 59.9732 23.0688C61.2393 18.7682 58.856 14.2797 54.65 13.0434Z" fill="url(#paint97_linear_12563_74574)"/>
<path d="M45.8794 16.7209C43.5704 20.5566 44.7278 25.5342 48.4644 27.8388C52.2011 30.1433 57.102 28.9021 59.411 25.0664C61.72 21.2308 60.5626 16.2531 56.826 13.9485C53.0893 11.644 48.1884 12.8852 45.8794 16.7209Z" fill="url(#paint98_linear_12563_74574)"/>
<path d="M53.0526 12.8594C48.6606 12.8462 45.0453 16.463 44.9776 20.9378C44.9099 25.4125 48.4154 29.0507 52.8074 29.0638C57.1994 29.077 60.8146 25.4602 60.8823 20.9854C60.95 16.5107 57.4445 12.8725 53.0526 12.8594Z" fill="url(#paint99_linear_12563_74574)"/>
<path d="M46.0821 17.5065C44.1233 21.5363 45.7226 26.3801 49.6542 28.3254C53.5858 30.2708 58.3608 28.581 60.3196 24.5512C62.2783 20.5214 60.679 15.6776 56.7475 13.7323C52.8159 11.787 48.0408 13.4767 46.0821 17.5065Z" fill="url(#paint100_linear_12563_74574)"/>
<path d="M46.6139 17.0861C44.3916 20.9738 45.6616 25.9216 49.4504 28.1372C53.2393 30.3528 58.1123 28.9972 60.3346 25.1095C62.5569 21.2217 61.2869 16.274 57.4981 14.0584C53.7092 11.8428 48.8362 13.1983 46.6139 17.0861Z" fill="url(#paint101_linear_12563_74574)"/>
<path d="M46.3885 18.1696C44.7137 22.3273 46.6479 27.0389 50.7086 28.6933C54.7693 30.3477 59.4188 28.3184 61.0935 24.1607C62.7683 20.003 60.8341 15.2914 56.7735 13.637C52.7128 11.9826 48.0633 14.0119 46.3885 18.1696Z" fill="url(#paint102_linear_12563_74574)"/>
<path d="M49.4807 14.6318C45.8676 17.2221 44.9634 22.28 47.4613 25.9287C49.9591 29.5775 54.9131 30.4356 58.5262 27.8452C62.1393 25.2549 63.0435 20.1971 60.5456 16.5483C58.0478 12.8995 53.0939 12.0415 49.4807 14.6318Z" fill="url(#paint103_linear_12563_74574)"/>
<path d="M51.2075 13.864C47.1516 15.6333 45.2308 20.3996 46.9171 24.5097C48.6035 28.6197 53.2585 30.5173 57.3144 28.7479C61.3703 26.9785 63.2911 22.2123 61.6047 18.1022C59.9184 13.9921 55.2633 12.0946 51.2075 13.864Z" fill="url(#paint104_linear_12563_74574)"/>
<path d="M49.115 15.5067C45.8919 18.5876 45.6983 23.7159 48.6826 26.9612C51.6669 30.2065 56.6989 30.3397 59.9219 27.2588C63.145 24.178 63.3386 19.0496 60.3543 15.8044C57.3701 12.5591 52.338 12.4259 49.115 15.5067Z" fill="url(#paint105_linear_12563_74574)"/>
<path d="M51.3029 14.2025C47.3488 16.2013 45.6941 21.0672 47.607 25.0707C49.5199 29.0742 54.2761 30.6993 58.2302 28.7005C62.1842 26.7017 63.8389 21.8358 61.926 17.8323C60.0131 13.8288 55.2569 12.2037 51.3029 14.2025Z" fill="url(#paint106_linear_12563_74574)"/>
<path d="M49.2819 27.2117C52.3278 30.3963 57.3597 30.4337 60.524 27.2907C63.6883 24.1477 63.7878 19.0207 60.7418 15.8361C57.6958 12.6515 52.6639 12.6141 49.4996 15.7571C46.3354 18.9001 46.2359 24.0271 49.2819 27.2117Z" fill="url(#paint107_linear_12563_74574)"/>
<path d="M49.5211 27.2844C52.5671 30.469 57.599 30.5064 60.7633 27.3634C63.9275 24.2204 64.027 19.0934 60.981 15.9088C57.9351 12.7243 52.9032 12.6869 49.7389 15.8298C46.5746 18.9728 46.4751 24.0998 49.5211 27.2844Z" fill="url(#paint108_linear_12563_74574)"/>
<path d="M48.8485 17.2927C46.4316 21.0596 47.4456 26.0713 51.1134 28.4867C54.7812 30.9021 59.7138 29.8064 62.1307 26.0395C64.5476 22.2727 63.5335 17.2609 59.8657 14.8456C56.198 12.4302 51.2654 13.5258 48.8485 17.2927Z" fill="url(#paint109_linear_12563_74574)"/>
<path d="M52.2077 14.5161C48.2664 16.5414 46.6433 21.418 48.5824 25.4081C50.5215 29.3983 55.2885 30.9911 59.2299 28.9658C63.1712 26.9404 64.7943 22.0639 62.8552 18.0737C60.9161 14.0836 56.1491 12.4908 52.2077 14.5161Z" fill="url(#paint110_linear_12563_74574)"/>
<path d="M50.2135 27.4993C53.2595 30.6839 58.2914 30.7213 61.4557 27.5783C64.6199 24.4353 64.7194 19.3083 61.6734 16.1237C58.6274 12.9391 53.5955 12.9017 50.4313 16.0447C47.267 19.1877 47.1675 24.3147 50.2135 27.4993Z" fill="url(#paint111_linear_12563_74574)"/>
<path d="M49.1848 18.0882C47.0779 22.0411 48.4944 26.9457 52.3486 29.0429C56.2028 31.1401 61.0353 29.6358 63.1422 25.6829C65.2491 21.7301 63.8326 16.8255 59.9784 14.7283C56.1241 12.6311 51.2917 14.1354 49.1848 18.0882Z" fill="url(#paint112_linear_12563_74574)"/>
<path d="M49.0897 18.8106C47.3331 22.934 49.1727 27.6857 53.1987 29.424C57.2246 31.1622 61.9123 29.2287 63.6689 25.1054C65.4256 20.982 63.5859 16.2303 59.56 14.492C55.5341 12.7538 50.8464 14.6873 49.0897 18.8106Z" fill="url(#paint113_linear_12563_74574)"/>
<path d="M56.7657 13.9282C52.3743 13.8869 48.737 17.4808 48.6417 21.9554C48.5464 26.43 52.0292 30.0908 56.4206 30.1321C60.8121 30.1733 64.4493 26.5794 64.5446 22.1049C64.6399 17.6303 61.1572 13.9695 56.7657 13.9282Z" fill="url(#paint114_linear_12563_74574)"/>
<path d="M49.417 19.165C47.7749 23.3359 49.7463 28.0311 53.8203 29.652C57.8943 31.273 62.5281 29.206 64.1702 25.0351C65.8124 20.8643 63.8409 16.1691 59.7669 14.5481C55.6929 12.9271 51.0591 14.9942 49.417 19.165Z" fill="url(#paint115_linear_12563_74574)"/>
<path d="M58.0493 14.1279C53.6955 13.5912 49.6948 16.7575 49.1137 21.2C48.5325 25.6424 51.5909 29.6788 55.9447 30.2155C60.2986 30.7522 64.2993 27.5859 64.8804 23.1435C65.4616 18.701 62.4032 14.6646 58.0493 14.1279Z" fill="url(#paint116_linear_12563_74574)"/>
<path d="M52.6672 15.6382C49.0541 18.2285 48.15 23.2863 50.6478 26.9351C53.1457 30.5839 58.0996 31.4419 61.7127 28.8516C65.3259 26.2613 66.23 21.2035 63.7321 17.5547C61.2343 13.9059 56.2804 13.0478 52.6672 15.6382Z" fill="url(#paint117_linear_12563_74574)"/>
<path d="M51.65 28.0022C54.696 31.1868 59.7279 31.2242 62.8922 28.0812C66.0564 24.9382 66.1559 19.8112 63.1099 16.6266C60.064 13.442 55.0321 13.4046 51.8678 16.5476C48.7035 19.6906 48.604 24.8176 51.65 28.0022Z" fill="url(#paint118_linear_12563_74574)"/>
<path d="M55.8549 14.4963C51.5654 15.5136 48.8542 19.8709 49.7995 24.2285C50.7447 28.586 54.9884 31.2938 59.278 30.2764C63.5675 29.2591 66.2787 24.9018 65.3334 20.5442C64.3882 16.1867 60.1445 13.4789 55.8549 14.4963Z" fill="url(#paint119_linear_12563_74574)"/>
<path d="M50.4348 19.3519C48.7035 23.4861 50.5725 28.2256 54.6094 29.9379C58.6463 31.6502 63.3224 29.6869 65.0537 25.5527C66.785 21.4186 64.9159 16.679 60.879 14.9667C56.8421 13.2544 52.1661 15.2178 50.4348 19.3519Z" fill="url(#paint120_linear_12563_74574)"/>
<path d="M50.6097 19.4314C48.8826 23.5674 50.7566 28.3048 54.7953 30.0128C58.834 31.7208 63.5081 29.7525 65.2352 25.6165C66.9622 21.4806 65.0883 16.7431 61.0496 15.0351C57.0109 13.3272 52.3368 15.2954 50.6097 19.4314Z" fill="url(#paint121_linear_12563_74574)"/>
<path d="M53.8 15.8216C50.1011 18.2817 49.0229 23.3062 51.3918 27.044C53.7607 30.7818 58.6797 31.8176 62.3787 29.3575C66.0776 26.8974 67.1558 21.873 64.7868 18.1351C62.4179 14.3973 57.4989 13.3615 53.8 15.8216Z" fill="url(#paint122_linear_12563_74574)"/>
<path d="M54.5587 15.5238C50.6691 17.6522 49.1705 22.5685 51.2115 26.5047C53.2524 30.4408 58.06 31.9063 61.9495 29.7779C65.8391 27.6495 67.3377 22.7332 65.2968 18.797C63.2558 14.8609 58.4482 13.3954 54.5587 15.5238Z" fill="url(#paint123_linear_12563_74574)"/>
<path d="M59.4653 14.6709C55.1115 14.1342 51.1108 17.3005 50.5297 21.7429C49.9485 26.1854 53.0069 30.2218 57.3608 30.7585C61.7146 31.2952 65.7153 28.1289 66.2964 23.6864C66.8776 19.244 63.8192 15.2076 59.4653 14.6709Z" fill="url(#paint124_linear_12563_74574)"/>
<path d="M51.7936 18.625C49.4912 22.4647 50.6571 27.4401 54.3978 29.738C58.1384 32.0359 63.0374 30.786 65.3398 26.9463C67.6423 23.1066 66.4764 18.1311 62.7357 15.8332C58.995 13.5354 54.0961 14.7853 51.7936 18.625Z" fill="url(#paint125_linear_12563_74574)"/>
<path d="M60.24 14.8719C55.9291 14.0681 51.7512 16.985 50.9083 21.387C50.0654 25.7889 52.8768 30.009 57.1877 30.8129C61.4985 31.6167 65.6764 28.6998 66.5193 24.2978C67.3622 19.8959 64.5508 15.6757 60.24 14.8719Z" fill="url(#paint126_linear_12563_74574)"/>
<path d="M53.1237 28.5925C56.1696 31.7771 61.2015 31.8145 64.3658 28.6715C67.5301 25.5285 67.6296 20.4015 64.5836 17.2169C61.5376 14.0324 56.5057 13.995 53.3414 17.138C50.1772 20.281 50.0777 25.408 53.1237 28.5925Z" fill="url(#paint127_linear_12563_74574)"/>
<path d="M54.8387 16.1055C51.0922 18.4888 49.9138 23.491 52.2067 27.2783C54.4996 31.0655 59.3955 32.2037 63.1421 29.8204C66.8886 27.4372 68.067 22.4349 65.7741 18.6477C63.4812 14.8604 58.5853 13.7222 54.8387 16.1055Z" fill="url(#paint128_linear_12563_74574)"/>
<path d="M55.4278 15.8925C51.5383 18.0209 50.0397 22.9372 52.0806 26.8733C54.1215 30.8095 58.9291 32.275 62.8187 30.1466C66.7082 28.0181 68.2068 23.1018 66.1659 19.1657C64.125 15.2295 59.3174 13.7641 55.4278 15.8925Z" fill="url(#paint129_linear_12563_74574)"/>
<path d="M53.5162 28.762C56.5622 31.9465 61.5941 31.984 64.7584 28.841C67.9227 25.698 68.0221 20.571 64.9762 17.3864C61.9302 14.2018 56.8983 14.1644 53.734 17.3074C50.5697 20.4504 50.4703 25.5774 53.5162 28.762Z" fill="url(#paint130_linear_12563_74574)"/>
<path d="M52.0148 20.1298C50.3379 24.2867 52.2696 28.9994 56.3294 30.656C60.3892 32.3125 65.0397 30.2857 66.7166 26.1289C68.3935 21.9721 66.4618 17.2594 62.402 15.6028C58.3422 13.9462 53.6917 15.973 52.0148 20.1298Z" fill="url(#paint131_linear_12563_74574)"/>
<path d="M61.0147 15.2122C56.7046 14.4046 52.5242 17.3178 51.6775 21.719C50.8309 26.1203 53.6386 30.343 57.9488 31.1506C62.2589 31.9583 66.4393 29.0451 67.2859 24.6438C68.1325 20.2426 65.3248 16.0199 61.0147 15.2122Z" fill="url(#paint132_linear_12563_74574)"/>
<path d="M60.9736 15.2352C56.6482 14.5114 52.522 17.5044 51.7575 21.9202C50.993 26.3361 53.8797 30.5025 58.2052 31.2263C62.5306 31.9501 66.6569 28.9571 67.4213 24.5413C68.1858 20.1255 65.2991 15.959 60.9736 15.2352Z" fill="url(#paint133_linear_12563_74574)"/>
<path d="M52.9157 19.1215C50.6132 22.9612 51.7792 27.9367 55.5198 30.2346C59.2605 32.5325 64.1594 31.2826 66.4619 27.4429C68.7644 23.6032 67.5984 18.6277 63.8578 16.3298C60.1171 14.0319 55.2182 15.2818 52.9157 19.1215Z" fill="url(#paint134_linear_12563_74574)"/>
<path d="M52.4807 20.224C50.7494 24.3582 52.6184 29.0977 56.6553 30.81C60.6922 32.5223 65.3683 30.559 67.0996 26.4248C68.8309 22.2906 66.9618 17.5511 62.9249 15.8388C58.888 14.1265 54.212 16.0898 52.4807 20.224Z" fill="url(#paint135_linear_12563_74574)"/>
<path d="M52.9016 19.5721C50.7947 23.525 52.2112 28.4296 56.0654 30.5268C59.9196 32.624 64.7521 31.1197 66.859 27.1668C68.9659 23.214 67.5494 18.3094 63.6952 16.2122C59.8409 14.115 55.0085 15.6193 52.9016 19.5721Z" fill="url(#paint136_linear_12563_74574)"/>
<path d="M61.3506 15.4119C57.0251 14.6881 52.8989 17.6811 52.1344 22.097C51.37 26.5128 54.2567 30.6793 58.5821 31.4031C62.9076 32.1269 67.0338 29.1339 67.7983 24.718C68.5628 20.3022 65.6761 16.1357 61.3506 15.4119Z" fill="url(#paint137_linear_12563_74574)"/>
<path d="M57.9169 15.6694C53.6841 16.9186 51.2041 21.4147 52.3777 25.7115C53.5513 30.0083 57.9341 32.4788 62.1669 31.2296C66.3997 29.9803 68.8797 25.4843 67.706 21.1874C66.5324 16.8906 62.1497 14.4201 57.9169 15.6694Z" fill="url(#paint138_linear_12563_74574)"/>
<path d="M52.7606 20.4869C51.0858 24.6446 53.02 29.3563 57.0806 31.0107C61.1413 32.6651 65.7908 30.6358 67.4656 26.4781C69.1404 22.3204 67.2062 17.6088 63.1455 15.9544C59.0849 14.3 54.4354 16.3293 52.7606 20.4869Z" fill="url(#paint139_linear_12563_74574)"/>
<path d="M59.5135 15.4534C55.1365 15.8848 51.8873 19.8451 52.2561 24.299C52.625 28.7529 56.4722 32.0139 60.8492 31.5825C65.2262 31.1512 68.4754 27.1909 68.1066 22.737C67.7377 18.2831 63.8905 15.0221 59.5135 15.4534Z" fill="url(#paint140_linear_12563_74574)"/>
<path d="M54.5104 29.2366C57.5564 32.4212 62.5883 32.4586 65.7525 29.3156C68.9168 26.1726 69.0163 21.0456 65.9703 17.861C62.9243 14.6764 57.8924 14.639 54.7281 17.782C51.5639 20.925 51.4644 26.052 54.5104 29.2366Z" fill="url(#paint141_linear_12563_74574)"/>
<path d="M52.9808 20.4812C51.2537 24.6172 53.1277 29.3546 57.1664 31.0626C61.2051 32.7706 65.8792 30.8023 67.6062 26.6663C69.3333 22.5304 67.4594 17.7929 63.4207 16.0849C59.382 14.377 54.7079 16.3452 52.9808 20.4812Z" fill="url(#paint142_linear_12563_74574)"/>
<path d="M55.8176 16.9927C52.2045 19.583 51.3004 24.6408 53.7982 28.2896C56.296 31.9384 61.25 32.7964 64.8631 30.2061C68.4762 27.6157 69.3804 22.5579 66.8825 18.9092C64.3847 15.2604 59.4308 14.4023 55.8176 16.9927Z" fill="url(#paint143_linear_12563_74574)"/>
<path d="M53.4036 19.8255C51.2967 23.7784 52.7132 28.683 56.5674 30.7802C60.4216 32.8774 65.254 31.3731 67.3609 27.4202C69.4678 23.4674 68.0513 18.5628 64.1971 16.4656C60.3429 14.3684 55.5105 15.8727 53.4036 19.8255Z" fill="url(#paint144_linear_12563_74574)"/>
<path d="M61.8381 15.6503C57.5159 14.908 53.3776 17.8836 52.595 22.2963C51.8124 26.7091 54.6818 30.8881 59.004 31.6303C63.3262 32.3726 67.4645 29.3971 68.2471 24.9844C69.0297 20.5716 66.1603 16.3926 61.8381 15.6503Z" fill="url(#paint145_linear_12563_74574)"/>
<path d="M61.835 15.6614C57.5095 14.9377 53.3833 17.9307 52.6188 22.3465C51.8543 26.7623 54.7411 30.9288 59.0665 31.6526C63.392 32.3764 67.5182 29.3834 68.2827 24.9676C69.0472 20.5517 66.1604 16.3852 61.835 15.6614Z" fill="url(#paint146_linear_12563_74574)"/>
<path d="M56.1617 16.9126C52.4698 19.3838 51.4062 24.4113 53.7861 28.1418C56.166 31.8723 61.0882 32.8932 64.7801 30.422C68.472 27.9508 69.5356 22.9233 67.1557 19.1928C64.7758 15.4623 59.8536 14.4414 56.1617 16.9126Z" fill="url(#paint147_linear_12563_74574)"/>
<path d="M61.7395 15.6587C57.4017 15.0098 53.325 18.0729 52.6338 22.5003C51.9426 26.9278 54.8988 31.043 59.2366 31.692C63.5744 32.3409 67.6511 29.2778 68.3423 24.8503C69.0334 20.4229 66.0773 16.3077 61.7395 15.6587Z" fill="url(#paint148_linear_12563_74574)"/>
<path d="M54.7643 29.3713C57.8103 32.5559 62.8422 32.5933 66.0064 29.4503C69.1707 26.3073 69.2702 21.1803 66.2242 17.9958C63.1782 14.8112 58.1463 14.7738 54.9821 17.9168C51.8178 21.0598 51.7183 26.1868 54.7643 29.3713Z" fill="url(#paint149_linear_12563_74574)"/>
<path d="M58.3749 15.9047C54.1421 17.154 51.6621 21.65 52.8357 25.9468C54.0093 30.2437 58.3921 32.7142 62.6249 31.4649C66.8577 30.2156 69.3377 25.7196 68.164 21.4228C66.9904 17.126 62.6077 14.6554 58.3749 15.9047Z" fill="url(#paint150_linear_12563_74574)"/>
<path d="M58.3749 15.9047C54.1421 17.154 51.6621 21.65 52.8357 25.9468C54.0093 30.2437 58.3921 32.7142 62.6249 31.4649C66.8577 30.2156 69.3377 25.7196 68.164 21.4228C66.9904 17.126 62.6077 14.6554 58.3749 15.9047Z" fill="#D3FAFF"/>
</g>
<defs>
<linearGradient id="paint0_linear_12563_74574" x1="18.0889" y1="36.5346" x2="2.85599" y2="31.9622" gradientUnits="userSpaceOnUse">
<stop stop-color="#AD96FF"/>
<stop offset="1" stop-color="#AD96FF"/>
</linearGradient>
<linearGradient id="paint1_linear_12563_74574" x1="18.9122" y1="36.189" x2="3.63251" y2="31.6736" gradientUnits="userSpaceOnUse">
<stop stop-color="#AD96FF"/>
<stop offset="1" stop-color="#AD96FF"/>
</linearGradient>
<linearGradient id="paint2_linear_12563_74574" x1="20.1637" y1="35.5668" x2="4.84081" y2="31.1096" gradientUnits="userSpaceOnUse">
<stop stop-color="#AC97FF"/>
<stop offset="1" stop-color="#AC97FF"/>
</linearGradient>
<linearGradient id="paint3_linear_12563_74574" x1="21.8161" y1="35.4151" x2="6.59643" y2="31.0611" gradientUnits="userSpaceOnUse">
<stop stop-color="#AB97FF"/>
<stop offset="1" stop-color="#AB97FF"/>
</linearGradient>
<linearGradient id="paint4_linear_12563_74574" x1="23.5484" y1="35.3595" x2="8.28293" y2="31.0627" gradientUnits="userSpaceOnUse">
<stop stop-color="#AB98FF"/>
<stop offset="1" stop-color="#AB98FF"/>
</linearGradient>
<linearGradient id="paint5_linear_12563_74574" x1="25.6146" y1="35.4726" x2="10.2961" y2="31.2342" gradientUnits="userSpaceOnUse">
<stop stop-color="#AA98FF"/>
<stop offset="1" stop-color="#AA98FF"/>
</linearGradient>
<linearGradient id="paint6_linear_12563_74574" x1="28.0101" y1="35.7548" x2="12.6395" y2="31.5724" gradientUnits="userSpaceOnUse">
<stop stop-color="#A999FF"/>
<stop offset="1" stop-color="#A999FF"/>
</linearGradient>
<linearGradient id="paint7_linear_12563_74574" x1="30.7691" y1="36.2187" x2="15.3492" y2="32.0964" gradientUnits="userSpaceOnUse">
<stop stop-color="#A999FF"/>
<stop offset="1" stop-color="#A999FF"/>
</linearGradient>
<linearGradient id="paint8_linear_12563_74574" x1="34.3034" y1="35.2519" x2="18.831" y2="31.1891" gradientUnits="userSpaceOnUse">
<stop stop-color="#A89AFF"/>
<stop offset="1" stop-color="#A89AFF"/>
</linearGradient>
<linearGradient id="paint9_linear_12563_74574" x1="37.5103" y1="35.7863" x2="22.1399" y2="31.8202" gradientUnits="userSpaceOnUse">
<stop stop-color="#A79AFF"/>
<stop offset="1" stop-color="#A79AFF"/>
</linearGradient>
<linearGradient id="paint10_linear_12563_74574" x1="41.3087" y1="36.5764" x2="25.8867" y2="32.67" gradientUnits="userSpaceOnUse">
<stop stop-color="#A79BFF"/>
<stop offset="1" stop-color="#A79BFF"/>
</linearGradient>
<linearGradient id="paint11_linear_12563_74574" x1="45.5478" y1="37.5526" x2="30.0644" y2="33.7036" gradientUnits="userSpaceOnUse">
<stop stop-color="#A69BFF"/>
<stop offset="1" stop-color="#A69BFF"/>
</linearGradient>
<linearGradient id="paint12_linear_12563_74574" x1="50.7782" y1="36.1922" x2="35.2375" y2="32.3994" gradientUnits="userSpaceOnUse">
<stop stop-color="#A59CFF"/>
<stop offset="1" stop-color="#A59CFF"/>
</linearGradient>
<linearGradient id="paint13_linear_12563_74574" x1="55.9134" y1="37.3218" x2="40.3109" y2="33.5899" gradientUnits="userSpaceOnUse">
<stop stop-color="#A59CFF"/>
<stop offset="1" stop-color="#A59CFF"/>
</linearGradient>
<linearGradient id="paint14_linear_12563_74574" x1="61.4349" y1="38.651" x2="45.7722" y2="34.9753" gradientUnits="userSpaceOnUse">
<stop stop-color="#A49DFF"/>
<stop offset="1" stop-color="#A49DFF"/>
</linearGradient>
<linearGradient id="paint15_linear_12563_74574" x1="67.4378" y1="40.194" x2="51.7104" y2="36.5796" gradientUnits="userSpaceOnUse">
<stop stop-color="#A39DFF"/>
<stop offset="1" stop-color="#A39DFF"/>
</linearGradient>
<linearGradient id="paint16_linear_12563_74574" x1="73.7551" y1="38.1575" x2="58.1215" y2="34.6376" gradientUnits="userSpaceOnUse">
<stop stop-color="#A39EFF"/>
<stop offset="1" stop-color="#A39EFF"/>
</linearGradient>
<linearGradient id="paint17_linear_12563_74574" x1="80.705" y1="39.8259" x2="65.001" y2="36.3662" gradientUnits="userSpaceOnUse">
<stop stop-color="#A29EFF"/>
<stop offset="1" stop-color="#A29EFF"/>
</linearGradient>
<linearGradient id="paint18_linear_12563_74574" x1="88.1176" y1="41.7432" x2="72.3473" y2="38.3422" gradientUnits="userSpaceOnUse">
<stop stop-color="#A19FFF"/>
<stop offset="1" stop-color="#A19FFF"/>
</linearGradient>
<linearGradient id="paint19_linear_12563_74574" x1="96.1097" y1="43.8811" x2="80.266" y2="40.5406" gradientUnits="userSpaceOnUse">
<stop stop-color="#A09FFF"/>
<stop offset="1" stop-color="#A09FFF"/>
</linearGradient>
<linearGradient id="paint20_linear_12563_74574" x1="105.572" y1="41.4527" x2="89.6485" y2="38.1692" gradientUnits="userSpaceOnUse">
<stop stop-color="#A0A0FF"/>
<stop offset="1" stop-color="#A0A0FF"/>
</linearGradient>
<linearGradient id="paint21_linear_12563_74574" x1="114.775" y1="43.7652" x2="98.7719" y2="40.5421" gradientUnits="userSpaceOnUse">
<stop stop-color="#9FA0FF"/>
<stop offset="1" stop-color="#9FA0FF"/>
</linearGradient>
<linearGradient id="paint22_linear_12563_74574" x1="124.481" y1="46.3234" x2="108.399" y2="43.1586" gradientUnits="userSpaceOnUse">
<stop stop-color="#9EA1FF"/>
<stop offset="1" stop-color="#9EA1FF"/>
</linearGradient>
<linearGradient id="paint23_linear_12563_74574" x1="134.893" y1="49.1555" x2="118.725" y2="46.0511" gradientUnits="userSpaceOnUse">
<stop stop-color="#9EA1FF"/>
<stop offset="1" stop-color="#9EA1FF"/>
</linearGradient>
<linearGradient id="paint24_linear_12563_74574" x1="147.121" y1="46.0263" x2="130.86" y2="42.9818" gradientUnits="userSpaceOnUse">
<stop stop-color="#9DA2FF"/>
<stop offset="1" stop-color="#9DA2FF"/>
</linearGradient>
<linearGradient id="paint25_linear_12563_74574" x1="156.728" y1="48.6555" x2="140.547" y2="45.7001" gradientUnits="userSpaceOnUse">
<stop stop-color="#9CA2FF"/>
<stop offset="1" stop-color="#9CA2FF"/>
</linearGradient>
<linearGradient id="paint26_linear_12563_74574" x1="169.189" y1="51.9236" x2="152.909" y2="49.0306" gradientUnits="userSpaceOnUse">
<stop stop-color="#9CA3FF"/>
<stop offset="1" stop-color="#9CA3FF"/>
</linearGradient>
<linearGradient id="paint27_linear_12563_74574" x1="183.676" y1="48.0482" x2="167.295" y2="45.215" gradientUnits="userSpaceOnUse">
<stop stop-color="#9BA3FF"/>
<stop offset="1" stop-color="#9BA3FF"/>
</linearGradient>
<linearGradient id="paint28_linear_12563_74574" x1="197.672" y1="51.4949" x2="181.179" y2="48.7207" gradientUnits="userSpaceOnUse">
<stop stop-color="#9AA4FF"/>
<stop offset="1" stop-color="#9AA4FF"/>
</linearGradient>
<linearGradient id="paint29_linear_12563_74574" x1="212.467" y1="55.298" x2="195.866" y2="52.5844" gradientUnits="userSpaceOnUse">
<stop stop-color="#9AA4FF"/>
<stop offset="1" stop-color="#9AA4FF"/>
</linearGradient>
<linearGradient id="paint30_linear_12563_74574" x1="229.565" y1="50.6052" x2="212.846" y2="47.9514" gradientUnits="userSpaceOnUse">
<stop stop-color="#99A5FF"/>
<stop offset="1" stop-color="#99A5FF"/>
</linearGradient>
<linearGradient id="paint31_linear_12563_74574" x1="246.296" y1="54.6143" x2="229.45" y2="52.0198" gradientUnits="userSpaceOnUse">
<stop stop-color="#98A6FF"/>
<stop offset="1" stop-color="#98A6FF"/>
</linearGradient>
<linearGradient id="paint32_linear_12563_74574" x1="264.06" y1="58.977" x2="247.082" y2="56.4425" gradientUnits="userSpaceOnUse">
<stop stop-color="#98A6FF"/>
<stop offset="1" stop-color="#98A6FF"/>
</linearGradient>
<linearGradient id="paint33_linear_12563_74574" x1="282.99" y1="63.6442" x2="265.871" y2="61.1722" gradientUnits="userSpaceOnUse">
<stop stop-color="#97A7FF"/>
<stop offset="1" stop-color="#97A7FF"/>
</linearGradient>
<linearGradient id="paint34_linear_12563_74574" x1="300.662" y1="57.242" x2="283.579" y2="54.8556" gradientUnits="userSpaceOnUse">
<stop stop-color="#96A7FF"/>
<stop offset="1" stop-color="#96A7FF"/>
</linearGradient>
<linearGradient id="paint35_linear_12563_74574" x1="321.762" y1="62.1655" x2="304.522" y2="59.8413" gradientUnits="userSpaceOnUse">
<stop stop-color="#96A8FF"/>
<stop offset="1" stop-color="#96A8FF"/>
</linearGradient>
<linearGradient id="paint36_linear_12563_74574" x1="344.078" y1="67.53" x2="326.672" y2="65.265" gradientUnits="userSpaceOnUse">
<stop stop-color="#95A8FF"/>
<stop offset="1" stop-color="#95A8FF"/>
</linearGradient>
<linearGradient id="paint37_linear_12563_74574" x1="369.439" y1="60.3434" x2="351.857" y2="58.141" gradientUnits="userSpaceOnUse">
<stop stop-color="#94A9FF"/>
<stop offset="1" stop-color="#94A9FF"/>
</linearGradient>
<linearGradient id="paint38_linear_12563_74574" x1="394.658" y1="65.9637" x2="376.89" y2="63.8213" gradientUnits="userSpaceOnUse">
<stop stop-color="#94A9FF"/>
<stop offset="1" stop-color="#94A9FF"/>
</linearGradient>
<linearGradient id="paint39_linear_12563_74574" x1="423.177" y1="57.5746" x2="405.21" y2="55.4953" gradientUnits="userSpaceOnUse">
<stop stop-color="#93AAFF"/>
<stop offset="1" stop-color="#93AAFF"/>
</linearGradient>
<linearGradient id="paint40_linear_12563_74574" x1="451.84" y1="63.428" x2="433.656" y2="61.4118" gradientUnits="userSpaceOnUse">
<stop stop-color="#92AAFF"/>
<stop offset="1" stop-color="#92AAFF"/>
</linearGradient>
<linearGradient id="paint41_linear_12563_74574" x1="482.284" y1="69.8345" x2="463.871" y2="67.8789" gradientUnits="userSpaceOnUse">
<stop stop-color="#92ABFF"/>
<stop offset="1" stop-color="#92ABFF"/>
</linearGradient>
<linearGradient id="paint42_linear_12563_74574" x1="516.523" y1="59.7387" x2="497.861" y2="57.8469" gradientUnits="userSpaceOnUse">
<stop stop-color="#91ABFF"/>
<stop offset="1" stop-color="#91ABFF"/>
</linearGradient>
<linearGradient id="paint43_linear_12563_74574" x1="551.389" y1="66.428" x2="532.457" y2="64.6003" gradientUnits="userSpaceOnUse">
<stop stop-color="#90ACFF"/>
<stop offset="1" stop-color="#90ACFF"/>
</linearGradient>
<linearGradient id="paint44_linear_12563_74574" x1="588.522" y1="73.6429" x2="569.299" y2="71.88" gradientUnits="userSpaceOnUse">
<stop stop-color="#90ACFF"/>
<stop offset="1" stop-color="#90ACFF"/>
</linearGradient>
<linearGradient id="paint45_linear_12563_74574" x1="630.1" y1="61.4683" x2="610.564" y2="59.771" gradientUnits="userSpaceOnUse">
<stop stop-color="#8FADFF"/>
<stop offset="1" stop-color="#8FADFF"/>
</linearGradient>
<linearGradient id="paint46_linear_12563_74574" x1="673.009" y1="69.1058" x2="653.133" y2="67.4748" gradientUnits="userSpaceOnUse">
<stop stop-color="#8EADFF"/>
<stop offset="1" stop-color="#8EADFF"/>
</linearGradient>
<linearGradient id="paint47_linear_12563_74574" x1="710.752" y1="76.8386" x2="690.722" y2="75.2915" gradientUnits="userSpaceOnUse">
<stop stop-color="#8EAEFF"/>
<stop offset="1" stop-color="#8EAEFF"/>
</linearGradient>
<linearGradient id="paint48_linear_12563_74574" x1="761.582" y1="62.1218" x2="741.148" y2="60.6419" gradientUnits="userSpaceOnUse">
<stop stop-color="#8DAEFF"/>
<stop offset="1" stop-color="#8DAEFF"/>
</linearGradient>
<linearGradient id="paint49_linear_12563_74574" x1="814.423" y1="70.8847" x2="793.549" y2="69.4698" gradientUnits="userSpaceOnUse">
<stop stop-color="#8CAFFF"/>
<stop offset="1" stop-color="#8CAFFF"/>
</linearGradient>
<linearGradient id="paint50_linear_12563_74574" x1="873.525" y1="53.4035" x2="852.17" y2="52.0624" gradientUnits="userSpaceOnUse">
<stop stop-color="#8CAFFF"/>
<stop offset="1" stop-color="#8CAFFF"/>
</linearGradient>
<linearGradient id="paint51_linear_12563_74574" x1="935.763" y1="62.8155" x2="913.867" y2="61.5458" gradientUnits="userSpaceOnUse">
<stop stop-color="#8BB0FF"/>
<stop offset="1" stop-color="#8BB0FF"/>
</linearGradient>
<linearGradient id="paint52_linear_12563_74574" x1="1003.44" y1="72.8382" x2="980.965" y2="71.6428" gradientUnits="userSpaceOnUse">
<stop stop-color="#8AB0FF"/>
<stop offset="1" stop-color="#8AB0FF"/>
</linearGradient>
<linearGradient id="paint53_linear_12563_74574" x1="1079.26" y1="51.5605" x2="1056.12" y2="50.4411" gradientUnits="userSpaceOnUse">
<stop stop-color="#8AB1FF"/>
<stop offset="1" stop-color="#8AB1FF"/>
</linearGradient>
<linearGradient id="paint54_linear_12563_74574" x1="1160.73" y1="61.9482" x2="1136.86" y2="60.9121" gradientUnits="userSpaceOnUse">
<stop stop-color="#89B1FF"/>
<stop offset="1" stop-color="#89B1FF"/>
</linearGradient>
<linearGradient id="paint55_linear_12563_74574" x1="1251.68" y1="36.2531" x2="1226.99" y2="35.3002" gradientUnits="userSpaceOnUse">
<stop stop-color="#88B2FF"/>
<stop offset="1" stop-color="#88B2FF"/>
</linearGradient>
<linearGradient id="paint56_linear_12563_74574" x1="1350.91" y1="47.0878" x2="1325.3" y2="46.2221" gradientUnits="userSpaceOnUse">
<stop stop-color="#87B2FF"/>
<stop offset="1" stop-color="#87B2FF"/>
</linearGradient>
<linearGradient id="paint57_linear_12563_74574" x1="1460.91" y1="59.2466" x2="1434.26" y2="58.4738" gradientUnits="userSpaceOnUse">
<stop stop-color="#87B3FF"/>
<stop offset="1" stop-color="#87B3FF"/>
</linearGradient>
<linearGradient id="paint58_linear_12563_74574" x1="1586" y1="26.5535" x2="1558.17" y2="25.8844" gradientUnits="userSpaceOnUse">
<stop stop-color="#86B3FF"/>
<stop offset="1" stop-color="#86B3FF"/>
</linearGradient>
<linearGradient id="paint59_linear_12563_74574" x1="1725.3" y1="39.1797" x2="1696.1" y2="38.6179" gradientUnits="userSpaceOnUse">
<stop stop-color="#85B4FF"/>
<stop offset="1" stop-color="#85B4FF"/>
</linearGradient>
<linearGradient id="paint60_linear_12563_74574" x1="1884.07" y1="-1.36166" x2="1853.31" y2="-1.80588" gradientUnits="userSpaceOnUse">
<stop stop-color="#85B5FF"/>
<stop offset="1" stop-color="#85B5FF"/>
</linearGradient>
<linearGradient id="paint61_linear_12563_74574" x1="2065.4" y1="10.9805" x2="2032.82" y2="10.6662" gradientUnits="userSpaceOnUse">
<stop stop-color="#84B5FF"/>
<stop offset="1" stop-color="#84B5FF"/>
</linearGradient>
<linearGradient id="paint62_linear_12563_74574" x1="2275.6" y1="25.0082" x2="2240.86" y2="24.8517" gradientUnits="userSpaceOnUse">
<stop stop-color="#83B6FF"/>
<stop offset="1" stop-color="#83B6FF"/>
</linearGradient>
<linearGradient id="paint63_linear_12563_74574" x1="2521.13" y1="-30.4092" x2="2483.86" y2="-30.3983" gradientUnits="userSpaceOnUse">
<stop stop-color="#83B6FF"/>
<stop offset="1" stop-color="#83B6FF"/>
</linearGradient>
<linearGradient id="paint64_linear_12563_74574" x1="2813.32" y1="-17.2932" x2="2772.98" y2="-17.081" gradientUnits="userSpaceOnUse">
<stop stop-color="#82B7FF"/>
<stop offset="1" stop-color="#82B7FF"/>
</linearGradient>
<linearGradient id="paint65_linear_12563_74574" x1="3164.33" y1="-91.1633" x2="3120.24" y2="-90.7274" gradientUnits="userSpaceOnUse">
<stop stop-color="#81B7FF"/>
<stop offset="1" stop-color="#81B7FF"/>
</linearGradient>
<linearGradient id="paint66_linear_12563_74574" x1="3599.19" y1="-82.2113" x2="3550.4" y2="-81.4865" gradientUnits="userSpaceOnUse">
<stop stop-color="#81B8FF"/>
<stop offset="1" stop-color="#81B8FF"/>
</linearGradient>
<linearGradient id="paint67_linear_12563_74574" x1="4149.09" y1="-70.0139" x2="4094.3" y2="-68.9273" gradientUnits="userSpaceOnUse">
<stop stop-color="#80B8FF"/>
<stop offset="1" stop-color="#80B8FF"/>
</linearGradient>
<linearGradient id="paint68_linear_12563_74574" x1="4861.13" y1="-191.239" x2="4798.46" y2="-189.707" gradientUnits="userSpaceOnUse">
<stop stop-color="#7FB9FF"/>
<stop offset="1" stop-color="#7FB9FF"/>
</linearGradient>
<linearGradient id="paint69_linear_12563_74574" x1="5836.98" y1="-195.529" x2="5763.44" y2="-193.352" gradientUnits="userSpaceOnUse">
<stop stop-color="#7FB9FF"/>
<stop offset="1" stop-color="#7FB9FF"/>
</linearGradient>
<linearGradient id="paint70_linear_12563_74574" x1="7239.65" y1="-405.797" x2="7150.27" y2="-402.706" gradientUnits="userSpaceOnUse">
<stop stop-color="#7EBAFF"/>
<stop offset="1" stop-color="#7EBAFF"/>
</linearGradient>
<linearGradient id="paint71_linear_12563_74574" x1="9435.41" y1="-471.855" x2="9321.22" y2="-467.356" gradientUnits="userSpaceOnUse">
<stop stop-color="#7DBAFF"/>
<stop offset="1" stop-color="#7DBAFF"/>
</linearGradient>
<linearGradient id="paint72_linear_12563_74574" x1="13429.3" y1="-584.034" x2="13269.6" y2="-576.975" gradientUnits="userSpaceOnUse">
<stop stop-color="#7DBBFF"/>
<stop offset="1" stop-color="#7DBBFF"/>
</linearGradient>
<linearGradient id="paint73_linear_12563_74574" x1="22638.5" y1="-1498.81" x2="22373.3" y2="-1485.77" gradientUnits="userSpaceOnUse">
<stop stop-color="#7CBBFF"/>
<stop offset="1" stop-color="#7CBBFF"/>
</linearGradient>
<linearGradient id="paint74_linear_12563_74574" x1="68918.5" y1="-6110.03" x2="68122.4" y2="-6055.33" gradientUnits="userSpaceOnUse">
<stop stop-color="#7BBCFF"/>
<stop offset="1" stop-color="#7BBCFF"/>
</linearGradient>
<linearGradient id="paint75_linear_12563_74574" x1="-68342.1" y1="3655.74" x2="-69129.2" y2="3713.89" gradientUnits="userSpaceOnUse">
<stop stop-color="#7BBCFF"/>
<stop offset="1" stop-color="#7BBCFF"/>
</linearGradient>
<linearGradient id="paint76_linear_12563_74574" x1="-23197.8" y1="1770.45" x2="-23462.7" y2="1787.36" gradientUnits="userSpaceOnUse">
<stop stop-color="#7ABDFF"/>
<stop offset="1" stop-color="#7ABDFF"/>
</linearGradient>
<linearGradient id="paint77_linear_12563_74574" x1="-14047.5" y1="1394.32" x2="-14206.7" y2="1405.28" gradientUnits="userSpaceOnUse">
<stop stop-color="#79BDFF"/>
<stop offset="1" stop-color="#79BDFF"/>
</linearGradient>
<linearGradient id="paint78_linear_12563_74574" x1="-10141.2" y1="940.22" x2="-10255.3" y2="948.621" gradientUnits="userSpaceOnUse">
<stop stop-color="#79BEFF"/>
<stop offset="1" stop-color="#79BEFF"/>
</linearGradient>
<linearGradient id="paint79_linear_12563_74574" x1="-7980.12" y1="690.714" x2="-8069.32" y2="697.731" gradientUnits="userSpaceOnUse">
<stop stop-color="#78BEFF"/>
<stop offset="1" stop-color="#78BEFF"/>
</linearGradient>
<linearGradient id="paint80_linear_12563_74574" x1="-6576.86" y1="721.129" x2="-6650.23" y2="727.269" gradientUnits="userSpaceOnUse">
<stop stop-color="#77BFFF"/>
<stop offset="1" stop-color="#77BFFF"/>
</linearGradient>
<linearGradient id="paint81_linear_12563_74574" x1="-5622.25" y1="579.59" x2="-5684.79" y2="585.116" gradientUnits="userSpaceOnUse">
<stop stop-color="#77BFFF"/>
<stop offset="1" stop-color="#77BFFF"/>
</linearGradient>
<linearGradient id="paint82_linear_12563_74574" x1="-4901.99" y1="620.037" x2="-4956.61" y2="625.138" gradientUnits="userSpaceOnUse">
<stop stop-color="#76C0FF"/>
<stop offset="1" stop-color="#76C0FF"/>
</linearGradient>
<linearGradient id="paint83_linear_12563_74574" x1="-4360.9" y1="522.518" x2="-4409.51" y2="527.293" gradientUnits="userSpaceOnUse">
<stop stop-color="#75C0FF"/>
<stop offset="1" stop-color="#75C0FF"/>
</linearGradient>
<linearGradient id="paint84_linear_12563_74574" x1="-3934.61" y1="446.676" x2="-3978.55" y2="451.214" gradientUnits="userSpaceOnUse">
<stop stop-color="#75C1FF"/>
<stop offset="1" stop-color="#75C1FF"/>
</linearGradient>
<linearGradient id="paint85_linear_12563_74574" x1="-3574.1" y1="490.551" x2="-3614.28" y2="494.902" gradientUnits="userSpaceOnUse">
<stop stop-color="#74C1FF"/>
<stop offset="1" stop-color="#74C1FF"/>
</linearGradient>
<linearGradient id="paint86_linear_12563_74574" x1="-3285.43" y1="428.793" x2="-3322.53" y2="432.992" gradientUnits="userSpaceOnUse">
<stop stop-color="#73C2FF"/>
<stop offset="1" stop-color="#73C2FF"/>
</linearGradient>
<linearGradient id="paint87_linear_12563_74574" x1="-3032.13" y1="469.212" x2="-3066.69" y2="473.291" gradientUnits="userSpaceOnUse">
<stop stop-color="#73C2FF"/>
<stop offset="1" stop-color="#73C2FF"/>
</linearGradient>
<linearGradient id="paint88_linear_12563_74574" x1="-2823" y1="418.118" x2="-2855.41" y2="422.108" gradientUnits="userSpaceOnUse">
<stop stop-color="#72C3FF"/>
<stop offset="1" stop-color="#72C3FF"/>
</linearGradient>
<linearGradient id="paint89_linear_12563_74574" x1="-2642.02" y1="373.134" x2="-2672.6" y2="377.048" gradientUnits="userSpaceOnUse">
<stop stop-color="#71C3FF"/>
<stop offset="1" stop-color="#71C3FF"/>
</linearGradient>
<linearGradient id="paint90_linear_12563_74574" x1="-2473.67" y1="411.098" x2="-2502.68" y2="414.959" gradientUnits="userSpaceOnUse">
<stop stop-color="#71C4FF"/>
<stop offset="1" stop-color="#71C4FF"/>
</linearGradient>
<linearGradient id="paint91_linear_12563_74574" x1="-2333.09" y1="371.578" x2="-2360.74" y2="375.393" gradientUnits="userSpaceOnUse">
<stop stop-color="#70C5FF"/>
<stop offset="1" stop-color="#70C5FF"/>
</linearGradient>
<linearGradient id="paint92_linear_12563_74574" x1="-2196.77" y1="405.587" x2="-2223.23" y2="409.373" gradientUnits="userSpaceOnUse">
<stop stop-color="#6FC5FF"/>
<stop offset="1" stop-color="#6FC5FF"/>
</linearGradient>
<linearGradient id="paint93_linear_12563_74574" x1="-2083.96" y1="370.127" x2="-2109.37" y2="373.887" gradientUnits="userSpaceOnUse">
<stop stop-color="#6FC6FF"/>
<stop offset="1" stop-color="#6FC6FF"/>
</linearGradient>
<linearGradient id="paint94_linear_12563_74574" x1="-1981.72" y1="337.889" x2="-2006.21" y2="341.634" gradientUnits="userSpaceOnUse">
<stop stop-color="#6EC6FF"/>
<stop offset="1" stop-color="#6EC6FF"/>
</linearGradient>
<linearGradient id="paint95_linear_12563_74574" x1="-1879.5" y1="369.773" x2="-1903.17" y2="373.509" gradientUnits="userSpaceOnUse">
<stop stop-color="#6DC7FF"/>
<stop offset="1" stop-color="#6DC7FF"/>
</linearGradient>
<linearGradient id="paint96_linear_12563_74574" x1="-1794.15" y1="340.144" x2="-1817.09" y2="343.877" gradientUnits="userSpaceOnUse">
<stop stop-color="#6CC7FF"/>
<stop offset="1" stop-color="#6CC7FF"/>
</linearGradient>
<linearGradient id="paint97_linear_12563_74574" x1="-1705.85" y1="369.654" x2="-1728.12" y2="373.394" gradientUnits="userSpaceOnUse">
<stop stop-color="#6CC8FF"/>
<stop offset="1" stop-color="#6CC8FF"/>
</linearGradient>
<linearGradient id="paint98_linear_12563_74574" x1="-1633.3" y1="342.537" x2="-1654.98" y2="346.286" gradientUnits="userSpaceOnUse">
<stop stop-color="#6BC8FF"/>
<stop offset="1" stop-color="#6BC8FF"/>
</linearGradient>
<linearGradient id="paint99_linear_12563_74574" x1="-1565.54" y1="316.784" x2="-1586.69" y2="320.546" gradientUnits="userSpaceOnUse">
<stop stop-color="#6AC9FF"/>
<stop offset="1" stop-color="#6AC9FF"/>
</linearGradient>
<linearGradient id="paint100_linear_12563_74574" x1="-1493.29" y1="344.427" x2="-1513.95" y2="348.205" gradientUnits="userSpaceOnUse">
<stop stop-color="#6AC9FF"/>
<stop offset="1" stop-color="#6AC9FF"/>
</linearGradient>
<linearGradient id="paint101_linear_12563_74574" x1="-1434.07" y1="320.127" x2="-1454.29" y2="323.924" gradientUnits="userSpaceOnUse">
<stop stop-color="#69CAFF"/>
<stop offset="1" stop-color="#69CAFF"/>
</linearGradient>
<linearGradient id="paint102_linear_12563_74574" x1="-1368.87" y1="345.709" x2="-1388.68" y2="349.529" gradientUnits="userSpaceOnUse">
<stop stop-color="#68CAFF"/>
<stop offset="1" stop-color="#68CAFF"/>
</linearGradient>
<linearGradient id="paint103_linear_12563_74574" x1="-1334.05" y1="326.796" x2="-1353.69" y2="330.683" gradientUnits="userSpaceOnUse">
<stop stop-color="#68CBFF"/>
<stop offset="1" stop-color="#68CBFF"/>
</linearGradient>
<linearGradient id="paint104_linear_12563_74574" x1="-1283.65" y1="304.827" x2="-1302.95" y2="308.742" gradientUnits="userSpaceOnUse">
<stop stop-color="#67CBFF"/>
<stop offset="1" stop-color="#67CBFF"/>
</linearGradient>
<linearGradient id="paint105_linear_12563_74574" x1="-1226.29" y1="328.974" x2="-1245.27" y2="332.923" gradientUnits="userSpaceOnUse">
<stop stop-color="#66CCFF"/>
<stop offset="1" stop-color="#66CCFF"/>
</linearGradient>
<linearGradient id="paint106_linear_12563_74574" x1="-1181.16" y1="308.085" x2="-1199.85" y2="312.064" gradientUnits="userSpaceOnUse">
<stop stop-color="#66CCFF"/>
<stop offset="1" stop-color="#66CCFF"/>
</linearGradient>
<linearGradient id="paint107_linear_12563_74574" x1="-1137.65" y1="287.879" x2="-1156.06" y2="291.892" gradientUnits="userSpaceOnUse">
<stop stop-color="#65CDFF"/>
<stop offset="1" stop-color="#65CDFF"/>
</linearGradient>
<linearGradient id="paint108_linear_12563_74574" x1="-1087.16" y1="310.579" x2="-1105.32" y2="314.627" gradientUnits="userSpaceOnUse">
<stop stop-color="#64CDFF"/>
<stop offset="1" stop-color="#64CDFF"/>
</linearGradient>
<linearGradient id="paint109_linear_12563_74574" x1="-1047.29" y1="291.024" x2="-1065.21" y2="295.109" gradientUnits="userSpaceOnUse">
<stop stop-color="#64CEFF"/>
<stop offset="1" stop-color="#64CEFF"/>
</linearGradient>
<linearGradient id="paint110_linear_12563_74574" x1="-1008.83" y1="272.094" x2="-1026.53" y2="276.22" gradientUnits="userSpaceOnUse">
<stop stop-color="#63CEFF"/>
<stop offset="1" stop-color="#63CEFF"/>
</linearGradient>
<linearGradient id="paint111_linear_12563_74574" x1="-962.8" y1="293.539" x2="-980.296" y2="297.702" gradientUnits="userSpaceOnUse">
<stop stop-color="#62CFFF"/>
<stop offset="1" stop-color="#62CFFF"/>
</linearGradient>
<linearGradient id="paint112_linear_12563_74574" x1="-927.174" y1="275.165" x2="-944.479" y2="279.372" gradientUnits="userSpaceOnUse">
<stop stop-color="#62CFFF"/>
<stop offset="1" stop-color="#62CFFF"/>
</linearGradient>
<linearGradient id="paint113_linear_12563_74574" x1="-882.523" y1="294.803" x2="-899.644" y2="299.053" gradientUnits="userSpaceOnUse">
<stop stop-color="#61D0FF"/>
<stop offset="1" stop-color="#61D0FF"/>
</linearGradient>
<linearGradient id="paint114_linear_12563_74574" x1="-849.704" y1="276.897" x2="-866.658" y2="281.186" gradientUnits="userSpaceOnUse">
<stop stop-color="#60D0FF"/>
<stop offset="1" stop-color="#60D0FF"/>
</linearGradient>
<linearGradient id="paint115_linear_12563_74574" x1="-816.913" y1="259.515" x2="-833.708" y2="263.854" gradientUnits="userSpaceOnUse">
<stop stop-color="#60D1FF"/>
<stop offset="1" stop-color="#60D1FF"/>
</linearGradient>
<linearGradient id="paint116_linear_12563_74574" x1="-789.528" y1="282.579" x2="-806.347" y2="287.008" gradientUnits="userSpaceOnUse">
<stop stop-color="#5FD1FF"/>
<stop offset="1" stop-color="#5FD1FF"/>
</linearGradient>
<linearGradient id="paint117_linear_12563_74574" x1="-758.888" y1="265.296" x2="-775.561" y2="269.77" gradientUnits="userSpaceOnUse">
<stop stop-color="#5ED2FF"/>
<stop offset="1" stop-color="#5ED2FF"/>
</linearGradient>
<linearGradient id="paint118_linear_12563_74574" x1="-728.495" y1="248.475" x2="-745.032" y2="252.998" gradientUnits="userSpaceOnUse">
<stop stop-color="#5ED2FF"/>
<stop offset="1" stop-color="#5ED2FF"/>
</linearGradient>
<linearGradient id="paint119_linear_12563_74574" x1="-699.383" y1="232.309" x2="-715.79" y2="236.879" gradientUnits="userSpaceOnUse">
<stop stop-color="#5DD3FF"/>
<stop offset="1" stop-color="#5DD3FF"/>
</linearGradient>
<linearGradient id="paint120_linear_12563_74574" x1="-661.097" y1="249.946" x2="-677.381" y2="254.564" gradientUnits="userSpaceOnUse">
<stop stop-color="#5CD4FF"/>
<stop offset="1" stop-color="#5CD4FF"/>
</linearGradient>
<linearGradient id="paint121_linear_12563_74574" x1="-633.219" y1="233.659" x2="-649.387" y2="238.325" gradientUnits="userSpaceOnUse">
<stop stop-color="#5CD4FF"/>
<stop offset="1" stop-color="#5CD4FF"/>
</linearGradient>
<linearGradient id="paint122_linear_12563_74574" x1="-605.781" y1="217.969" x2="-621.836" y2="222.684" gradientUnits="userSpaceOnUse">
<stop stop-color="#5BD5FF"/>
<stop offset="1" stop-color="#5BD5FF"/>
</linearGradient>
<linearGradient id="paint123_linear_12563_74574" x1="-569.08" y1="234.611" x2="-585.029" y2="239.376" gradientUnits="userSpaceOnUse">
<stop stop-color="#5AD5FF"/>
<stop offset="1" stop-color="#5AD5FF"/>
</linearGradient>
<linearGradient id="paint124_linear_12563_74574" x1="-542.657" y1="218.753" x2="-558.501" y2="223.568" gradientUnits="userSpaceOnUse">
<stop stop-color="#5AD6FF"/>
<stop offset="1" stop-color="#5AD6FF"/>
</linearGradient>
<linearGradient id="paint125_linear_12563_74574" x1="-528.525" y1="207.291" x2="-544.436" y2="212.208" gradientUnits="userSpaceOnUse">
<stop stop-color="#59D6FF"/>
<stop offset="1" stop-color="#59D6FF"/>
</linearGradient>
<linearGradient id="paint126_linear_12563_74574" x1="-492.777" y1="223.057" x2="-508.595" y2="228.026" gradientUnits="userSpaceOnUse">
<stop stop-color="#58D7FF"/>
<stop offset="1" stop-color="#58D7FF"/>
</linearGradient>
<linearGradient id="paint127_linear_12563_74574" x1="-467.743" y1="207.736" x2="-483.47" y2="212.754" gradientUnits="userSpaceOnUse">
<stop stop-color="#58D7FF"/>
<stop offset="1" stop-color="#58D7FF"/>
</linearGradient>
<linearGradient id="paint128_linear_12563_74574" x1="-442.818" y1="192.389" x2="-458.456" y2="197.459" gradientUnits="userSpaceOnUse">
<stop stop-color="#57D8FF"/>
<stop offset="1" stop-color="#57D8FF"/>
</linearGradient>
<linearGradient id="paint129_linear_12563_74574" x1="-418.087" y1="177.29" x2="-433.639" y2="182.413" gradientUnits="userSpaceOnUse">
<stop stop-color="#56D8FF"/>
<stop offset="1" stop-color="#56D8FF"/>
</linearGradient>
<linearGradient id="paint130_linear_12563_74574" x1="-384.187" y1="192.143" x2="-399.661" y2="197.318" gradientUnits="userSpaceOnUse">
<stop stop-color="#56D9FF"/>
<stop offset="1" stop-color="#56D9FF"/>
</linearGradient>
<linearGradient id="paint131_linear_12563_74574" x1="-360.421" y1="177.004" x2="-375.814" y2="182.229" gradientUnits="userSpaceOnUse">
<stop stop-color="#55D9FF"/>
<stop offset="1" stop-color="#55D9FF"/>
</linearGradient>
<linearGradient id="paint132_linear_12563_74574" x1="-336.532" y1="162.083" x2="-351.849" y2="167.362" gradientUnits="userSpaceOnUse">
<stop stop-color="#54DAFF"/>
<stop offset="1" stop-color="#54DAFF"/>
</linearGradient>
<linearGradient id="paint133_linear_12563_74574" x1="-313.137" y1="147.15" x2="-328.382" y2="152.481" gradientUnits="userSpaceOnUse">
<stop stop-color="#53DAFF"/>
<stop offset="1" stop-color="#53DAFF"/>
</linearGradient>
<linearGradient id="paint134_linear_12563_74574" x1="-290.653" y1="164.849" x2="-305.981" y2="170.29" gradientUnits="userSpaceOnUse">
<stop stop-color="#53DBFF"/>
<stop offset="1" stop-color="#53DBFF"/>
</linearGradient>
<linearGradient id="paint135_linear_12563_74574" x1="-267.512" y1="150.198" x2="-282.774" y2="155.694" gradientUnits="userSpaceOnUse">
<stop stop-color="#52DBFF"/>
<stop offset="1" stop-color="#52DBFF"/>
</linearGradient>
<linearGradient id="paint136_linear_12563_74574" x1="-245.099" y1="135.524" x2="-260.292" y2="141.072" gradientUnits="userSpaceOnUse">
<stop stop-color="#51DCFF"/>
<stop offset="1" stop-color="#51DCFF"/>
</linearGradient>
<linearGradient id="paint137_linear_12563_74574" x1="-222.318" y1="120.927" x2="-237.444" y2="126.527" gradientUnits="userSpaceOnUse">
<stop stop-color="#51DCFF"/>
<stop offset="1" stop-color="#51DCFF"/>
</linearGradient>
<linearGradient id="paint138_linear_12563_74574" x1="-190.018" y1="133.776" x2="-205.08" y2="139.431" gradientUnits="userSpaceOnUse">
<stop stop-color="#50DDFF"/>
<stop offset="1" stop-color="#50DDFF"/>
</linearGradient>
<linearGradient id="paint139_linear_12563_74574" x1="-167.827" y1="119.132" x2="-182.826" y2="124.84" gradientUnits="userSpaceOnUse">
<stop stop-color="#4FDDFF"/>
<stop offset="1" stop-color="#4FDDFF"/>
</linearGradient>
<linearGradient id="paint140_linear_12563_74574" x1="-146.051" y1="104.559" x2="-160.992" y2="110.322" gradientUnits="userSpaceOnUse">
<stop stop-color="#4FDEFF"/>
<stop offset="1" stop-color="#4FDEFF"/>
</linearGradient>
<linearGradient id="paint141_linear_12563_74574" x1="-134.255" y1="94.3942" x2="-149.284" y2="100.267" gradientUnits="userSpaceOnUse">
<stop stop-color="#4EDEFF"/>
<stop offset="1" stop-color="#4EDEFF"/>
</linearGradient>
<linearGradient id="paint142_linear_12563_74574" x1="-102.279" y1="106.104" x2="-117.251" y2="112.032" gradientUnits="userSpaceOnUse">
<stop stop-color="#4DDFFF"/>
<stop offset="1" stop-color="#4DDFFF"/>
</linearGradient>
<linearGradient id="paint143_linear_12563_74574" x1="-80.4781" y1="91.7329" x2="-95.394" y2="97.7171" gradientUnits="userSpaceOnUse">
<stop stop-color="#4DDFFF"/>
<stop offset="1" stop-color="#4DDFFF"/>
</linearGradient>
<linearGradient id="paint144_linear_12563_74574" x1="-59.0113" y1="77.2696" x2="-73.8685" y2="83.3084" gradientUnits="userSpaceOnUse">
<stop stop-color="#4CE0FF"/>
<stop offset="1" stop-color="#4CE0FF"/>
</linearGradient>
<linearGradient id="paint145_linear_12563_74574" x1="-37.8066" y1="62.8186" x2="-52.6091" y2="68.9101" gradientUnits="userSpaceOnUse">
<stop stop-color="#4BE0FF"/>
<stop offset="1" stop-color="#4BE0FF"/>
</linearGradient>
<linearGradient id="paint146_linear_12563_74574" x1="-16.6675" y1="48.6672" x2="-31.4152" y2="54.8113" gradientUnits="userSpaceOnUse">
<stop stop-color="#4BE1FF"/>
<stop offset="1" stop-color="#4BE1FF"/>
</linearGradient>
<linearGradient id="paint147_linear_12563_74574" x1="-5.09962" y1="38.5614" x2="-19.943" y2="44.8242" gradientUnits="userSpaceOnUse">
<stop stop-color="#4AE1FF"/>
<stop offset="1" stop-color="#4AE1FF"/>
</linearGradient>
<linearGradient id="paint148_linear_12563_74574" x1="26.444" y1="48.9438" x2="11.6531" y2="55.2604" gradientUnits="userSpaceOnUse">
<stop stop-color="#49E2FF"/>
<stop offset="1" stop-color="#49E2FF"/>
</linearGradient>
<linearGradient id="paint149_linear_12563_74574" x1="46.783" y1="34.7638" x2="32.0437" y2="41.1312" gradientUnits="userSpaceOnUse">
<stop stop-color="#49E2FF"/>
<stop offset="1" stop-color="#49E2FF"/>
</linearGradient>
<linearGradient id="paint150_linear_12563_74574" x1="67.7492" y1="20.3497" x2="53.0605" y2="26.7742" gradientUnits="userSpaceOnUse">
<stop stop-color="#48E3FF"/>
<stop offset="1" stop-color="#48E3FF"/>
</linearGradient>
<clipPath id="clip0_12563_74574">
<rect width="61" height="42" fill="white" transform="translate(58.3496 57.9612) rotate(-163.048)"/>
</clipPath>
</defs>
</svg>
