<svg width="70" height="64" viewBox="0 0 70 64" fill="none" xmlns="http://www.w3.org/2000/svg">
<g clip-path="url(#clip0_12563_74039)">
<path d="M7.85449 1.59998V64H61.026V12L50.4646 1.59998H7.85449Z" fill="#5284E9"/>
<path d="M61.0462 12L50.4648 1.59998V12H61.0462Z" fill="#6D9CFA"/>
<path d="M0 0V64H54.5349V17.4684L36.8169 0H0Z" fill="#6D9CFA"/>
<path d="M54.5354 17.4684L36.8174 0V17.4684H54.5354Z" fill="#A8C4FD"/>
<path d="M36 26H9V32H36V26Z" fill="white"/>
<path d="M41.5113 36.8H8.95312V42.4H41.5113V36.8Z" fill="white"/>
<path d="M41.5113 47.2H8.95312V52.8H41.5113V47.2Z" fill="white"/>
<path d="M25.2322 11.2H8.95312V16.8H25.2322V11.2Z" fill="white"/>
<path d="M57.1294 49.3C64.2377 49.3 70.0001 43.6364 70.0001 36.65C70.0001 29.6636 64.2377 24 57.1294 24C50.0212 24 44.2588 29.6636 44.2588 36.65C44.2588 43.6364 50.0212 49.3 57.1294 49.3Z" fill="#A8C4FD"/>
<path d="M45.4292 49.3C52.5375 49.3 58.2999 43.6364 58.2999 36.65C58.2999 29.6636 52.5375 24 45.4292 24C38.321 24 32.5586 29.6636 32.5586 36.65C32.5586 43.6364 38.321 49.3 45.4292 49.3Z" fill="#2B3F64"/>
<path d="M44.3011 42.4L38.7988 37.0322L41.2605 34.6286L44.3011 37.5949L50.3779 31.6666L52.8395 34.0702L44.3011 42.4Z" fill="white"/>
</g>
<defs>
<clipPath id="clip0_12563_74039">
<rect width="70" height="64" fill="white"/>
</clipPath>
</defs>
</svg>
