<svg width="70" height="64" viewBox="0 0 70 64" fill="none" xmlns="http://www.w3.org/2000/svg">
<g clip-path="url(#clip0_12563_74026)">
<path d="M64.302 4.80005H8.95312V64H64.302V4.80005Z" fill="#6D9CFA"/>
<path d="M57.4919 0H0V64H57.4919V0Z" fill="#5284E9"/>
<path d="M36.4572 53.3993C42.4197 47.5447 42.4197 38.0527 36.4572 32.1981C30.4948 26.3436 20.8278 26.3436 14.8653 32.1981C8.90285 38.0527 8.90286 47.5447 14.8653 53.3993C20.8278 59.2538 30.4948 59.2538 36.4572 53.3993Z" fill="#A8C4FD"/>
<path d="M8.64729 44.1678C8.63326 44.03 8.62274 43.8887 8.61222 43.7475C8.61222 43.7139 8.60871 43.6802 8.60521 43.6466C8.59819 43.5255 8.59118 43.4078 8.58767 43.2868C8.58767 43.2498 8.58767 43.2094 8.58416 43.1724C8.58066 43.0177 8.57715 42.8664 8.57715 42.7117C8.57715 33.8438 16.0754 26.6573 25.3202 26.6573V42.7117L13.2907 53.8731C10.7095 51.3173 9.00502 47.941 8.64729 44.1914C8.64729 44.1847 8.64729 44.1746 8.64729 44.1678Z" fill="#6D9CFA"/>
<path d="M70 28V51.3545H43.793V43.0322L37.4414 39.9893L43.793 36.5566V28H70Z" fill="#2B3F64"/>
<path d="M55.3928 45.6L49.6514 39.9989L52.22 37.4908L55.3928 40.5861L61.7339 34.4L64.3025 36.9081L55.3928 45.6Z" fill="white"/>
<path d="M32.3252 11H7.3252V18H32.3252V11Z" fill="white"/>
<path d="M46 11H34V18H46V11Z" fill="white"/>
</g>
<defs>
<clipPath id="clip0_12563_74026">
<rect width="70" height="64" fill="white"/>
</clipPath>
</defs>
</svg>
