<svg width="1920" height="145" viewBox="0 0 1920 145" fill="none" xmlns="http://www.w3.org/2000/svg">
<path d="M0.0791016 126.724C117.88 118.735 130.21 11.9796 272.733 11.9796C450.887 11.9796 596.336 152.166 714.618 143.404C872.483 131.711 957.013 -38.4698 1149.46 101.811C1316.78 223.767 1437.22 -21.2821 1602.23 2.08224C1767.24 25.4466 1766.7 143.433 1920.03 126.756" stroke="#D8E5FD"/>
<path d="M1.96582 39.4681C89.2353 8.06559 176.997 -6.89409 300.66 74.8839C341.689 102.016 474.559 148.326 585.885 120.759C690.6 94.8296 716.529 16.0437 837.201 25.0193C891.353 29.0471 1019.7 115.773 1139.38 108.792C1259.05 101.811 1333.85 -4.89914 1475.47 65.9083C1565.78 111.065 1663.63 127.13 1760.21 99.7488C1815.07 84.1958 1879.66 53.8389 1919.56 40.2352" stroke="#CDD1D5" stroke-dasharray="4 4"/>
<path d="M-0.0292969 86.9998C46.8883 100.637 129.322 69.0174 179.515 76.6939C229.707 84.3704 266.26 123.845 328.353 116.611C452.792 102.113 432.944 44.4263 551.55 44.4263C669.226 44.4263 680.115 140.004 840.905 125.745C932.269 117.643 992.493 14.0492 1104.19 19.0356C1215.89 24.0221 1248.52 98.1487 1415.87 115.602C1583.21 133.055 1656.52 -19.7057 1865.35 66.0443C1865.35 66.0443 1912.23 85.028 1920.03 86.9938" stroke="#B1CEFB" stroke-width="2"/>
</svg>
