<svg width="272" height="179" viewBox="0 0 272 179" fill="none" xmlns="http://www.w3.org/2000/svg">
<g clip-path="url(#clip0_12563_74054)">
<path d="M193.774 116.436C200.592 115.152 205.076 108.594 203.789 101.789C202.502 94.9847 195.931 90.5097 189.113 91.7943C182.295 93.0788 177.811 99.6364 179.098 106.441C180.385 113.246 186.956 117.721 193.774 116.436Z" fill="url(#paint0_linear_12563_74054)"/>
<path d="M245.289 137.743C246.032 130.858 241.043 124.675 234.144 123.933C227.245 123.191 221.05 128.171 220.307 135.056C219.564 141.941 224.553 148.124 231.452 148.866C238.351 149.608 244.546 144.628 245.289 137.743Z" fill="url(#paint1_linear_12563_74054)"/>
<path d="M199.186 94.2426L183.704 113.991L225.056 146.281L240.538 126.533L199.186 94.2426Z" fill="url(#paint2_linear_12563_74054)"/>
<path d="M181.356 44.3635C182.78 53.8743 175.097 64.3262 163.939 65.9908C152.781 67.6555 142.371 59.8985 140.948 50.3903C139.524 40.8796 147.625 33.2169 158.783 31.5549C169.941 29.8903 179.933 34.8554 181.356 44.3662V44.3635Z" fill="url(#paint3_linear_12563_74054)"/>
<path d="M171.742 86.7715H152.426L151.885 62.6774H171.201L171.742 86.7715Z" fill="url(#paint4_linear_12563_74054)"/>
<path style="mix-blend-mode:multiply" d="M152.043 69.7133C152.043 69.7133 157.21 80.582 171.528 79.9607L171.501 76.0652L152.043 69.7107V69.7133Z" fill="url(#paint5_linear_12563_74054)"/>
<path d="M169.773 77.0299C160.22 78.4533 148.424 73.5197 146.821 62.8004L145.645 54.9464C144.389 46.5602 150.184 38.7456 158.586 37.4925L162.757 36.8712C171.16 35.6181 178.99 41.4011 180.246 49.7873L181.423 57.6413C182.849 67.1783 178.37 75.748 169.776 77.0299H169.773Z" fill="url(#paint6_linear_12563_74054)"/>
<path d="M173.136 53.5387C173.33 54.8311 174.323 55.7539 175.353 55.6018C176.382 55.4472 177.063 54.2753 176.868 52.9829C176.674 51.6906 175.684 50.7678 174.651 50.9198C173.622 51.0745 172.941 52.2463 173.136 53.5387Z" fill="url(#paint7_radial_12563_74054)"/>
<path d="M163.813 54.9281C164.008 56.2205 165.001 57.1433 166.03 56.9912C167.06 56.8366 167.74 55.6648 167.546 54.3724C167.352 53.08 166.359 52.1572 165.329 52.3092C164.299 52.4639 163.619 53.6357 163.813 54.9281Z" fill="url(#paint8_radial_12563_74054)"/>
<path d="M152.408 63.06C151.93 66.7458 148.61 68.8089 144.995 67.6686C141.381 66.5282 138.838 62.617 139.317 58.9311C139.795 55.2453 143.115 53.1822 146.729 54.3226C150.343 55.4629 152.886 59.3742 152.408 63.06Z" fill="url(#paint9_linear_12563_74054)"/>
<path style="mix-blend-mode:multiply" d="M148.878 63.9251C148.786 66.059 147.047 67.1103 144.998 66.2766C142.947 65.443 141.363 63.0365 141.455 60.9052C141.547 58.7713 143.286 57.7201 145.335 58.5537C147.383 59.3873 148.97 61.7939 148.878 63.9251Z" fill="url(#paint10_radial_12563_74054)"/>
<path d="M172.636 56.3279C172.704 56.7893 172.386 57.2192 171.924 57.2874C171.461 57.3555 171.031 57.0383 170.962 56.577C170.894 56.1156 171.212 55.6857 171.674 55.6175C172.136 55.5493 172.567 55.8665 172.636 56.3279Z" fill="#FC7878"/>
<path d="M165.021 61.1332C164.885 61.1542 164.788 61.2826 164.814 61.419C165.405 64.4756 168.313 66.5518 171.428 66.0878C174.543 65.6238 176.715 62.79 176.387 59.694C176.371 59.5551 176.243 59.4607 176.103 59.4817L165.019 61.1332H165.021Z" fill="url(#paint11_linear_12563_74054)"/>
<mask id="mask0_12563_74054" style="mask-type:luminance" maskUnits="userSpaceOnUse" x="164" y="59" width="13" height="8">
<path d="M165.021 61.1332C164.885 61.1542 164.788 61.2826 164.814 61.419C165.405 64.4756 168.313 66.5518 171.428 66.0878C174.543 65.6238 176.715 62.79 176.387 59.694C176.371 59.5551 176.243 59.4607 176.103 59.4817L165.019 61.1332H165.021Z" fill="white"/>
</mask>
<g mask="url(#mask0_12563_74054)">
<path d="M176.33 59.2878C176.521 60.5645 174.084 61.9853 170.887 62.4624C167.69 62.9395 164.945 62.292 164.754 61.0154C164.562 59.7387 167 58.3179 170.196 57.8407C173.393 57.3636 176.138 58.0111 176.33 59.2878Z" fill="white"/>
</g>
<path d="M166.831 35.3717L160.196 34.0138L150.092 39.3695L143.538 48.702L145.534 54.0577C145.534 54.0577 145.553 54.0577 145.561 54.0577C147.118 54.0341 148.579 54.8101 149.409 56.1261L151.171 58.9127L151.053 53.6986C171.123 51.2318 168.917 37.1989 168.917 37.1989L166.831 35.3743V35.3717Z" fill="url(#paint12_linear_12563_74054)"/>
<path d="M167.747 34.2235C168.703 35.2826 169.352 36.575 169.82 37.9198C170.274 39.2699 170.508 40.7065 170.508 42.1509C170.497 42.5127 170.516 42.8718 170.466 43.2336L170.335 44.311C170.261 44.6649 170.177 45.0188 170.085 45.3675C170.038 45.5405 170.004 45.7188 169.943 45.8892L169.749 46.3951C169.273 47.7557 168.443 48.9694 167.461 49.9761C167.795 48.5867 168.204 47.331 168.378 46.0229C168.441 45.703 168.498 45.3832 168.522 45.0555C168.551 44.7305 168.601 44.4106 168.632 44.0908C168.653 43.4433 168.724 42.801 168.701 42.1535C168.701 40.8611 168.614 39.5609 168.441 38.2475C168.267 36.9315 168.028 35.6129 167.747 34.2288V34.2235Z" fill="url(#paint13_linear_12563_74054)"/>
<path d="M146.997 91.4586L128.334 98.7359L122.831 116.609L138.061 151.111H210.596L208.133 136.205C206.417 125.837 203.654 115.671 199.879 105.864L194.526 91.9541L176.515 87.8777L146.997 91.4586Z" fill="url(#paint14_linear_12563_74054)"/>
<path d="M180.321 88.7401L189.932 101.129L184.561 112.465L191.445 120.03L181.761 140.315V123.782L180.321 88.7401Z" fill="url(#paint15_linear_12563_74054)"/>
<path d="M143.064 92.9896L181.761 123.782L180.321 88.7402L176.515 87.8777L146.997 91.4586L143.064 92.9896Z" fill="white"/>
<path d="M143.185 118.162C147.648 112.859 146.958 104.95 141.645 100.496C136.333 96.0422 128.408 96.73 123.945 102.032C119.482 107.335 120.171 115.244 125.484 119.698C130.797 124.152 138.722 123.464 143.185 118.162Z" fill="url(#paint16_linear_12563_74054)"/>
<path d="M161.801 168.111C167.138 163.686 167.871 155.781 163.437 150.454C159.002 145.128 151.082 144.397 145.745 148.822C140.408 153.248 139.676 161.153 144.11 166.479C148.544 171.806 156.464 172.537 161.801 168.111Z" fill="url(#paint17_linear_12563_74054)"/>
<path d="M145.159 105.27L121.971 114.922L142.182 163.285L165.37 153.633L145.159 105.27Z" fill="url(#paint18_linear_12563_74054)"/>
<path d="M172.149 96.429L180.513 108.079L176.515 87.8777L172.149 96.429Z" fill="#E0E7FF"/>
<path d="M146.996 91.4586L169.192 111.109L170.92 103.774L172.149 96.429L146.996 91.4586Z" fill="#E0E7FF"/>
<path d="M172.149 96.4291L167.534 102.099L175.073 105.83L176.961 99.6535L172.149 96.4291Z" fill="url(#paint19_linear_12563_74054)"/>
<path d="M153.834 170.887C160.773 170.887 166.397 165.274 166.397 158.349C166.397 151.424 160.773 145.81 153.834 145.81C146.895 145.81 141.271 151.424 141.271 158.349C141.271 165.274 146.895 170.887 153.834 170.887Z" fill="url(#paint20_linear_12563_74054)"/>
<path d="M156.665 170.565L199.522 160.619L193.767 136.218L151.002 146.135L156.665 170.565Z" fill="url(#paint21_linear_12563_74054)"/>
<path d="M152.342 83.0699L172.15 96.429C172.15 96.429 167.167 101.866 168.412 108.079L146.994 91.456L152.342 83.0673V83.0699Z" fill="white"/>
<path d="M171.742 83.0699L172.152 96.4291C172.152 96.4291 175.112 98.1252 178.85 104.448L176.517 87.8778L171.745 83.0699H171.742Z" fill="white"/>
<path d="M152.342 83.0698L172.15 96.429L171.742 83.0698H152.342Z" fill="url(#paint22_linear_12563_74054)"/>
<path d="M199.535 143.364C197.284 137.198 194.114 134.472 192.451 137.272C190.789 140.072 191.264 147.338 193.513 153.502C195.764 159.667 198.934 162.394 200.597 159.594C202.259 156.794 201.784 149.527 199.535 143.364Z" fill="url(#paint23_linear_12563_74054)"/>
<path d="M238.563 147.491C244.743 144.341 247.194 136.789 244.039 130.621C240.883 124.454 233.316 122.007 227.136 125.156C220.957 128.306 218.505 135.858 221.661 142.026C224.816 148.193 232.384 150.64 238.563 147.491Z" fill="url(#paint24_linear_12563_74054)"/>
<path d="M245.136 138.942L254.159 96.1825L229.684 90.6093L220.566 133.701L245.136 138.942Z" fill="url(#paint25_linear_12563_74054)"/>
<path d="M238.557 88.6616C232.009 88.0796 228.187 89.7862 230.021 92.4785C231.854 95.1707 238.649 97.8237 245.198 98.4083C251.746 98.9902 255.568 97.2836 253.734 94.5914C251.901 91.8991 245.106 89.2462 238.557 88.6616Z" fill="url(#paint26_linear_12563_74054)"/>
<path d="M173.628 102.099L174.503 118.004L181.763 123.779L181.421 115.456C181.421 115.456 178.69 107.922 173.631 102.097L173.628 102.099Z" fill="url(#paint27_linear_12563_74054)"/>
<g style="mix-blend-mode:multiply">
<path d="M207.481 132.551C207.481 132.551 204.505 118.261 201.435 110.095C201.435 110.095 209.575 123.097 213.412 137.183L207.481 132.553V132.551Z" fill="#B3B3BB"/>
</g>
<g style="mix-blend-mode:multiply">
<path d="M224.728 114.182L222.017 126.904L220.305 110.727L224.728 114.182Z" fill="#B3B3BB"/>
</g>
<path d="M143.064 92.9896L148.722 108.624L158.178 110.727L164.133 122.636L181.761 127.499V123.782L143.064 92.9896Z" fill="url(#paint28_linear_12563_74054)"/>
<mask id="mask1_12563_74054" style="mask-type:luminance" maskUnits="userSpaceOnUse" x="229" y="53" width="44" height="46">
<path d="M253.735 94.5913C255.568 97.2836 251.746 98.9902 245.198 98.4082C238.65 97.8263 231.854 95.1707 230.021 92.4784C229.546 91.7811 229.451 91.152 229.682 90.6093L235.695 56.0816L272.001 53.1718V86.7714L253.732 94.5913H253.735Z" fill="white"/>
</mask>
<g mask="url(#mask1_12563_74054)">
<path d="M248.037 70.1852C247.874 71.2312 248.828 72.1094 249.86 71.8603L253.443 70.9952L258.097 83.0803L250.553 84.9022L247.278 106.658L231.224 101.174C231.224 101.174 237.144 77.0561 241.005 70.9874L248.037 70.1852Z" fill="url(#paint29_linear_12563_74054)"/>
<path style="mix-blend-mode:multiply" d="M249.859 71.8576L248.218 79.8113L256.944 79.0327L253.442 70.9926L249.859 71.8576Z" fill="url(#paint30_linear_12563_74054)"/>
<path d="M242.059 74.4609C240.775 73.6483 240.305 72.0937 241.006 70.9875L246.149 62.9002C246.85 61.7939 248.463 61.5579 249.745 62.3706C251.029 63.1833 251.499 64.7378 250.798 65.8441L245.655 73.9314C244.954 75.0377 243.341 75.2736 242.059 74.4609Z" fill="url(#paint31_linear_12563_74054)"/>
<path d="M245.815 83.2192C245.458 81.7433 246.201 80.2988 247.475 79.9921L256.803 77.7376C258.077 77.4309 259.4 78.3747 259.758 79.8506C260.115 81.3265 259.371 82.7709 258.098 83.0776L248.77 85.3321C247.496 85.6388 246.172 84.6951 245.815 83.2192Z" fill="url(#paint32_linear_12563_74054)"/>
<path d="M266.726 58.842C268.11 59.4686 268.795 60.9418 268.254 62.1346L264.296 70.8616C263.755 72.0543 262.194 72.5131 260.808 71.8866C259.423 71.26 258.738 69.7868 259.279 68.594L263.237 59.867C263.778 58.6742 265.339 58.2155 266.726 58.842Z" fill="url(#paint33_linear_12563_74054)"/>
<path d="M260.057 60.5224C261.57 60.3835 262.896 61.3246 263.017 62.6275L263.905 72.1644C264.026 73.4673 262.896 74.6391 261.383 74.7781C259.87 74.917 258.544 73.9759 258.423 72.673L257.535 63.136C257.414 61.8331 258.544 60.6613 260.057 60.5224Z" fill="url(#paint34_linear_12563_74054)"/>
<path d="M258.05 64.6146C259.563 64.4756 260.889 65.4167 261.01 66.7196L261.898 76.2566C262.019 77.5595 260.889 78.7313 259.376 78.8702C257.864 79.0092 256.537 78.0681 256.416 76.7652L255.528 67.2282C255.408 65.9253 256.537 64.7535 258.05 64.6146Z" fill="url(#paint35_linear_12563_74054)"/>
<path d="M256.046 68.7066C257.559 68.5677 258.886 69.5088 259.006 70.8117L259.894 80.3486C260.015 81.6515 258.886 82.8233 257.373 82.9623C255.86 83.1012 254.533 82.1601 254.412 80.8572L253.524 71.3202C253.404 70.0173 254.533 68.8455 256.046 68.7066Z" fill="url(#paint36_linear_12563_74054)"/>
<path d="M257.784 64.313C259.189 64.2344 260.75 64.9657 261.259 66.3499C261.272 66.3866 261.375 66.6514 261.372 66.6828C261.732 69.3017 261.982 71.9415 261.877 74.5892C261.359 72.6677 261.07 70.7042 260.839 68.7328C260.786 68.1587 260.668 67.1966 260.663 66.8139C260.361 65.4455 259.09 64.6774 257.784 64.3156V64.313Z" fill="#FC7878"/>
<path d="M259.957 79.0983C259.439 77.1767 259.153 75.2106 258.919 73.2419C258.859 72.6677 258.749 71.703 258.743 71.3229C258.441 69.9545 257.17 69.1864 255.867 68.8246C256.23 68.801 256.597 68.8404 256.96 68.9243C257.803 69.1051 258.591 69.5927 259.08 70.3241C259.224 70.5653 259.361 70.8746 259.447 71.1447C259.818 73.7793 260.059 76.4374 259.96 79.1009L259.957 79.0983Z" fill="#FC7878"/>
<path d="M253.86 74.9406C253.86 74.9406 253.999 78.414 252.14 78.8649L255.525 78.047L253.857 74.9406H253.86Z" fill="url(#paint37_linear_12563_74054)"/>
<g style="mix-blend-mode:multiply">
<path d="M233.055 94.1429C231.949 98.2299 231.227 101.174 231.227 101.174L247.281 106.658L249.08 94.6961C248.783 94.759 248.481 94.8167 248.171 94.8743C242.632 95.86 236.551 95.5035 233.055 94.1429Z" fill="#FFDFDF"/>
</g>
</g>
<mask id="mask2_12563_74054" style="mask-type:luminance" maskUnits="userSpaceOnUse" x="191" y="120" width="54" height="45">
<path d="M200.597 159.615C198.931 162.415 195.761 159.683 193.515 153.517C191.267 147.351 190.796 140.085 192.459 137.285L211.064 120.4L244.601 129.431L232.718 164.349L200.597 159.612V159.615Z" fill="white"/>
</mask>
<g mask="url(#mask2_12563_74054)">
<path d="M174.207 162.488L170.088 145.629L193.599 140.315C194.235 140.171 194.829 139.878 195.328 139.461L200.368 135.235L204.374 154.039L198.193 154.87L174.207 162.485V162.488Z" fill="url(#paint38_linear_12563_74054)"/>
<path d="M200.439 138.782C199.446 137.678 199.64 135.89 200.872 134.787L209.884 126.718C211.116 125.614 212.918 125.617 213.911 126.72C214.904 127.824 214.71 129.612 213.478 130.716L204.466 138.785C203.234 139.888 201.432 139.886 200.439 138.782Z" fill="url(#paint39_linear_12563_74054)"/>
<path d="M198.215 148.484L200.369 135.238L212.638 134.415L215.48 152.283L204.377 154.042C203.426 154.191 202.496 154.086 201.653 153.777C199.478 152.975 198.125 150.796 198.217 148.487L198.215 148.484Z" fill="url(#paint40_linear_12563_74054)"/>
<path d="M210.683 149.957C210.547 148.481 211.637 147.173 213.116 147.037L223.496 146.08C224.975 145.944 226.286 147.032 226.423 148.508C226.559 149.984 225.469 151.292 223.99 151.428L213.61 152.385C212.131 152.521 210.82 151.433 210.683 149.957Z" fill="url(#paint41_linear_12563_74054)"/>
<path d="M211.366 145.839C211.229 144.363 212.477 143.039 214.153 142.885L225.904 141.802C227.58 141.647 229.049 142.719 229.185 144.195C229.322 145.671 228.074 146.995 226.398 147.15L214.646 148.232C212.971 148.387 211.502 147.315 211.366 145.839Z" fill="url(#paint42_linear_12563_74054)"/>
<path d="M211.506 141.327C211.369 139.851 212.724 138.517 214.534 138.352L227.226 137.183C229.036 137.015 230.612 138.079 230.749 139.555C230.885 141.031 229.53 142.366 227.72 142.531L215.028 143.7C213.218 143.868 211.642 142.803 211.506 141.327Z" fill="url(#paint43_linear_12563_74054)"/>
<path d="M209.748 137.589C209.515 136.124 210.736 134.713 212.472 134.438L224.665 132.506C226.404 132.231 228.001 133.196 228.232 134.661C228.466 136.126 227.245 137.537 225.508 137.812L213.315 139.744C211.577 140.019 209.98 139.055 209.748 137.589Z" fill="url(#paint44_linear_12563_74054)"/>
<path d="M227.226 137.183C223.278 139.325 217.767 140.769 213.317 139.741C218.006 139.644 222.708 138.342 227.226 137.183Z" fill="#FC7878"/>
<path d="M228.432 142.04C224.355 143.925 218.763 145.018 214.387 143.71C219.073 143.912 223.848 142.911 228.432 142.04Z" fill="#FC7878"/>
<path d="M226.351 147.163C223.063 148.793 218.54 149.677 214.988 148.513C218.844 148.565 222.564 147.774 226.351 147.163Z" fill="#FC7878"/>
<g style="mix-blend-mode:multiply">
<path d="M192.691 140.522L170.091 145.629L174.209 162.488L197.361 155.137C197.132 154.768 196.904 154.38 196.678 153.973C194.164 149.449 192.636 144.075 192.693 140.522H192.691Z" fill="#FFDFDF"/>
</g>
</g>
<g style="mix-blend-mode:multiply">
<path d="M185.659 138.475C183.818 143.498 186.786 155.297 189.675 159.759C190.245 160.627 190.907 161.505 191.924 161.875C189.82 161.628 188.259 159.109 187.306 157.415C185.031 153.059 183.936 148.051 184.243 143.144C184.403 141.529 184.682 139.815 185.656 138.473L185.659 138.475Z" fill="#B6B6B9"/>
</g>
<g style="mix-blend-mode:multiply">
<path d="M228.642 97.5641C232.369 101.392 244.328 103.845 249.603 103.177C250.632 103.04 251.714 102.825 252.487 102.07C251.352 103.856 248.402 104.168 246.461 104.291C241.541 104.448 236.545 103.263 232.248 100.859C230.859 100.013 229.432 99.0217 228.642 97.5615V97.5641Z" fill="#B6B6B9"/>
</g>
<path d="M241.084 27.468C239.97 25.8243 238.41 24.4454 236.43 23.4755L240.984 30.2022C242.965 31.1722 244.525 32.5511 245.639 34.1947L241.084 27.468Z" fill="#0093D9"/>
<path d="M218.003 52.3119C217.917 52.173 217.833 52.034 217.754 51.8898C217.751 51.8846 217.746 51.8793 217.743 51.8715C217.659 51.7221 217.581 51.5726 217.504 51.4206C217.483 51.376 217.462 51.3341 217.441 51.2895C217.386 51.1742 217.331 51.0614 217.278 50.9461C217.252 50.8884 217.229 50.8281 217.202 50.7678C217.158 50.6656 217.116 50.5607 217.074 50.4585C217.05 50.3982 217.026 50.3379 217.003 50.275C216.955 50.1518 216.911 50.0259 216.869 49.9001C216.85 49.8477 216.832 49.7953 216.816 49.7402C216.758 49.5619 216.706 49.3837 216.656 49.2054C216.656 49.2002 216.656 49.1949 216.653 49.1897C216.601 48.9931 216.554 48.7965 216.512 48.5972C216.501 48.5422 216.488 48.4898 216.477 48.4347C216.441 48.2538 216.406 48.0729 216.38 47.8894C216.375 47.8632 216.372 47.837 216.367 47.8108C216.328 47.5513 216.299 47.2891 216.278 47.027C216.275 46.9876 216.27 46.9457 216.267 46.9064C216.249 46.6521 216.236 46.3926 216.23 46.133C216.23 46.0649 216.23 45.9993 216.23 45.9312C216.23 45.8525 216.23 45.7739 216.23 45.6952C216.23 45.6087 216.233 45.5222 216.238 45.4357C216.241 45.3571 216.244 45.2784 216.249 45.1998C216.254 45.1133 216.259 45.0241 216.265 44.9376C216.27 44.859 216.275 44.7803 216.283 44.7017C216.291 44.6126 216.299 44.5261 216.309 44.4369C216.317 44.3583 216.325 44.2796 216.336 44.201C216.346 44.1119 216.359 44.0227 216.372 43.9336C216.383 43.855 216.396 43.7763 216.409 43.695C216.422 43.6059 216.441 43.5168 216.456 43.4277C216.469 43.349 216.485 43.2677 216.501 43.1891C216.519 43.1 216.538 43.0108 216.559 42.9217C216.577 42.8431 216.593 42.7644 216.611 42.6831C216.632 42.5914 216.656 42.5023 216.68 42.4105C216.701 42.3319 216.719 42.2532 216.74 42.1772C216.764 42.0854 216.793 41.9937 216.819 41.9019C216.842 41.8233 216.863 41.7473 216.887 41.6686C216.916 41.5769 216.948 41.4825 216.976 41.3907C217.003 41.3147 217.026 41.2387 217.053 41.1627C217.084 41.0683 217.121 40.9739 217.155 40.8796C217.181 40.8062 217.208 40.7301 217.236 40.6567C217.273 40.5597 217.315 40.4627 217.355 40.3657C217.384 40.295 217.412 40.2242 217.441 40.1508C217.486 40.0485 217.531 39.9463 217.578 39.8441C217.607 39.7785 217.636 39.713 217.667 39.6475C217.722 39.5321 217.778 39.4168 217.835 39.3014C217.862 39.249 217.885 39.1992 217.909 39.1468C217.993 38.979 218.08 38.8138 218.172 38.6487C218.187 38.6225 218.203 38.5962 218.216 38.57C218.292 38.4311 218.371 38.2921 218.453 38.1532C218.518 38.0431 218.587 37.933 218.655 37.8229C218.692 37.7652 218.726 37.7049 218.763 37.6473C218.87 37.4795 218.978 37.3117 219.094 37.1466L214.539 30.4198C214.426 30.585 214.316 30.7527 214.208 30.9205C214.171 30.9782 214.137 31.0359 214.1 31.0961C214.032 31.2062 213.964 31.3163 213.898 31.4265C213.898 31.4291 213.893 31.4343 213.893 31.4369C213.814 31.5706 213.738 31.707 213.662 31.8433C213.646 31.8695 213.63 31.8957 213.617 31.9219C213.525 32.0871 213.438 32.2548 213.354 32.42C213.328 32.4724 213.304 32.5222 213.281 32.5747C213.223 32.69 213.168 32.8054 213.113 32.9207C213.081 32.9862 213.055 33.0518 213.023 33.1173C212.979 33.2196 212.931 33.3218 212.887 33.424C212.855 33.4948 212.829 33.5656 212.8 33.639C212.761 33.736 212.721 33.833 212.682 33.93C212.653 34.0034 212.627 34.0794 212.6 34.1528C212.566 34.2472 212.529 34.3416 212.498 34.4359C212.472 34.512 212.448 34.588 212.422 34.664C212.39 34.7557 212.359 34.8501 212.332 34.9419C212.309 35.0205 212.288 35.0965 212.264 35.1752C212.238 35.2669 212.212 35.3587 212.185 35.4504C212.164 35.5291 212.146 35.6077 212.125 35.6838C212.101 35.7755 212.078 35.8646 212.057 35.9564C212.038 36.035 212.023 36.1137 212.004 36.195C211.986 36.2841 211.965 36.3732 211.946 36.4623C211.931 36.541 211.917 36.6223 211.902 36.7009C211.886 36.79 211.87 36.8792 211.854 36.9683C211.841 37.0469 211.831 37.1256 211.818 37.2068C211.804 37.296 211.791 37.3851 211.781 37.4742C211.77 37.5529 211.762 37.6315 211.755 37.7102C211.744 37.7993 211.736 37.8858 211.728 37.9749C211.72 38.0536 211.715 38.1322 211.71 38.2109C211.705 38.2974 211.697 38.3865 211.694 38.473C211.689 38.5517 211.686 38.6303 211.684 38.709C211.681 38.7955 211.678 38.882 211.676 38.9685C211.676 39.0471 211.676 39.1258 211.676 39.2044C211.676 39.249 211.676 39.2936 211.676 39.3381C211.676 39.3617 211.678 39.3827 211.678 39.4063C211.684 39.6658 211.694 39.9227 211.715 40.1796C211.718 40.2189 211.723 40.2609 211.726 40.3002C211.749 40.565 211.778 40.8245 211.815 41.084C211.815 41.0893 211.815 41.0945 211.815 41.0998C211.818 41.1207 211.823 41.1417 211.826 41.1627C211.854 41.3462 211.886 41.5271 211.923 41.708C211.933 41.763 211.944 41.8154 211.957 41.8705C211.999 42.0697 212.046 42.2663 212.099 42.4629C212.099 42.4682 212.099 42.4708 212.101 42.476C212.101 42.476 212.101 42.476 212.101 42.4787C212.151 42.6596 212.204 42.8378 212.262 43.0135C212.28 43.0685 212.298 43.1209 212.317 43.1734C212.359 43.2992 212.403 43.4224 212.451 43.5482C212.461 43.5797 212.472 43.6112 212.485 43.6426C212.495 43.6714 212.508 43.7003 212.522 43.7317C212.564 43.8366 212.606 43.9388 212.65 44.0411C212.677 44.1014 212.7 44.159 212.726 44.2193C212.779 44.3347 212.834 44.45 212.889 44.5628C212.908 44.5995 212.923 44.6362 212.942 44.6729C212.944 44.6807 212.95 44.6886 212.955 44.6965C213.031 44.8485 213.11 44.9979 213.194 45.1473C213.197 45.1526 213.202 45.1578 213.205 45.1657C213.283 45.3073 213.367 45.4488 213.454 45.5878C213.459 45.5956 213.465 45.6035 213.47 45.6114C213.543 45.7293 213.62 45.8473 213.698 45.9626L218.253 52.6894C218.169 52.5662 218.088 52.4403 218.009 52.3119H218.003Z" fill="#0093D9"/>
<path d="M259.55 49.2579C259.626 49.0744 259.702 48.8883 259.773 48.7048C259.828 48.5658 259.876 48.4243 259.928 48.2853C259.994 48.1071 260.062 47.9288 260.123 47.7479C260.173 47.6037 260.217 47.4596 260.267 47.3154C260.325 47.1397 260.383 46.9641 260.438 46.7911C260.482 46.6443 260.524 46.4975 260.567 46.3507C260.616 46.1776 260.669 46.0046 260.716 45.8316C260.756 45.6848 260.792 45.5354 260.832 45.3886C260.876 45.2156 260.921 45.0452 260.961 44.8721C260.995 44.7227 261.026 44.5759 261.06 44.4265C261.097 44.2561 261.134 44.0857 261.168 43.9153C261.197 43.7659 261.223 43.6164 261.252 43.467C261.284 43.2992 261.312 43.1288 261.341 42.9611C261.365 42.8116 261.386 42.6596 261.41 42.5102C261.433 42.3424 261.457 42.1746 261.478 42.0068C261.496 41.8574 261.512 41.708 261.53 41.5586C261.549 41.3908 261.565 41.2256 261.58 41.0579C261.594 40.9084 261.604 40.759 261.615 40.6096C261.625 40.4444 261.638 40.2793 261.646 40.1141C261.654 39.9647 261.659 39.8153 261.664 39.6685C261.67 39.5033 261.675 39.3408 261.678 39.1756C261.678 39.0288 261.68 38.8794 261.68 38.7326C261.68 38.6487 261.68 38.5648 261.68 38.4809C261.68 38.3944 261.675 38.3105 261.672 38.224C261.67 38.0982 261.667 37.9724 261.662 37.8465C261.654 37.6709 261.646 37.4926 261.636 37.317C261.628 37.1938 261.622 37.0732 261.612 36.9526C261.599 36.7691 261.58 36.5882 261.565 36.4073C261.554 36.2946 261.544 36.1819 261.53 36.0692C261.507 35.8673 261.481 35.6655 261.454 35.4636C261.441 35.3745 261.431 35.2827 261.418 35.1936C261.418 35.1805 261.415 35.1647 261.412 35.1516C261.407 35.1123 261.397 35.073 261.391 35.0337C261.336 34.6876 261.276 34.3416 261.205 34.0008C261.184 33.8986 261.163 33.7937 261.139 33.6915C261.058 33.3166 260.971 32.9417 260.871 32.5721C260.871 32.5642 260.866 32.5537 260.866 32.5459C260.866 32.5459 260.866 32.5433 260.866 32.5406C260.774 32.1998 260.672 31.8617 260.564 31.5287C260.532 31.4265 260.496 31.3269 260.461 31.2246C260.38 30.9861 260.299 30.7502 260.209 30.5168C260.188 30.4592 260.17 30.3989 260.146 30.3386C260.125 30.2835 260.099 30.2285 260.078 30.1708C259.999 29.9742 259.918 29.7776 259.834 29.581C259.786 29.4682 259.739 29.3581 259.689 29.2454C259.592 29.0252 259.487 28.8102 259.382 28.5953C259.348 28.5271 259.319 28.4563 259.285 28.3882C259.277 28.3725 259.269 28.3594 259.261 28.3462C259.117 28.0579 258.967 27.7748 258.809 27.4943C258.801 27.4812 258.793 27.468 258.786 27.4549C258.636 27.1875 258.478 26.9228 258.315 26.6606C258.305 26.6449 258.297 26.6292 258.289 26.6134C258.15 26.388 258.005 26.1678 257.856 25.9476L253.301 19.2208C253.459 19.4541 253.614 19.6927 253.761 19.9339C253.924 20.196 254.081 20.4634 254.234 20.7308C254.239 20.7413 254.247 20.7544 254.255 20.7649C254.412 21.0454 254.562 21.3311 254.706 21.6169C254.748 21.6981 254.785 21.782 254.827 21.8659C254.932 22.0809 255.037 22.2985 255.135 22.5187C255.184 22.6288 255.232 22.7415 255.279 22.8516C255.363 23.0482 255.444 23.2448 255.523 23.4414C255.568 23.5568 255.613 23.6695 255.655 23.7848C255.741 24.0182 255.825 24.2567 255.907 24.4926C255.941 24.5949 255.978 24.6945 256.009 24.7967C256.117 25.1323 256.219 25.4678 256.311 25.8086C256.314 25.8191 256.317 25.8296 256.319 25.8401C256.419 26.2097 256.506 26.5846 256.587 26.9595C256.608 27.0617 256.632 27.1666 256.653 27.2688C256.721 27.6122 256.784 27.9556 256.839 28.3017C256.847 28.3541 256.858 28.4092 256.866 28.4616C256.879 28.5507 256.889 28.6425 256.902 28.7316C256.931 28.9335 256.957 29.1353 256.978 29.3372C256.992 29.4499 256.999 29.5626 257.013 29.6753C257.031 29.8562 257.047 30.0397 257.06 30.2206C257.068 30.3412 257.076 30.4644 257.084 30.585C257.094 30.7606 257.102 30.9363 257.11 31.1145C257.115 31.2404 257.118 31.3662 257.12 31.492C257.123 31.6624 257.126 31.8302 257.126 32.0006C257.126 32.1474 257.126 32.2968 257.123 32.4436C257.123 32.6088 257.115 32.7713 257.11 32.9365C257.105 33.0859 257.099 33.2327 257.091 33.3821C257.084 33.5473 257.073 33.7124 257.06 33.8776C257.049 34.027 257.039 34.1764 257.026 34.3259C257.01 34.491 256.994 34.6588 256.976 34.824C256.96 34.9734 256.944 35.1228 256.923 35.2748C256.902 35.4426 256.879 35.6104 256.855 35.7756C256.834 35.925 256.813 36.077 256.787 36.2265C256.76 36.3942 256.729 36.5646 256.697 36.7324C256.671 36.8818 256.645 37.0313 256.613 37.1807C256.579 37.3511 256.542 37.5215 256.506 37.6919C256.474 37.8413 256.443 37.9907 256.406 38.1375C256.366 38.3105 256.322 38.4809 256.277 38.654C256.24 38.8008 256.204 38.9502 256.162 39.097C256.114 39.27 256.064 39.443 256.012 39.616C255.97 39.7628 255.928 39.9097 255.883 40.0565C255.828 40.2321 255.77 40.4077 255.712 40.5808C255.665 40.7249 255.618 40.8691 255.568 41.0133C255.505 41.1916 255.439 41.3724 255.374 41.5507C255.321 41.6896 255.271 41.8312 255.219 41.9701C255.148 42.1537 255.071 42.3398 254.995 42.5233C254.94 42.657 254.888 42.7907 254.832 42.9244C254.748 43.1184 254.662 43.315 254.572 43.509C254.517 43.6322 254.465 43.7528 254.41 43.876C254.307 44.0988 254.197 44.319 254.086 44.5418C254.039 44.6362 253.997 44.7306 253.95 44.825C253.79 45.1395 253.624 45.4541 253.453 45.7687C253.43 45.8133 253.401 45.8604 253.375 45.905C253.228 46.1724 253.075 46.4398 252.918 46.7046C252.794 46.9143 252.663 47.124 252.531 47.3337C252.463 47.4412 252.4 47.5513 252.332 47.6588C252.13 47.976 251.922 48.2932 251.707 48.6078C251.434 49.0062 251.155 49.3968 250.866 49.7822C250.848 49.8058 250.832 49.8294 250.814 49.853C250.74 49.95 250.667 50.047 250.59 50.144C250.506 50.2514 250.425 50.3615 250.341 50.469C250.265 50.566 250.188 50.6604 250.11 50.7574C250.026 50.8622 249.942 50.9697 249.855 51.0746C249.776 51.169 249.697 51.2633 249.619 51.3577C249.532 51.46 249.448 51.5648 249.358 51.667C249.277 51.7614 249.196 51.8532 249.114 51.9449C249.03 52.0419 248.946 52.1389 248.859 52.2333C248.594 52.5321 248.321 52.8231 248.045 53.1115C247.995 53.1639 247.948 53.2137 247.898 53.2635C247.627 53.544 247.352 53.8193 247.073 54.0919C247.021 54.1417 246.968 54.1942 246.916 54.244C246.645 54.5035 246.372 54.7604 246.093 55.0121C246.093 55.0121 246.088 55.0173 246.086 55.0199C245.81 55.269 245.526 55.5128 245.242 55.754C245.185 55.8011 245.13 55.851 245.072 55.8981C244.801 56.1236 244.528 56.3464 244.252 56.564C244.202 56.6033 244.15 56.6426 244.1 56.6846C243.848 56.8838 243.59 57.0778 243.333 57.2692C243.288 57.3033 243.244 57.3373 243.199 57.3688C242.915 57.5759 242.632 57.7777 242.343 57.977C242.28 58.0215 242.214 58.0661 242.148 58.1081C241.857 58.3073 241.565 58.5013 241.271 58.69C241.266 58.6926 241.26 58.6979 241.255 58.7005C240.948 58.8971 240.641 59.0859 240.328 59.2746C240.262 59.3139 240.199 59.3533 240.134 59.39C239.829 59.5709 239.524 59.7465 239.214 59.9169C239.164 59.9457 239.112 59.9719 239.062 60.0008C238.747 60.1738 238.429 60.3442 238.108 60.5067C238.079 60.5225 238.048 60.5382 238.019 60.5539C237.685 60.7243 237.352 60.8868 237.016 61.0441C236.953 61.073 236.89 61.1044 236.827 61.1333C236.467 61.301 236.107 61.4609 235.744 61.6156C235.684 61.6418 235.621 61.668 235.561 61.6943C235.193 61.8489 234.825 61.9957 234.455 62.1373C234.407 62.1556 234.36 62.1714 234.315 62.1897C233.885 62.3523 233.451 62.5069 233.015 62.6537C232.963 62.6721 232.913 62.6878 232.86 62.7035C232.429 62.8451 231.996 62.9788 231.563 63.1046C231.484 63.1282 231.408 63.1492 231.329 63.1702C231.14 63.2226 230.951 63.275 230.762 63.3248C230.672 63.3484 230.583 63.372 230.494 63.3956C230.26 63.4559 230.026 63.511 229.792 63.566C229.753 63.5765 229.711 63.587 229.671 63.5948C229.398 63.6578 229.125 63.7154 228.852 63.7705C228.773 63.7862 228.694 63.8019 228.616 63.8177C228.416 63.857 228.219 63.8937 228.019 63.9304C227.935 63.9461 227.851 63.9592 227.767 63.975C227.431 64.0326 227.097 64.0851 226.761 64.1323C226.732 64.1349 226.706 64.1401 226.677 64.1427C226.359 64.1873 226.044 64.224 225.726 64.2581C225.655 64.2659 225.587 64.2738 225.516 64.2817C225.185 64.3158 224.854 64.342 224.526 64.3656C224.463 64.3708 224.397 64.3734 224.334 64.3787C224.029 64.397 223.722 64.4127 223.417 64.4232C223.373 64.4232 223.325 64.4285 223.281 64.4285C222.95 64.439 222.616 64.4416 222.285 64.4416C222.212 64.4416 222.138 64.4416 222.065 64.4416C221.731 64.439 221.395 64.4311 221.061 64.418C221.043 64.418 221.022 64.418 221.003 64.4154C220.683 64.4023 220.365 64.3813 220.047 64.3577C219.976 64.3525 219.908 64.3472 219.837 64.342C219.511 64.3158 219.188 64.2817 218.865 64.245C218.805 64.2371 218.747 64.2292 218.687 64.2214C218.39 64.1847 218.093 64.1427 217.799 64.0982C217.749 64.0903 217.702 64.0851 217.652 64.0772C217.331 64.0248 217.011 63.9671 216.69 63.9042C216.62 63.8911 216.549 63.8753 216.478 63.8622C216.155 63.7967 215.832 63.7259 215.508 63.6473C215.498 63.6473 215.487 63.642 215.477 63.6394C215.164 63.5634 214.852 63.4795 214.542 63.3904C214.474 63.372 214.405 63.351 214.34 63.3327C214.03 63.2409 213.72 63.1466 213.415 63.0443C213.362 63.026 213.31 63.0076 213.255 62.9893C212.974 62.8949 212.695 62.7927 212.417 62.6878C212.367 62.6695 212.317 62.6511 212.267 62.6328C211.965 62.5174 211.666 62.3916 211.369 62.2657C211.303 62.2369 211.237 62.2081 211.172 62.1792C210.867 62.0455 210.565 61.9066 210.266 61.7598C206.52 59.9274 203.568 57.3164 201.461 54.2073L206.016 60.934C208.12 64.0431 211.075 66.6541 214.82 68.4865C215.12 68.6334 215.422 68.7697 215.726 68.906C215.792 68.9348 215.858 68.9637 215.923 68.9925C216.22 69.1209 216.52 69.2442 216.822 69.3595C216.872 69.3779 216.922 69.3962 216.971 69.4146C217.25 69.5194 217.528 69.619 217.809 69.716C217.862 69.7344 217.914 69.7527 217.97 69.7711C218.277 69.8733 218.584 69.9703 218.894 70.0594C218.963 70.0804 219.031 70.0988 219.096 70.1171C219.406 70.2062 219.719 70.2901 220.034 70.3662C220.045 70.3662 220.053 70.3714 220.063 70.374C220.384 70.4527 220.709 70.5234 221.032 70.589C221.103 70.6047 221.174 70.6178 221.242 70.6309C221.56 70.6938 221.881 70.7515 222.204 70.8039C222.254 70.8118 222.304 70.8197 222.351 70.8275C222.645 70.8747 222.942 70.914 223.239 70.9507C223.297 70.9586 223.357 70.9665 223.415 70.9743C223.738 71.011 224.064 71.0451 224.389 71.0713C224.46 71.0766 224.528 71.0818 224.599 71.0871C224.917 71.1107 225.235 71.1316 225.553 71.1447C225.574 71.1447 225.592 71.1447 225.613 71.1474C225.947 71.1605 226.28 71.1683 226.614 71.171C226.688 71.171 226.761 71.171 226.835 71.171C227.166 71.171 227.497 71.1683 227.828 71.1578C227.872 71.1578 227.919 71.1552 227.964 71.1526C228.269 71.1421 228.576 71.1264 228.881 71.108C228.944 71.1028 229.007 71.1002 229.07 71.0976C229.401 71.074 229.732 71.0451 230.063 71.0137C230.134 71.0058 230.202 70.9979 230.273 70.9927C230.591 70.9586 230.909 70.9219 231.224 70.8773C231.253 70.8747 231.279 70.8695 231.308 70.8669C231.644 70.8197 231.98 70.7672 232.314 70.7096C232.353 70.7017 232.39 70.6991 232.43 70.6912C232.474 70.6834 232.519 70.6729 232.566 70.665C232.766 70.6283 232.963 70.5916 233.162 70.5523C233.241 70.5366 233.32 70.5235 233.399 70.5051C233.672 70.45 233.948 70.3898 234.221 70.3295C234.26 70.3216 234.3 70.3111 234.339 70.3006C234.573 70.2456 234.809 70.1879 235.043 70.1302C235.132 70.1066 235.222 70.083 235.311 70.0594C235.5 70.0096 235.689 69.9572 235.878 69.9048C235.931 69.889 235.983 69.8759 236.036 69.8628C236.062 69.855 236.086 69.8471 236.112 69.8392C236.546 69.7134 236.979 69.5797 237.41 69.4382C237.462 69.4224 237.512 69.4041 237.565 69.3883C238.001 69.2415 238.434 69.0869 238.865 68.9243C238.894 68.9139 238.92 68.906 238.949 68.8955C238.967 68.8876 238.986 68.8798 239.004 68.8719C239.374 68.7303 239.745 68.5809 240.11 68.4263C240.17 68.4 240.233 68.3738 240.294 68.3476C240.656 68.1929 241.019 68.033 241.376 67.8653C241.402 67.8521 241.431 67.8417 241.457 67.8286C241.494 67.8128 241.528 67.7919 241.565 67.7761C241.901 67.6188 242.235 67.4563 242.568 67.2859C242.597 67.2702 242.629 67.2544 242.658 67.2387C242.978 67.0762 243.293 66.9058 243.609 66.7328C243.643 66.7144 243.677 66.6987 243.711 66.6777C243.729 66.6672 243.745 66.6568 243.761 66.6489C244.068 66.4785 244.376 66.3002 244.68 66.122C244.746 66.0826 244.809 66.0433 244.875 66.0066C245.185 65.8205 245.495 65.6291 245.802 65.4325C245.802 65.4325 245.802 65.4325 245.805 65.4325C245.81 65.4299 245.812 65.4273 245.818 65.4246C246.112 65.2359 246.403 65.0393 246.695 64.8427C246.761 64.7981 246.824 64.7535 246.889 64.709C247.176 64.5097 247.462 64.3079 247.746 64.1008C247.759 64.0903 247.772 64.0824 247.788 64.072C247.819 64.0484 247.851 64.0248 247.882 64.0012C248.14 63.8098 248.394 63.6158 248.649 63.4166C248.699 63.3773 248.752 63.3379 248.802 63.2986C249.077 63.081 249.351 62.8582 249.621 62.6328C249.645 62.6118 249.671 62.5934 249.695 62.5725C249.729 62.5436 249.76 62.5148 249.792 62.486C250.076 62.2448 250.357 62.001 250.635 61.7519C250.635 61.7519 250.64 61.7467 250.643 61.7441C250.921 61.4924 251.195 61.2355 251.465 60.976C251.497 60.9471 251.528 60.9183 251.56 60.8868C251.581 60.8659 251.602 60.8449 251.623 60.8239C251.901 60.5539 252.177 60.276 252.447 59.9955C252.497 59.9457 252.545 59.8933 252.595 59.8435C252.87 59.5551 253.141 59.2615 253.409 58.9627C253.417 58.9548 253.425 58.9443 253.432 58.9364C253.509 58.8499 253.585 58.7608 253.661 58.6743C253.742 58.5825 253.824 58.4882 253.905 58.3938C253.992 58.2916 254.079 58.1893 254.163 58.0845C254.241 57.9901 254.323 57.8957 254.399 57.8013C254.486 57.6965 254.57 57.5916 254.654 57.4841C254.73 57.3871 254.809 57.2928 254.885 57.1958C254.969 57.0883 255.05 56.9782 255.135 56.8707C255.208 56.7737 255.284 56.6767 255.358 56.5797C255.366 56.5719 255.371 56.5614 255.379 56.5535C255.389 56.5378 255.4 56.5221 255.41 56.5089C255.697 56.1236 255.978 55.733 256.251 55.3345C256.466 55.0199 256.674 54.7027 256.876 54.3855C256.944 54.2781 257.01 54.168 257.076 54.0605C257.207 53.8508 257.338 53.641 257.462 53.4313C257.464 53.4261 257.47 53.4182 257.475 53.413C257.627 53.1534 257.774 52.8939 257.919 52.6318C257.945 52.5872 257.971 52.54 257.998 52.4954C258.168 52.1809 258.334 51.8663 258.494 51.5517C258.541 51.4573 258.586 51.363 258.631 51.2686C258.741 51.0458 258.849 50.8255 258.954 50.6027C259.012 50.4795 259.061 50.3589 259.117 50.2357C259.203 50.0417 259.293 49.8451 259.377 49.6511C259.434 49.5174 259.484 49.3837 259.539 49.25L259.55 49.2579Z" fill="#0093D9"/>
<path d="M244.496 11.6683L236.43 23.4755C243.53 26.949 245.237 35.6916 240.241 43.0056C235.248 50.3143 225.445 53.4287 218.345 49.9526C211.245 46.4791 209.541 37.7338 214.534 30.4224L203.068 24.8098C193.62 38.6434 196.848 55.1851 210.281 61.7598C223.711 68.3345 242.261 62.4492 251.709 48.6156C261.157 34.782 257.929 18.2404 244.496 11.6656V11.6683Z" fill="url(#paint45_linear_12563_74054)"/>
<path d="M205.17 21.4464L193.704 15.8337L198.259 22.5631L209.724 28.1731L205.17 21.4464Z" fill="url(#paint46_linear_12563_74054)"/>
<path d="M235.129 2.68958L227.065 14.4994L231.62 21.2262L239.684 9.41895L235.129 2.68958Z" fill="url(#paint47_linear_12563_74054)"/>
<path d="M193.704 15.8338L205.17 21.4464C210.163 14.135 219.966 11.0233 227.066 14.4994L235.132 2.69223C221.702 -3.88248 203.152 2.00277 193.704 15.8364V15.8338Z" fill="#FDF150"/>
<path d="M227.066 14.4994C226.864 14.3998 226.659 14.308 226.451 14.2189C226.386 14.1901 226.32 14.1665 226.254 14.1376C226.11 14.0773 225.963 14.0197 225.816 13.9672C225.742 13.941 225.669 13.9148 225.595 13.8886C225.445 13.8362 225.296 13.7864 225.143 13.7392C225.078 13.7182 225.012 13.6972 224.946 13.6789C224.731 13.616 224.515 13.5557 224.295 13.5032C224.284 13.5006 224.274 13.498 224.261 13.4954C224.053 13.4456 223.843 13.401 223.633 13.3591C223.562 13.3459 223.491 13.3328 223.423 13.3197C223.268 13.2909 223.113 13.2673 222.958 13.2437C222.879 13.2332 222.803 13.2201 222.724 13.2123C222.564 13.1913 222.404 13.1729 222.243 13.1572C222.175 13.1493 222.109 13.1415 222.041 13.1362C221.815 13.1179 221.589 13.1021 221.361 13.0917C221.34 13.0917 221.319 13.0917 221.298 13.0917C221.09 13.0838 220.883 13.0812 220.675 13.0812C220.602 13.0812 220.528 13.0812 220.455 13.0838C220.294 13.0838 220.137 13.089 219.977 13.0969C219.895 13.0995 219.816 13.1048 219.735 13.11C219.569 13.1205 219.407 13.131 219.241 13.1467C219.173 13.152 219.107 13.1572 219.039 13.1651C218.808 13.1887 218.579 13.2149 218.348 13.2463C218.319 13.2516 218.29 13.2568 218.264 13.2594C218.096 13.283 217.928 13.3092 217.762 13.3381C217.736 13.3433 217.712 13.3486 217.686 13.3538C217.397 13.4062 217.106 13.4639 216.817 13.5295C216.793 13.5347 216.767 13.5426 216.743 13.5478C216.478 13.6107 216.215 13.6789 215.95 13.7523C215.918 13.7601 215.887 13.768 215.858 13.7759C215.776 13.7995 215.695 13.8283 215.611 13.8519C215.474 13.8938 215.34 13.9332 215.206 13.9777C215.088 14.017 214.97 14.0564 214.852 14.0983C214.718 14.1455 214.584 14.1901 214.453 14.2399C214.408 14.2556 214.363 14.2713 214.319 14.2871C214.232 14.3211 214.148 14.3552 214.061 14.3893C213.961 14.4286 213.862 14.4679 213.762 14.5099C213.625 14.5676 213.489 14.6279 213.352 14.6882C213.257 14.7301 213.163 14.7694 213.068 14.814C213.042 14.8271 213.016 14.8376 212.99 14.8481C212.835 14.9188 212.682 14.9975 212.53 15.0735C212.49 15.0945 212.448 15.1128 212.409 15.1338C212.204 15.2387 211.999 15.3461 211.8 15.4562C211.787 15.4641 211.771 15.472 211.758 15.4798C211.702 15.5113 211.65 15.5428 211.595 15.5716C211.437 15.6607 211.28 15.7525 211.122 15.8495C211.048 15.894 210.978 15.9386 210.907 15.9832C210.836 16.0277 210.762 16.0697 210.691 16.1169C210.62 16.1614 210.552 16.2086 210.484 16.2558C210.415 16.3004 210.347 16.3449 210.281 16.3895C210.124 16.497 209.966 16.6071 209.811 16.7198C209.767 16.7513 209.725 16.7801 209.68 16.8142C209.669 16.822 209.659 16.8299 209.646 16.8378C209.459 16.9741 209.275 17.1157 209.094 17.2598C209.047 17.2992 208.997 17.3385 208.95 17.3778C208.845 17.4617 208.74 17.5456 208.637 17.6321C208.598 17.6635 208.561 17.6976 208.524 17.7317C208.456 17.7894 208.39 17.8471 208.322 17.9073C208.198 18.0174 208.075 18.1276 207.954 18.2403C207.889 18.3006 207.823 18.3609 207.757 18.4238C207.72 18.4579 207.684 18.4893 207.65 18.526C207.565 18.6073 207.487 18.6886 207.405 18.7724C207.34 18.838 207.271 18.9035 207.206 18.9717C207.072 19.1106 206.94 19.2496 206.812 19.3937C206.767 19.4409 206.722 19.4881 206.68 19.5353C206.672 19.5432 206.667 19.5484 206.659 19.5563C206.565 19.6611 206.478 19.7686 206.386 19.8761C206.307 19.9678 206.226 20.0596 206.147 20.154C206.05 20.2719 205.958 20.3925 205.863 20.5131C205.79 20.6075 205.714 20.7019 205.64 20.7989C205.637 20.8041 205.632 20.8093 205.63 20.812C205.472 21.0243 205.317 21.2393 205.17 21.4568L209.725 28.1836C209.877 27.9608 210.035 27.7406 210.197 27.5256C210.268 27.4286 210.344 27.3369 210.421 27.2425C210.515 27.1219 210.607 26.9987 210.704 26.8807C210.783 26.7863 210.862 26.6946 210.943 26.6028C211.041 26.4875 211.138 26.3721 211.238 26.2594C211.28 26.2122 211.327 26.165 211.369 26.1179C211.498 25.9763 211.629 25.8347 211.763 25.6958C211.829 25.6276 211.897 25.5621 211.963 25.4966C212.078 25.3786 212.196 25.2633 212.314 25.1505C212.38 25.0876 212.446 25.0273 212.511 24.967C212.632 24.8543 212.756 24.7442 212.879 24.6341C212.945 24.5764 213.013 24.5161 213.081 24.4585C213.221 24.3379 213.365 24.2199 213.507 24.1046C213.554 24.0652 213.602 24.0259 213.651 23.9866C213.843 23.8345 214.038 23.6851 214.235 23.5409C214.277 23.5095 214.321 23.4806 214.366 23.4492C214.521 23.3365 214.679 23.2264 214.839 23.1189C214.907 23.0743 214.975 23.0271 215.044 22.9826C215.183 22.8908 215.325 22.8017 215.467 22.7125C215.537 22.668 215.611 22.6234 215.682 22.5788C215.839 22.4845 215.997 22.3927 216.157 22.301C216.21 22.2695 216.265 22.2381 216.318 22.2092C216.533 22.0886 216.751 21.9733 216.969 21.8606C217.008 21.8396 217.05 21.8212 217.09 21.8003C217.268 21.7111 217.447 21.6246 217.628 21.5407C217.723 21.4962 217.817 21.4568 217.912 21.4149C218.049 21.3546 218.185 21.2943 218.322 21.2366C218.422 21.1947 218.521 21.1554 218.621 21.1161C218.75 21.0636 218.881 21.0138 219.013 20.9666C219.146 20.9168 219.28 20.8696 219.414 20.8251C219.533 20.7831 219.648 20.7438 219.766 20.7045C219.9 20.6599 220.037 20.6206 220.174 20.5786C220.286 20.5446 220.399 20.5105 220.512 20.479C220.775 20.4056 221.04 20.3375 221.306 20.2746C221.329 20.2693 221.356 20.2614 221.379 20.2562C221.668 20.1907 221.957 20.133 222.249 20.0806C222.44 20.0465 222.635 20.015 222.826 19.9862C222.855 19.9809 222.884 19.9757 222.913 19.9731C223.144 19.9416 223.373 19.9154 223.604 19.8918C223.672 19.884 223.738 19.8813 223.806 19.8735C223.972 19.8604 224.135 19.8473 224.3 19.8368C224.381 19.8315 224.46 19.8289 224.542 19.8237C224.702 19.8158 224.86 19.8132 225.017 19.8105C225.091 19.8105 225.164 19.8079 225.24 19.8079C225.448 19.8079 225.655 19.8105 225.86 19.8184C225.881 19.8184 225.905 19.8184 225.926 19.8184C226.154 19.8289 226.38 19.8446 226.606 19.863C226.675 19.8682 226.743 19.8761 226.811 19.884C226.971 19.8997 227.132 19.918 227.289 19.939C227.368 19.9495 227.444 19.96 227.523 19.9705C227.678 19.9941 227.836 20.0203 227.988 20.0465C228.059 20.0596 228.13 20.0701 228.198 20.0858C228.408 20.1278 228.616 20.1723 228.823 20.2221C228.836 20.2247 228.847 20.2274 228.86 20.23C229.078 20.2824 229.296 20.3427 229.511 20.4056C229.577 20.424 229.643 20.4476 229.708 20.4659C229.861 20.5131 230.01 20.5629 230.16 20.6153C230.234 20.6416 230.307 20.6678 230.381 20.694C230.528 20.749 230.675 20.8067 230.819 20.8644C230.885 20.8906 230.951 20.9168 231.016 20.9457C231.224 21.0348 231.429 21.1265 231.631 21.2262L227.076 14.4994H227.066Z" fill="url(#paint48_linear_12563_74054)"/>
</g>
<g clip-path="url(#clip1_12563_74054)">
<path d="M107.656 73.7651L110.674 119.381L74.6704 113.426H67.8271L70.5243 100.156L107.656 73.7651Z" fill="url(#paint49_linear_12563_74054)"/>
<path d="M66.4491 66.0403C63.5282 75.584 69.8062 87.4906 81.0022 90.9076C92.1981 94.3247 104.074 87.9546 106.998 78.411C109.919 68.8673 102.783 59.7591 91.587 56.3449C80.391 52.9279 69.3729 56.4967 66.4491 66.0403Z" fill="url(#paint50_linear_12563_74054)"/>
<path d="M74.6699 113.426H94.7148L95.2772 88.4186H75.2323L74.6699 113.426Z" fill="url(#paint51_linear_12563_74054)"/>
<path style="mix-blend-mode:multiply" d="M95.1105 95.7224C95.1105 95.7224 89.7478 107.005 74.8906 106.36L74.9193 102.319L95.1134 95.7253L95.1105 95.7224Z" fill="url(#paint52_linear_12563_74054)"/>
<path d="M73.3183 101.345C82.9046 104.269 95.7677 101.01 99.0616 90.2518L101.475 82.3694C104.051 73.9514 99.3055 65.0437 90.8726 62.4716L86.6892 61.1941C78.2564 58.622 69.3329 63.3595 66.7563 71.7775L64.3432 79.6598C61.4136 89.2293 64.6932 98.7156 73.3183 101.345Z" fill="url(#paint53_linear_12563_74054)"/>
<path d="M73.4763 76.7153C73.0803 78.0128 71.9183 78.8091 70.8853 78.494C69.8524 78.179 69.3359 76.87 69.7319 75.5725C70.1278 74.275 71.2899 73.4787 72.3228 73.7938C73.3558 74.1089 73.8722 75.4178 73.4763 76.7153Z" fill="url(#paint54_radial_12563_74054)"/>
<path d="M82.8298 79.5681C82.4338 80.8656 81.2718 81.6619 80.2388 81.3468C79.2059 81.0317 78.6894 79.7228 79.0854 78.4253C79.4813 77.1278 80.6434 76.3315 81.6764 76.6466C82.7093 76.9617 83.2258 78.2706 82.8298 79.5681Z" fill="url(#paint55_radial_12563_74054)"/>
<path d="M93.2884 89.6617C93.2138 93.5198 96.3041 96.1463 100.189 95.5277C104.074 94.9118 107.285 91.2829 107.359 87.4276C107.434 83.5695 104.344 80.9458 100.459 81.5616C96.5738 82.1775 93.363 85.8064 93.2884 89.6617Z" fill="url(#paint56_linear_12563_74054)"/>
<path style="mix-blend-mode:multiply" d="M96.7771 91.0908C96.5446 93.2934 98.1658 94.6425 100.398 94.0983C102.63 93.557 104.627 91.3286 104.86 89.126C105.092 86.9234 103.471 85.5743 101.239 86.1185C99.0065 86.6599 97.0095 88.8882 96.7771 91.0908Z" fill="url(#paint57_radial_12563_74054)"/>
<path d="M75.1327 80.3947C75.4017 79.9919 75.2926 79.4478 74.8892 79.1793C74.4857 78.9108 73.9406 79.0196 73.6716 79.4224C73.4026 79.8251 73.5116 80.3693 73.9151 80.6378C74.3186 80.9063 74.8637 80.7975 75.1327 80.3947Z" fill="#FC7878"/>
<path d="M80.8421 84.8354C80.0673 85.6631 79.0287 86.2446 77.9125 86.5739C77.353 86.7429 76.7734 86.826 76.1881 86.8747C75.6027 86.8976 75.0088 86.8833 74.4263 86.7802C74.1337 86.7372 73.8496 86.6599 73.5627 86.5911C73.2815 86.4995 72.9974 86.4193 72.7277 86.3018C72.1825 86.0842 71.6632 85.8006 71.1898 85.4626C70.2372 84.7953 69.451 83.9045 68.9775 82.8762C69.9101 83.5207 70.8053 84.0735 71.7521 84.4888C71.8669 84.5461 71.9874 84.5948 72.1079 84.6406C72.2284 84.6864 72.3432 84.7408 72.4637 84.7838C72.7076 84.8611 72.94 84.9614 73.1868 85.0244C73.6688 85.1762 74.1624 85.2879 74.6587 85.3681L75.0317 85.4283L75.4076 85.4655C75.6572 85.5056 75.9097 85.4941 76.1622 85.5199C76.6672 85.5256 77.1808 85.5228 77.6944 85.4741C78.7245 85.3853 79.7546 85.1561 80.8392 84.8382L80.8421 84.8354Z" fill="url(#paint58_linear_12563_74054)"/>
<path d="M80.96 60.4951C80.96 60.4951 80.3374 83.071 101.734 81.4298L106.637 76.9043L98.5602 62.4771L80.4521 59.083L80.96 60.4951Z" fill="url(#paint59_linear_12563_74054)"/>
<path d="M74.6702 113.426H48.5711L43.8311 132.889L46.0203 148.106H110.674L112.341 141.249L104.887 113.426H74.6702Z" fill="url(#paint60_linear_12563_74054)"/>
<path d="M114.161 135.647C119.251 130.566 119.251 122.327 114.161 117.245C109.07 112.164 100.817 112.164 95.7261 117.245C90.6355 122.327 90.6355 130.566 95.7261 135.647C100.817 140.729 109.07 140.729 114.161 135.647Z" fill="url(#paint61_linear_12563_74054)"/>
<path d="M156.54 153.572C162.989 150.378 165.623 142.57 162.423 136.132C159.223 129.695 151.401 127.065 144.952 130.26C138.503 133.454 135.869 141.262 139.069 147.699C142.269 154.137 150.091 156.766 156.54 153.572Z" fill="url(#paint62_linear_12563_74054)"/>
<path d="M154.905 129.595L109.105 114.114L100.784 138.78L146.584 154.262L154.905 129.595Z" fill="url(#paint63_linear_12563_74054)"/>
<path d="M16.2382 112.226C23.2915 110.787 27.8409 103.913 26.3995 96.8721C24.958 89.8312 18.0716 85.2899 11.0183 86.7288C3.96494 88.1677 -0.584418 95.0419 0.857015 102.083C2.29845 109.124 9.18483 113.665 16.2382 112.226Z" fill="url(#paint64_linear_12563_74054)"/>
<path d="M67.0238 129.482C69.8229 122.861 66.7151 115.228 60.0823 112.434C53.4496 109.64 45.8037 112.743 43.0046 119.364C40.2056 125.985 43.3134 133.617 49.9461 136.411C56.5788 139.205 64.2248 136.103 67.0238 129.482Z" fill="url(#paint65_linear_12563_74054)"/>
<path d="M61.7355 113.277L20.3431 88.3297L6.90332 110.631L44.3016 136.16L61.7355 113.277Z" fill="url(#paint66_linear_12563_74054)"/>
<path d="M157.293 153.301C163.585 149.81 165.85 141.887 162.352 135.606C158.854 129.325 150.918 127.064 144.626 130.555C138.333 134.047 136.068 141.97 139.566 148.251C143.064 154.532 151 156.793 157.293 153.301Z" fill="url(#paint67_linear_12563_74054)"/>
<path d="M111.816 143.214C110.686 141.645 109.544 140.685 108.488 140.307L100.861 142.441L107.943 167.492L114.981 165.521C115.581 164.722 116.04 163.527 116.298 161.952C117.216 156.315 115.211 147.926 111.819 143.214H111.816Z" fill="url(#paint68_linear_12563_74054)"/>
<path d="M147.419 129.409L108.488 140.307C109.544 140.685 110.686 141.645 111.817 143.214C115.208 147.926 117.217 156.312 116.296 161.952C116.04 163.527 115.581 164.722 114.979 165.521L154.497 154.459L147.416 129.409H147.419Z" fill="url(#paint69_linear_12563_74054)"/>
<path d="M101.016 157.945C103.257 164.696 106.591 168.838 108.459 167.191C110.327 165.544 110.025 158.739 107.784 151.988C105.544 145.237 102.209 141.095 100.342 142.742C98.4736 144.389 98.7749 151.194 101.016 157.945Z" fill="url(#paint70_linear_12563_74054)"/>
<path d="M13.0381 112.547C20.2372 112.547 26.0733 106.721 26.0733 99.5347C26.0733 92.3482 20.2372 86.5225 13.0381 86.5225C5.83898 86.5225 0.00292969 92.3482 0.00292969 99.5347C0.00292969 106.721 5.83898 112.547 13.0381 112.547Z" fill="url(#paint71_linear_12563_74054)"/>
<path d="M45.3723 77.8897C39.8891 75.9678 33.4332 70.2364 30.9513 65.0894C30.2569 63.6516 29.9499 62.4114 29.9843 61.4117L3.35156 90.8246L22.7221 108.245L49.7738 78.368C48.6921 78.663 47.2029 78.5313 45.3694 77.8897H45.3723Z" fill="url(#paint72_linear_12563_74054)"/>
<path d="M35.7743 55.0159L29.984 61.4117C29.9496 62.4113 30.2595 63.6515 30.951 65.0894C33.4329 70.2364 39.8888 75.9677 45.372 77.8897C47.2055 78.5312 48.6947 78.6659 49.7764 78.368L55.1477 72.4361L35.7771 55.0159H35.7743Z" fill="#F3FFFF"/>
<path d="M49.7507 72.6309C54.99 74.4669 57.3141 71.9693 54.9441 67.0542C52.5741 62.1392 46.4051 56.6628 41.1686 54.8239C35.9293 52.988 33.6052 55.4856 35.9752 60.4006C38.3453 65.3185 44.5142 70.7921 49.7507 72.6309Z" fill="url(#paint73_linear_12563_74054)"/>
<path d="M97.5416 113.426L94.8358 108.136L77.4795 122.308C77.4795 122.308 80.8595 123.712 82.7418 129.715L97.5444 113.426H97.5416Z" fill="white"/>
<path d="M74.7594 109.408L77.4766 122.308C77.4766 122.308 72.1627 124.061 71.4827 128.283L70.335 113.426L74.7594 109.408Z" fill="white"/>
<path d="M74.7588 109.408L77.476 122.308L94.8323 108.136L74.7588 109.408Z" fill="url(#paint74_linear_12563_74054)"/>
<mask id="mask3_12563_74054" style="mask-type:luminance" maskUnits="userSpaceOnUse" x="35" y="29" width="68" height="45">
<path d="M55.1416 72.4333C54.1833 73.3899 52.3154 73.5274 49.7502 72.628C44.5109 70.7921 38.3448 65.3156 35.9748 60.3977C34.7668 57.8887 34.7783 56.0097 35.7768 55.0159L71.6056 29L102.181 39.4946L82.7385 59.5127L55.1445 72.4361L55.1416 72.4333Z" fill="white"/>
</mask>
<g mask="url(#mask3_12563_74054)">
<path d="M62.3828 56.2273C62.3828 56.2273 69.622 54.947 71.774 51.8766C73.926 48.8061 64.3253 51.0402 64.3253 51.0402L62.3828 56.2273Z" fill="url(#paint75_linear_12563_74054)"/>
<path d="M84.4137 40.2879C83.6992 36.4527 70.7472 39.2024 63.574 40.8665C51.9276 43.5703 46.6309 50.138 46.6309 50.138C46.6309 50.138 47.8015 60.9562 53.5372 61.0221C59.2729 61.0851 61.006 57.3015 64.8193 54.4745C68.6326 51.6475 74.9737 51.1491 79.051 50.055C83.1282 48.9608 82.9389 46.7181 82.9389 46.7181C85.1941 44.7046 83.6131 43.0376 83.6131 43.0376C83.6131 43.0376 84.8182 42.4676 84.4108 40.2879H84.4137Z" fill="url(#paint76_linear_12563_74054)"/>
<path d="M82.9415 46.7181C82.3361 45.3261 79.6878 46.0794 78.5056 46.1653L76.873 46.3543C74.6809 46.5749 72.4944 46.7524 70.2822 46.6751C72.4141 46.0736 74.589 45.7442 76.7812 45.5008C78.2789 45.4292 82.6431 44.5957 82.9387 46.7181H82.9415Z" fill="#FC7878"/>
<path d="M83.6162 43.0376C81.49 42.6223 79.3122 42.86 77.1717 43.0061C75.6625 43.1293 73.8147 43.3269 72.314 43.4587C71.7689 43.5045 71.2237 43.556 70.6699 43.5675C74.1332 42.2786 80.2562 41.2131 83.619 43.0376H83.6162Z" fill="#FC7878"/>
<path d="M41.7243 79.253L30.0205 68.9589L46.6337 50.1381L56.088 60.7558L41.7243 79.253Z" fill="url(#paint77_linear_12563_74054)"/>
<g style="mix-blend-mode:multiply">
<path d="M39.6099 58.2782C39.5783 58.2324 39.5525 58.1866 39.5238 58.1407L27.7109 71.5225L39.4148 81.8165L50.8087 67.143C46.3958 65.1868 41.8996 61.721 39.6099 58.2754V58.2782Z" fill="#FED6D6"/>
</g>
</g>
<path d="M33.5472 96.2896L29.2002 101.093L39.5469 99.9042L33.5472 96.2896Z" fill="#00C2FF"/>
<mask id="mask4_12563_74054" style="mask-type:luminance" maskUnits="userSpaceOnUse" x="35" y="106" width="75" height="74">
<path d="M108.459 167.191C110.327 165.547 110.025 158.738 107.784 151.987C105.543 145.236 102.209 141.095 100.341 142.742L65.7378 106.389L46.7144 114.4L35.0479 143.446L58.2633 179.003L108.461 167.196L108.459 167.191Z" fill="white"/>
</mask>
<g mask="url(#mask4_12563_74054)">
<path opacity="0.45" d="M68.8795 140.401C72.7574 137.471 73.5218 131.958 70.5868 128.087C67.6518 124.216 62.1289 123.452 58.251 126.382C54.3731 129.312 53.6087 134.825 56.5437 138.696C59.4787 142.567 65.0016 143.33 68.8795 140.401Z" fill="white"/>
<path d="M94.7204 148.106C94.7204 148.106 87.4984 141.435 79.3984 145.797L83.0769 152.059L94.7204 148.106Z" fill="url(#paint78_linear_12563_74054)"/>
<path d="M73.7589 147.471L77.126 144.645L72.73 139.425L69.363 142.25L73.7589 147.471Z" fill="#9B9BAF"/>
<path d="M87.3384 164.279L91.3754 160.891C91.5925 160.709 91.6206 160.386 91.4381 160.169L78.1838 144.429C78.0012 144.212 77.6773 144.184 77.4601 144.366L73.4232 147.754C73.206 147.936 73.178 148.259 73.3605 148.476L86.6148 164.216C86.7973 164.433 87.1213 164.461 87.3384 164.279Z" fill="#4D4D6F"/>
<path d="M53.715 141.659C58.2858 147.089 66.4001 147.791 71.8403 143.225C77.2804 138.66 77.9834 130.563 73.4098 125.132C68.8361 119.702 60.7246 119 55.2845 123.565C49.8443 128.128 49.1413 136.228 53.715 141.659ZM56.8224 139.049C53.692 135.335 54.1741 129.789 57.8984 126.664C61.6199 123.54 67.1748 124.021 70.3052 127.739C73.4356 131.453 72.9536 136.999 69.2292 140.124C65.5078 143.248 59.9528 142.767 56.8224 139.049Z" fill="#6B6B91"/>
<path d="M55.1495 140.453C59.7203 145.884 67.8347 146.585 73.2748 142.02C78.715 137.457 79.418 129.357 74.8443 123.926C70.2736 118.496 62.1592 117.794 56.719 122.36C51.2789 126.922 50.5759 135.022 55.1495 140.453ZM58.257 137.846C55.1266 134.132 55.6086 128.586 59.333 125.462C63.0544 122.34 68.6094 122.818 71.7398 126.536C74.8702 130.253 74.3881 135.796 70.6638 138.921C66.9423 142.045 61.3874 141.564 58.257 137.846Z" fill="#4D4D6F"/>
<path d="M75.9491 158.498C74.1443 158.506 72.9478 158.283 72.8216 158.26C70.9996 157.908 69.8117 156.149 70.1646 154.33C70.5175 152.52 72.2678 151.334 74.0812 151.675C74.2275 151.701 79.5988 152.58 83.9544 149.18C85.4149 148.04 87.5267 148.298 88.6687 149.756C89.8106 151.214 89.5524 153.322 88.0919 154.462C83.7851 157.825 78.9992 158.489 75.9491 158.501V158.498Z" fill="url(#paint79_linear_12563_74054)"/>
<path d="M79.9198 163.287C78.115 163.295 76.9185 163.072 76.7923 163.049C74.9703 162.697 73.7824 160.938 74.1353 159.119C74.4882 157.309 76.2385 156.123 78.0519 156.464C78.1982 156.49 83.5695 157.369 87.9251 153.969C89.3856 152.829 91.4974 153.087 92.6394 154.545C93.7813 156.003 93.5231 158.111 92.0626 159.251C87.7558 162.614 82.9699 163.278 79.9198 163.29V163.287Z" fill="url(#paint80_linear_12563_74054)"/>
<path d="M83.9577 166.595C82.3882 166.601 81.3467 166.409 81.2376 166.389C79.6538 166.082 78.618 164.55 78.925 162.969C79.232 161.393 80.7556 160.362 82.3337 160.657C82.4628 160.68 87.134 161.445 90.9244 158.486C92.1955 157.495 94.0318 157.719 95.0274 158.987C96.0231 160.256 95.7964 162.089 94.5253 163.083C90.778 166.008 86.6118 166.586 83.9606 166.598L83.9577 166.595Z" fill="url(#paint81_linear_12563_74054)"/>
<path d="M87.4517 169.556C86.0859 169.562 85.1792 169.393 85.0846 169.376C83.7073 169.11 82.8063 167.778 83.0732 166.4C83.34 165.028 84.6656 164.132 86.04 164.389C86.1519 164.409 90.2177 165.074 93.5145 162.499C94.6192 161.637 96.2174 161.832 97.0839 162.934C97.9505 164.037 97.7525 165.632 96.6478 166.497C93.3883 169.044 89.7644 169.545 87.4546 169.554L87.4517 169.556Z" fill="url(#paint82_linear_12563_74054)"/>
<path d="M74.3428 158.443C76.0701 157.928 77.829 157.968 79.605 158.174C78.1073 159.133 75.9524 159.11 74.3428 158.443Z" fill="#FC7878"/>
<path d="M79.1309 163.312C80.2814 162.78 81.5152 162.8 82.7232 163.129C81.739 163.968 80.2155 163.957 79.1309 163.312Z" fill="#FC7878"/>
<path d="M83.0625 166.334C83.8573 165.796 84.7927 165.804 85.6506 166.202C85.0108 166.959 83.797 166.961 83.0625 166.334Z" fill="#FC7878"/>
<path d="M88.6683 149.753L85.624 153.256L96.645 166.5L104.048 161.963L121.757 157.867L116.764 142.186L94.7197 148.106L88.6683 149.753Z" fill="url(#paint83_linear_12563_74054)"/>
</g>
<path d="M6.90332 110.631L44.3016 136.16L43.8311 132.889L6.90332 110.631Z" fill="#00C2FF"/>
</g>
<defs>
<linearGradient id="paint0_linear_12563_74054" x1="156.723" y1="123.141" x2="223.282" y2="86.5227" gradientUnits="userSpaceOnUse">
<stop offset="0.28" stop-color="#3A3B43"/>
<stop offset="0.51" stop-color="#3D3E47"/>
<stop offset="0.77" stop-color="#474856"/>
<stop offset="1" stop-color="#555568"/>
</linearGradient>
<linearGradient id="paint1_linear_12563_74054" x1="179.947" y1="165.361" x2="246.507" y2="128.743" gradientUnits="userSpaceOnUse">
<stop offset="0.28" stop-color="#3A3B43"/>
<stop offset="0.51" stop-color="#3D3E47"/>
<stop offset="0.77" stop-color="#474856"/>
<stop offset="1" stop-color="#555568"/>
</linearGradient>
<linearGradient id="paint2_linear_12563_74054" x1="168.339" y1="144.252" x2="234.899" y2="107.635" gradientUnits="userSpaceOnUse">
<stop offset="0.28" stop-color="#3A3B43"/>
<stop offset="0.51" stop-color="#3D3E47"/>
<stop offset="0.77" stop-color="#474856"/>
<stop offset="1" stop-color="#555568"/>
</linearGradient>
<linearGradient id="paint3_linear_12563_74054" x1="180.445" y1="51.3287" x2="141.632" y2="45.7841" gradientUnits="userSpaceOnUse">
<stop stop-color="#32333B"/>
<stop offset="0.42" stop-color="#35353E"/>
<stop offset="0.74" stop-color="#3E3F47"/>
<stop offset="1" stop-color="#4D4D56"/>
</linearGradient>
<linearGradient id="paint4_linear_12563_74054" x1="163.324" y1="71.5485" x2="156.807" y2="85.3056" gradientUnits="userSpaceOnUse">
<stop stop-color="#FE9C9C"/>
<stop offset="0.09" stop-color="#FE9F9F"/>
<stop offset="0.55" stop-color="#FEABAB"/>
<stop offset="0.99" stop-color="#FEB0B0"/>
</linearGradient>
<linearGradient id="paint5_linear_12563_74054" x1="162.786" y1="73.9418" x2="159.199" y2="77.168" gradientUnits="userSpaceOnUse">
<stop stop-color="#FEC9C9"/>
<stop offset="0.14" stop-color="#F8C8C8"/>
<stop offset="0.57" stop-color="#ECC7C7"/>
<stop offset="0.99" stop-color="#E8C7C7"/>
</linearGradient>
<linearGradient id="paint6_linear_12563_74054" x1="153.877" y1="72.7234" x2="173.583" y2="41.7157" gradientUnits="userSpaceOnUse">
<stop stop-color="#FEC3C3"/>
<stop offset="0.76" stop-color="#FECBCB"/>
<stop offset="1" stop-color="#FED0D0"/>
</linearGradient>
<radialGradient id="paint7_radial_12563_74054" cx="0" cy="0" r="1" gradientTransform="matrix(-2.11983 0.316185 0.316811 2.11564 175.406 51.4158)" gradientUnits="userSpaceOnUse">
<stop stop-color="#5F5F67"/>
<stop offset="0.18" stop-color="#4B4B53"/>
<stop offset="0.38" stop-color="#3D3D45"/>
<stop offset="0.62" stop-color="#34353D"/>
<stop offset="1" stop-color="#32333B"/>
</radialGradient>
<radialGradient id="paint8_radial_12563_74054" cx="0" cy="0" r="1" gradientTransform="matrix(-2.11983 0.316185 0.31681 2.11564 166.085 52.8061)" gradientUnits="userSpaceOnUse">
<stop stop-color="#5F5F67"/>
<stop offset="0.18" stop-color="#4B4B53"/>
<stop offset="0.38" stop-color="#3D3D45"/>
<stop offset="0.62" stop-color="#34353D"/>
<stop offset="1" stop-color="#32333B"/>
</radialGradient>
<linearGradient id="paint9_linear_12563_74054" x1="143.038" y1="65.4314" x2="163.189" y2="33.7201" gradientUnits="userSpaceOnUse">
<stop stop-color="#FEC3C3"/>
<stop offset="0.76" stop-color="#FECBCB"/>
<stop offset="1" stop-color="#FED0D0"/>
</linearGradient>
<radialGradient id="paint10_radial_12563_74054" cx="0" cy="0" r="1" gradientTransform="matrix(-15.9439 0.0138862 0.0139137 15.9125 152.174 52.2775)" gradientUnits="userSpaceOnUse">
<stop stop-color="#D3B0A2"/>
<stop offset="0.17" stop-color="#D6B5A8"/>
<stop offset="0.42" stop-color="#DEC5BA"/>
<stop offset="0.71" stop-color="#EDDED9"/>
<stop offset="1" stop-color="white"/>
</radialGradient>
<linearGradient id="paint11_linear_12563_74054" x1="171.19" y1="64.454" x2="170.523" y2="59.9812" gradientUnits="userSpaceOnUse">
<stop stop-color="#32333B"/>
<stop offset="0.38" stop-color="#36363F"/>
<stop offset="0.78" stop-color="#42424B"/>
<stop offset="1" stop-color="#4D4D56"/>
</linearGradient>
<linearGradient id="paint12_linear_12563_74054" x1="180.633" y1="50.0098" x2="141.82" y2="44.4678" gradientUnits="userSpaceOnUse">
<stop stop-color="#32333B"/>
<stop offset="0.42" stop-color="#35353E"/>
<stop offset="0.74" stop-color="#3E3F47"/>
<stop offset="1" stop-color="#4D4D56"/>
</linearGradient>
<linearGradient id="paint13_linear_12563_74054" x1="182.798" y1="44.2556" x2="138.577" y2="37.9403" gradientUnits="userSpaceOnUse">
<stop stop-color="#32333B"/>
<stop offset="0.42" stop-color="#35353E"/>
<stop offset="0.74" stop-color="#3E3F47"/>
<stop offset="1" stop-color="#4D4D56"/>
</linearGradient>
<linearGradient id="paint14_linear_12563_74054" x1="160.429" y1="129.874" x2="226.989" y2="93.2561" gradientUnits="userSpaceOnUse">
<stop offset="0.28" stop-color="#3A3B43"/>
<stop offset="0.51" stop-color="#3D3E47"/>
<stop offset="0.77" stop-color="#474856"/>
<stop offset="1" stop-color="#555568"/>
</linearGradient>
<linearGradient id="paint15_linear_12563_74054" x1="185.102" y1="130.917" x2="186.031" y2="99.226" gradientUnits="userSpaceOnUse">
<stop stop-color="#4B4B5F"/>
<stop offset="0.31" stop-color="#4F4F66"/>
<stop offset="1" stop-color="#585873"/>
</linearGradient>
<linearGradient id="paint16_linear_12563_74054" x1="130.511" y1="102.721" x2="156.108" y2="164.739" gradientUnits="userSpaceOnUse">
<stop offset="0.28" stop-color="#3A3B43"/>
<stop offset="0.51" stop-color="#3D3E47"/>
<stop offset="0.77" stop-color="#474856"/>
<stop offset="1" stop-color="#555568"/>
</linearGradient>
<linearGradient id="paint17_linear_12563_74054" x1="130.661" y1="102.662" x2="156.258" y2="164.683" gradientUnits="userSpaceOnUse">
<stop offset="0.28" stop-color="#3A3B43"/>
<stop offset="0.51" stop-color="#3D3E47"/>
<stop offset="0.77" stop-color="#474856"/>
<stop offset="1" stop-color="#555568"/>
</linearGradient>
<linearGradient id="paint18_linear_12563_74054" x1="130.583" y1="102.688" x2="156.18" y2="164.706" gradientUnits="userSpaceOnUse">
<stop offset="0.28" stop-color="#3A3B43"/>
<stop offset="0.51" stop-color="#3D3E47"/>
<stop offset="0.77" stop-color="#474856"/>
<stop offset="1" stop-color="#555568"/>
</linearGradient>
<linearGradient id="paint19_linear_12563_74054" x1="171.424" y1="98.5446" x2="178.868" y2="119.68" gradientUnits="userSpaceOnUse">
<stop stop-color="#0073E3"/>
<stop offset="0.26" stop-color="#0476E4"/>
<stop offset="0.53" stop-color="#1081E8"/>
<stop offset="0.79" stop-color="#2592F0"/>
<stop offset="1" stop-color="#3AA5F8"/>
</linearGradient>
<linearGradient id="paint20_linear_12563_74054" x1="137.601" y1="100.251" x2="155.58" y2="164.879" gradientUnits="userSpaceOnUse">
<stop offset="0.28" stop-color="#3A3B43"/>
<stop offset="0.51" stop-color="#3D3E47"/>
<stop offset="0.77" stop-color="#474856"/>
<stop offset="1" stop-color="#555568"/>
</linearGradient>
<linearGradient id="paint21_linear_12563_74054" x1="158.727" y1="94.3754" x2="176.706" y2="159.001" gradientUnits="userSpaceOnUse">
<stop offset="0.28" stop-color="#3A3B43"/>
<stop offset="0.51" stop-color="#3D3E47"/>
<stop offset="0.77" stop-color="#474856"/>
<stop offset="1" stop-color="#555568"/>
</linearGradient>
<linearGradient id="paint22_linear_12563_74054" x1="169.51" y1="74.4766" x2="162.993" y2="88.2363" gradientUnits="userSpaceOnUse">
<stop stop-color="#FE9C9C"/>
<stop offset="0.09" stop-color="#FE9F9F"/>
<stop offset="0.55" stop-color="#FEABAB"/>
<stop offset="0.99" stop-color="#FEB0B0"/>
</linearGradient>
<linearGradient id="paint23_linear_12563_74054" x1="199.055" y1="133.853" x2="161.406" y2="141.93" gradientUnits="userSpaceOnUse">
<stop offset="0.28" stop-color="#3A3B43"/>
<stop offset="0.51" stop-color="#3D3E47"/>
<stop offset="0.77" stop-color="#474856"/>
<stop offset="1" stop-color="#555568"/>
</linearGradient>
<linearGradient id="paint24_linear_12563_74054" x1="180.133" y1="165.213" x2="246.693" y2="128.595" gradientUnits="userSpaceOnUse">
<stop offset="0.28" stop-color="#3A3B43"/>
<stop offset="0.51" stop-color="#3D3E47"/>
<stop offset="0.77" stop-color="#474856"/>
<stop offset="1" stop-color="#555568"/>
</linearGradient>
<linearGradient id="paint25_linear_12563_74054" x1="172.27" y1="150.471" x2="238.546" y2="114.011" gradientUnits="userSpaceOnUse">
<stop offset="0.28" stop-color="#3A3B43"/>
<stop offset="0.51" stop-color="#3D3E47"/>
<stop offset="0.77" stop-color="#474856"/>
<stop offset="1" stop-color="#555568"/>
</linearGradient>
<linearGradient id="paint26_linear_12563_74054" x1="294.33" y1="110.863" x2="285.685" y2="148.31" gradientUnits="userSpaceOnUse">
<stop offset="0.28" stop-color="#3A3B43"/>
<stop offset="0.51" stop-color="#3D3E47"/>
<stop offset="0.77" stop-color="#474856"/>
<stop offset="1" stop-color="#555568"/>
</linearGradient>
<linearGradient id="paint27_linear_12563_74054" x1="171.516" y1="98.5104" x2="178.96" y2="119.649" gradientUnits="userSpaceOnUse">
<stop stop-color="#0073E3"/>
<stop offset="0.26" stop-color="#0476E4"/>
<stop offset="0.53" stop-color="#1081E8"/>
<stop offset="0.79" stop-color="#2592F0"/>
<stop offset="1" stop-color="#3AA5F8"/>
</linearGradient>
<linearGradient id="paint28_linear_12563_74054" x1="179.357" y1="130.107" x2="143.783" y2="94.9274" gradientUnits="userSpaceOnUse">
<stop stop-color="#444459"/>
<stop offset="0.45" stop-color="#4E4E66"/>
<stop offset="1" stop-color="#585873"/>
</linearGradient>
<linearGradient id="paint29_linear_12563_74054" x1="246.39" y1="106.081" x2="243.404" y2="81.7254" gradientUnits="userSpaceOnUse">
<stop stop-color="#FEADAD"/>
<stop offset="0.37" stop-color="#FEB5B5"/>
<stop offset="0.96" stop-color="#FECDCD"/>
<stop offset="1" stop-color="#FED0D0"/>
</linearGradient>
<linearGradient id="paint30_linear_12563_74054" x1="253.87" y1="75.2893" x2="250.332" y2="75.4193" gradientUnits="userSpaceOnUse">
<stop stop-color="#F0DADF"/>
<stop offset="0.08" stop-color="#F1DEE2"/>
<stop offset="0.65" stop-color="#FBF6F7"/>
<stop offset="1" stop-color="white"/>
</linearGradient>
<linearGradient id="paint31_linear_12563_74054" x1="250.488" y1="105.58" x2="247.502" y2="81.2238" gradientUnits="userSpaceOnUse">
<stop stop-color="#FEADAD"/>
<stop offset="0.37" stop-color="#FEB5B5"/>
<stop offset="0.96" stop-color="#FECDCD"/>
<stop offset="1" stop-color="#FED0D0"/>
</linearGradient>
<linearGradient id="paint32_linear_12563_74054" x1="249.67" y1="87.738" x2="252.161" y2="82.7742" gradientUnits="userSpaceOnUse">
<stop stop-color="#FFC8C8"/>
<stop offset="0.65" stop-color="#FED0D0"/>
<stop offset="1" stop-color="#FED8D8"/>
</linearGradient>
<linearGradient id="paint33_linear_12563_74054" x1="261.311" y1="68.8739" x2="266.212" y2="61.8703" gradientUnits="userSpaceOnUse">
<stop stop-color="#FEADAD"/>
<stop offset="0.37" stop-color="#FEB5B5"/>
<stop offset="0.96" stop-color="#FECDCD"/>
<stop offset="1" stop-color="#FED0D0"/>
</linearGradient>
<linearGradient id="paint34_linear_12563_74054" x1="265.176" y1="103.778" x2="262.191" y2="79.4221" gradientUnits="userSpaceOnUse">
<stop stop-color="#FEADAD"/>
<stop offset="0.31" stop-color="#FEB5B5"/>
<stop offset="0.82" stop-color="#FECDCD"/>
<stop offset="1" stop-color="#FED8D8"/>
</linearGradient>
<linearGradient id="paint35_linear_12563_74054" x1="262.704" y1="104.081" x2="259.718" y2="79.7255" gradientUnits="userSpaceOnUse">
<stop stop-color="#FEADAD"/>
<stop offset="0.31" stop-color="#FEB5B5"/>
<stop offset="0.82" stop-color="#FECDCD"/>
<stop offset="1" stop-color="#FED8D8"/>
</linearGradient>
<linearGradient id="paint36_linear_12563_74054" x1="250.504" y1="88.1594" x2="252.998" y2="83.1949" gradientUnits="userSpaceOnUse">
<stop stop-color="#FFC8C8"/>
<stop offset="0.65" stop-color="#FED0D0"/>
<stop offset="1" stop-color="#FED8D8"/>
</linearGradient>
<linearGradient id="paint37_linear_12563_74054" x1="249.161" y1="87.4832" x2="251.654" y2="82.5218" gradientUnits="userSpaceOnUse">
<stop stop-color="#FFC8C8"/>
<stop offset="0.65" stop-color="#FED0D0"/>
<stop offset="1" stop-color="#FED8D8"/>
</linearGradient>
<linearGradient id="paint38_linear_12563_74054" x1="181.126" y1="154.454" x2="200.284" y2="139.903" gradientUnits="userSpaceOnUse">
<stop stop-color="#FEADAD"/>
<stop offset="0.37" stop-color="#FEB5B5"/>
<stop offset="0.96" stop-color="#FECDCD"/>
<stop offset="1" stop-color="#FED0D0"/>
</linearGradient>
<linearGradient id="paint39_linear_12563_74054" x1="180.162" y1="153.183" x2="199.322" y2="138.632" gradientUnits="userSpaceOnUse">
<stop stop-color="#FEADAD"/>
<stop offset="0.37" stop-color="#FEB5B5"/>
<stop offset="0.96" stop-color="#FECDCD"/>
<stop offset="1" stop-color="#FED0D0"/>
</linearGradient>
<linearGradient id="paint40_linear_12563_74054" x1="185.745" y1="160.536" x2="204.906" y2="145.985" gradientUnits="userSpaceOnUse">
<stop stop-color="#FEADAD"/>
<stop offset="0.37" stop-color="#FEB5B5"/>
<stop offset="0.96" stop-color="#FECDCD"/>
<stop offset="1" stop-color="#FED0D0"/>
</linearGradient>
<linearGradient id="paint41_linear_12563_74054" x1="192.263" y1="169.118" x2="211.424" y2="154.568" gradientUnits="userSpaceOnUse">
<stop stop-color="#FEADAD"/>
<stop offset="0.37" stop-color="#FEB5B5"/>
<stop offset="0.96" stop-color="#FECDCD"/>
<stop offset="1" stop-color="#FED0D0"/>
</linearGradient>
<linearGradient id="paint42_linear_12563_74054" x1="190.859" y1="167.27" x2="210.019" y2="152.719" gradientUnits="userSpaceOnUse">
<stop stop-color="#FEADAD"/>
<stop offset="0.37" stop-color="#FEB5B5"/>
<stop offset="0.96" stop-color="#FECDCD"/>
<stop offset="1" stop-color="#FED0D0"/>
</linearGradient>
<linearGradient id="paint43_linear_12563_74054" x1="188.962" y1="164.772" x2="208.123" y2="150.222" gradientUnits="userSpaceOnUse">
<stop stop-color="#FEADAD"/>
<stop offset="0.37" stop-color="#FEB5B5"/>
<stop offset="0.96" stop-color="#FECDCD"/>
<stop offset="1" stop-color="#FED0D0"/>
</linearGradient>
<linearGradient id="paint44_linear_12563_74054" x1="186.101" y1="161.004" x2="205.262" y2="146.454" gradientUnits="userSpaceOnUse">
<stop stop-color="#FEADAD"/>
<stop offset="0.37" stop-color="#FEB5B5"/>
<stop offset="0.96" stop-color="#FECDCD"/>
<stop offset="1" stop-color="#FED0D0"/>
</linearGradient>
<linearGradient id="paint45_linear_12563_74054" x1="197.652" y1="38.0588" x2="257.123" y2="38.0588" gradientUnits="userSpaceOnUse">
<stop stop-color="#48E3FF"/>
<stop offset="1" stop-color="#48E3FF"/>
</linearGradient>
<linearGradient id="paint46_linear_12563_74054" x1="193.704" y1="22.0047" x2="209.724" y2="22.0047" gradientUnits="userSpaceOnUse">
<stop stop-color="#FDC500"/>
<stop offset="0.41" stop-color="#FDC100"/>
<stop offset="0.74" stop-color="#FDB700"/>
<stop offset="0.99" stop-color="#FDAA00"/>
</linearGradient>
<linearGradient id="paint47_linear_12563_74054" x1="231.964" y1="17.5351" x2="235.183" y2="4.76016" gradientUnits="userSpaceOnUse">
<stop stop-color="#FDF150"/>
<stop offset="0.07" stop-color="#FDED46"/>
<stop offset="0.27" stop-color="#FDE32E"/>
<stop offset="0.48" stop-color="#FDDD1E"/>
<stop offset="0.71" stop-color="#FDD914"/>
<stop offset="1" stop-color="#FDD811"/>
</linearGradient>
<linearGradient id="paint48_linear_12563_74054" x1="205.17" y1="20.6258" x2="231.621" y2="20.6258" gradientUnits="userSpaceOnUse">
<stop stop-color="#FDC500"/>
<stop offset="0.1" stop-color="#FDC500"/>
<stop offset="1" stop-color="#FDC500"/>
</linearGradient>
<linearGradient id="paint49_linear_12563_74054" x1="101.32" y1="112.85" x2="66.8412" y2="63.7833" gradientUnits="userSpaceOnUse">
<stop stop-color="#32333B"/>
<stop offset="0.42" stop-color="#35353E"/>
<stop offset="0.74" stop-color="#3E3F47"/>
<stop offset="1" stop-color="#4D4D56"/>
</linearGradient>
<linearGradient id="paint50_linear_12563_74054" x1="110.2" y1="106.612" x2="75.7209" y2="57.5451" gradientUnits="userSpaceOnUse">
<stop stop-color="#32333B"/>
<stop offset="0.42" stop-color="#35353E"/>
<stop offset="0.74" stop-color="#3E3F47"/>
<stop offset="1" stop-color="#4D4D56"/>
</linearGradient>
<linearGradient id="paint51_linear_12563_74054" x1="84.6551" y1="99.9557" x2="88.8938" y2="112.944" gradientUnits="userSpaceOnUse">
<stop stop-color="#FE9C9C"/>
<stop offset="0.09" stop-color="#FE9F9F"/>
<stop offset="0.55" stop-color="#FEABAB"/>
<stop offset="0.99" stop-color="#FEB0B0"/>
</linearGradient>
<linearGradient id="paint52_linear_12563_74054" x1="83.9633" y1="100.11" x2="87.6875" y2="103.46" gradientUnits="userSpaceOnUse">
<stop stop-color="#FEC9C9"/>
<stop offset="0.14" stop-color="#F8C8C8"/>
<stop offset="0.57" stop-color="#ECC7C7"/>
<stop offset="0.99" stop-color="#E8C7C7"/>
</linearGradient>
<linearGradient id="paint53_linear_12563_74054" x1="90.2935" y1="99.3189" x2="74.8162" y2="64.4783" gradientUnits="userSpaceOnUse">
<stop stop-color="#FEC3C3"/>
<stop offset="0.76" stop-color="#FECBCB"/>
<stop offset="1" stop-color="#FED0D0"/>
</linearGradient>
<radialGradient id="paint54_radial_12563_74054" cx="0" cy="0" r="1" gradientTransform="matrix(2.12653 0.649002 -0.650146 2.12279 71.4741 74.1527)" gradientUnits="userSpaceOnUse">
<stop stop-color="#5F5F67"/>
<stop offset="0.18" stop-color="#4B4B53"/>
<stop offset="0.38" stop-color="#3D3D45"/>
<stop offset="0.62" stop-color="#34353D"/>
<stop offset="1" stop-color="#32333B"/>
</radialGradient>
<radialGradient id="paint55_radial_12563_74054" cx="0" cy="0" r="1" gradientTransform="matrix(2.12653 0.649001 -0.650147 2.12279 80.8278 77.0075)" gradientUnits="userSpaceOnUse">
<stop stop-color="#5F5F67"/>
<stop offset="0.18" stop-color="#4B4B53"/>
<stop offset="0.38" stop-color="#3D3D45"/>
<stop offset="0.62" stop-color="#34353D"/>
<stop offset="1" stop-color="#32333B"/>
</radialGradient>
<linearGradient id="paint56_linear_12563_74054" x1="102.539" y1="93.4958" x2="86.7117" y2="57.8617" gradientUnits="userSpaceOnUse">
<stop stop-color="#FEC3C3"/>
<stop offset="0.76" stop-color="#FECBCB"/>
<stop offset="1" stop-color="#FED0D0"/>
</linearGradient>
<radialGradient id="paint57_radial_12563_74054" cx="0" cy="0" r="1" gradientTransform="matrix(16.3605 2.45535 -2.45968 16.3316 95.1853 78.6061)" gradientUnits="userSpaceOnUse">
<stop stop-color="#D3B0A2"/>
<stop offset="0.17" stop-color="#D6B5A8"/>
<stop offset="0.42" stop-color="#DEC5BA"/>
<stop offset="0.71" stop-color="#EDDED9"/>
<stop offset="1" stop-color="white"/>
</radialGradient>
<linearGradient id="paint58_linear_12563_74054" x1="81.0716" y1="86.7458" x2="68.1313" y2="83.2744" gradientUnits="userSpaceOnUse">
<stop stop-color="#32333B"/>
<stop offset="0.38" stop-color="#36363F"/>
<stop offset="0.78" stop-color="#42424B"/>
<stop offset="1" stop-color="#4D4D56"/>
</linearGradient>
<linearGradient id="paint59_linear_12563_74054" x1="115.853" y1="102.639" x2="81.3771" y2="53.5723" gradientUnits="userSpaceOnUse">
<stop stop-color="#32333B"/>
<stop offset="0.42" stop-color="#35353E"/>
<stop offset="0.74" stop-color="#3E3F47"/>
<stop offset="1" stop-color="#4D4D56"/>
</linearGradient>
<linearGradient id="paint60_linear_12563_74054" x1="94.9475" y1="146.671" x2="24.3137" y2="88.8407" gradientUnits="userSpaceOnUse">
<stop stop-color="#6AC7FF"/>
<stop offset="0.09" stop-color="#61CEFF"/>
<stop offset="0.31" stop-color="#53D9FF"/>
<stop offset="0.57" stop-color="#4AE0FF"/>
<stop offset="1" stop-color="#48E3FF"/>
</linearGradient>
<linearGradient id="paint61_linear_12563_74054" x1="108.456" y1="130.131" x2="45.5269" y2="64.0238" gradientUnits="userSpaceOnUse">
<stop stop-color="#6AC7FF"/>
<stop offset="0.09" stop-color="#61CEFF"/>
<stop offset="0.31" stop-color="#53D9FF"/>
<stop offset="0.57" stop-color="#4AE0FF"/>
<stop offset="1" stop-color="#48E3FF"/>
</linearGradient>
<linearGradient id="paint62_linear_12563_74054" x1="144.567" y1="130.622" x2="134.968" y2="112.99" gradientUnits="userSpaceOnUse">
<stop stop-color="#2FA1FF"/>
<stop offset="0.26" stop-color="#3ABDFF"/>
<stop offset="0.51" stop-color="#41D2FF"/>
<stop offset="0.76" stop-color="#46DEFF"/>
<stop offset="1" stop-color="#48E3FF"/>
</linearGradient>
<linearGradient id="paint63_linear_12563_74054" x1="116.578" y1="122.399" x2="53.6461" y2="56.2915" gradientUnits="userSpaceOnUse">
<stop stop-color="#6AC7FF"/>
<stop offset="0.09" stop-color="#61CEFF"/>
<stop offset="0.31" stop-color="#53D9FF"/>
<stop offset="0.57" stop-color="#4AE0FF"/>
<stop offset="1" stop-color="#48E3FF"/>
</linearGradient>
<linearGradient id="paint64_linear_12563_74054" x1="85.5415" y1="158.156" x2="14.9077" y2="100.326" gradientUnits="userSpaceOnUse">
<stop stop-color="#6AC7FF"/>
<stop offset="0.09" stop-color="#61CEFF"/>
<stop offset="0.31" stop-color="#53D9FF"/>
<stop offset="0.57" stop-color="#4AE0FF"/>
<stop offset="1" stop-color="#48E3FF"/>
</linearGradient>
<linearGradient id="paint65_linear_12563_74054" x1="89.8635" y1="152.864" x2="19.2325" y2="95.0337" gradientUnits="userSpaceOnUse">
<stop stop-color="#6AC7FF"/>
<stop offset="0.09" stop-color="#61CEFF"/>
<stop offset="0.31" stop-color="#53D9FF"/>
<stop offset="0.57" stop-color="#4AE0FF"/>
<stop offset="1" stop-color="#48E3FF"/>
</linearGradient>
<linearGradient id="paint66_linear_12563_74054" x1="87.7083" y1="155.513" x2="17.0745" y2="97.6825" gradientUnits="userSpaceOnUse">
<stop stop-color="#6AC7FF"/>
<stop offset="0.09" stop-color="#61CEFF"/>
<stop offset="0.31" stop-color="#53D9FF"/>
<stop offset="0.57" stop-color="#4AE0FF"/>
<stop offset="1" stop-color="#48E3FF"/>
</linearGradient>
<linearGradient id="paint67_linear_12563_74054" x1="150.362" y1="141.59" x2="123.465" y2="126.249" gradientUnits="userSpaceOnUse">
<stop stop-color="#00C8FF"/>
<stop offset="0.14" stop-color="#1AD1FF"/>
<stop offset="0.29" stop-color="#2ED9FF"/>
<stop offset="0.46" stop-color="#3CDEFF"/>
<stop offset="0.67" stop-color="#45E2FF"/>
<stop offset="1" stop-color="#48E3FF"/>
</linearGradient>
<linearGradient id="paint68_linear_12563_74054" x1="113.38" y1="163.857" x2="106.092" y2="143.822" gradientUnits="userSpaceOnUse">
<stop stop-color="#E2EFFF"/>
<stop offset="1" stop-color="#F3FFFF"/>
</linearGradient>
<linearGradient id="paint69_linear_12563_74054" x1="143.143" y1="154.246" x2="116.246" y2="138.905" gradientUnits="userSpaceOnUse">
<stop stop-color="#00C8FF"/>
<stop offset="0.14" stop-color="#1AD1FF"/>
<stop offset="0.29" stop-color="#2ED9FF"/>
<stop offset="0.46" stop-color="#3CDEFF"/>
<stop offset="0.67" stop-color="#45E2FF"/>
<stop offset="1" stop-color="#48E3FF"/>
</linearGradient>
<linearGradient id="paint70_linear_12563_74054" x1="99.928" y1="155.507" x2="108.854" y2="154.395" gradientUnits="userSpaceOnUse">
<stop offset="0.28" stop-color="#3A3B43"/>
<stop offset="0.51" stop-color="#3D3E47"/>
<stop offset="0.77" stop-color="#474856"/>
<stop offset="1" stop-color="#555568"/>
</linearGradient>
<linearGradient id="paint71_linear_12563_74054" x1="85.2811" y1="158.478" x2="14.6473" y2="100.644" gradientUnits="userSpaceOnUse">
<stop stop-color="#6AC7FF"/>
<stop offset="0.09" stop-color="#61CEFF"/>
<stop offset="0.31" stop-color="#53D9FF"/>
<stop offset="0.57" stop-color="#4AE0FF"/>
<stop offset="1" stop-color="#48E3FF"/>
</linearGradient>
<linearGradient id="paint72_linear_12563_74054" x1="97.8315" y1="143.146" x2="27.2006" y2="85.3149" gradientUnits="userSpaceOnUse">
<stop stop-color="#6AC7FF"/>
<stop offset="0.09" stop-color="#61CEFF"/>
<stop offset="0.31" stop-color="#53D9FF"/>
<stop offset="0.57" stop-color="#4AE0FF"/>
<stop offset="1" stop-color="#48E3FF"/>
</linearGradient>
<linearGradient id="paint73_linear_12563_74054" x1="41.7539" y1="68.1786" x2="47.7994" y2="60.8988" gradientUnits="userSpaceOnUse">
<stop offset="0.28" stop-color="#3A3B43"/>
<stop offset="0.51" stop-color="#3D3E47"/>
<stop offset="0.77" stop-color="#474856"/>
<stop offset="1" stop-color="#555568"/>
</linearGradient>
<linearGradient id="paint74_linear_12563_74054" x1="81.493" y1="100.987" x2="85.7318" y2="113.975" gradientUnits="userSpaceOnUse">
<stop stop-color="#FE9C9C"/>
<stop offset="0.09" stop-color="#FE9F9F"/>
<stop offset="0.55" stop-color="#FEABAB"/>
<stop offset="0.99" stop-color="#FEB0B0"/>
</linearGradient>
<linearGradient id="paint75_linear_12563_74054" x1="67.7226" y1="54.1651" x2="71.5563" y2="58.9292" gradientUnits="userSpaceOnUse">
<stop stop-color="#FEA5A5"/>
<stop offset="0.31" stop-color="#FEADAD"/>
<stop offset="0.82" stop-color="#FEC5C5"/>
<stop offset="1" stop-color="#FED0D0"/>
</linearGradient>
<linearGradient id="paint76_linear_12563_74054" x1="57.9445" y1="72.7139" x2="61.8255" y2="59.5147" gradientUnits="userSpaceOnUse">
<stop stop-color="#FEC3C3"/>
<stop offset="0.76" stop-color="#FECBCB"/>
<stop offset="1" stop-color="#FED0D0"/>
</linearGradient>
<linearGradient id="paint77_linear_12563_74054" x1="42.0687" y1="68.1999" x2="45.9325" y2="55.0523" gradientUnits="userSpaceOnUse">
<stop stop-color="#FEC3C3"/>
<stop offset="0.76" stop-color="#FECBCB"/>
<stop offset="1" stop-color="#FED0D0"/>
</linearGradient>
<linearGradient id="paint78_linear_12563_74054" x1="113.988" y1="162.776" x2="79.7209" y2="145.099" gradientUnits="userSpaceOnUse">
<stop stop-color="#FEC3C3"/>
<stop offset="0.76" stop-color="#FECBCB"/>
<stop offset="0.83" stop-color="#FECDCD"/>
<stop offset="1" stop-color="#FED0D0"/>
</linearGradient>
<linearGradient id="paint79_linear_12563_74054" x1="103.667" y1="165.734" x2="76.3628" y2="151.65" gradientUnits="userSpaceOnUse">
<stop stop-color="#FEC3C3"/>
<stop offset="0.76" stop-color="#FECBCB"/>
<stop offset="0.83" stop-color="#FECDCD"/>
<stop offset="1" stop-color="#FED0D0"/>
</linearGradient>
<linearGradient id="paint80_linear_12563_74054" x1="102.547" y1="167.906" x2="75.2425" y2="153.822" gradientUnits="userSpaceOnUse">
<stop stop-color="#FEC3C3"/>
<stop offset="0.76" stop-color="#FECBCB"/>
<stop offset="0.83" stop-color="#FECDCD"/>
<stop offset="1" stop-color="#FED0D0"/>
</linearGradient>
<linearGradient id="paint81_linear_12563_74054" x1="101.671" y1="169.604" x2="74.3668" y2="155.52" gradientUnits="userSpaceOnUse">
<stop stop-color="#FEC3C3"/>
<stop offset="0.76" stop-color="#FECBCB"/>
<stop offset="0.83" stop-color="#FECDCD"/>
<stop offset="1" stop-color="#FED0D0"/>
</linearGradient>
<linearGradient id="paint82_linear_12563_74054" x1="100.869" y1="171.158" x2="73.5649" y2="157.074" gradientUnits="userSpaceOnUse">
<stop stop-color="#FEC3C3"/>
<stop offset="0.76" stop-color="#FECBCB"/>
<stop offset="0.83" stop-color="#FECDCD"/>
<stop offset="1" stop-color="#FED0D0"/>
</linearGradient>
<linearGradient id="paint83_linear_12563_74054" x1="93.4572" y1="211.297" x2="106.479" y2="140.124" gradientUnits="userSpaceOnUse">
<stop stop-color="#FEC3C3"/>
<stop offset="0.76" stop-color="#FECBCB"/>
<stop offset="0.83" stop-color="#FECDCD"/>
<stop offset="1" stop-color="#FED0D0"/>
</linearGradient>
<clipPath id="clip0_12563_74054">
<rect width="151" height="171" fill="white" transform="translate(121)"/>
</clipPath>
<clipPath id="clip1_12563_74054">
<rect width="164" height="150" fill="white" transform="translate(0 29)"/>
</clipPath>
</defs>
</svg>
