<svg width="1926" height="145" viewBox="0 0 1926 145" fill="none" xmlns="http://www.w3.org/2000/svg">
<path d="M0.289062 143.793C57.394 103.282 130.883 12.0108 273.793 12.0108C452.432 12.0108 598.277 152.579 716.88 143.793C875.175 132.067 959.934 -38.5758 1152.91 102.086C1320.68 224.374 1441.45 -21.3414 1606.91 2.08655C1772.37 25.5145 1768.08 143.793 1921.83 127.071" stroke="#D8E5FD"/>
<path d="M2.28906 39.5743C89.7959 8.08643 177.796 -6.91395 301.796 75.0864C342.936 102.292 476.167 148.728 587.796 121.087C692.796 95.0864 718.796 16.0864 839.796 25.0864C894.095 29.1252 1022.8 116.086 1142.8 109.086C1262.8 102.086 1337.8 -4.91357 1479.8 66.0864C1621.8 137.086 1816.78 111.438 1922.8 11.8188" stroke="#CDD1D5" stroke-dasharray="4 4"/>
<path d="M0.289062 62.9598C87.5107 62.9598 178.511 143.587 275.449 143.587C418.067 143.587 412.582 7.08643 531.511 7.08643C649.507 7.08643 682.283 140.384 843.511 126.086C935.123 117.962 995.511 14.0864 1107.51 19.0864C1219.51 24.0864 1252.23 98.4146 1420.03 115.915C1587.84 133.416 1621.93 -51.1716 1925.51 87.0864" stroke="#B1CEFB" stroke-width="2"/>
</svg>
