<svg width="169" height="33" viewBox="0 0 169 33" fill="none" xmlns="http://www.w3.org/2000/svg">
<g clip-path="url(#clip0_11663_10928)">
<mask id="mask0_11663_10928" style="mask-type:luminance" maskUnits="userSpaceOnUse" x="0" y="-1" width="29" height="34">
<path d="M28.805 -0.5H0V32.1119H28.805V-0.5Z" fill="white"/>
</mask>
<g mask="url(#mask0_11663_10928)">
<path d="M22.5543 0.915012C21.8988 -0.499644 19.8227 -0.925191 17.9078 -0.0395919C15.9928 0.846004 14.9749 2.70922 15.6305 4.11812C16.2861 5.52703 18.3679 5.95832 20.2771 5.06698C22.1862 4.18138 23.2099 2.31817 22.5543 0.909264" fill="#E7290F"/>
<path d="M17.3499 28.7532C18.0112 28.5174 15.6879 29.6273 15.0956 29.9436C13.2554 30.9097 11.0472 31.433 9.34499 31.7953C5.9406 32.5199 3.00202 32.0081 1.34584 30.0759C-1.97228 26.2114 1.08706 18.1548 8.17186 12.0763C11.7143 9.03423 15.5902 7.06754 19.0003 6.34295C20.7025 5.98067 22.2897 5.92891 23.6583 6.20494C23.6583 6.20494 27.4882 6.84326 25.6193 11.5416C25.6193 11.5416 20.7543 22.1227 7.06198 27.9596C7.06198 27.9596 15.8432 21.8007 20.0756 14.1178C20.0756 14.1178 23.4398 8.57992 18.293 8.67773C18.293 8.67773 16.1078 8.66049 12.7206 10.6329C9.73604 12.2661 5.97511 15.2564 3.92213 20.4205C3.92213 20.4205 0.385483 28.851 10.1788 29.7423C10.1788 29.7423 13.7213 30.0643 17.3499 28.7647" fill="#004998"/>
<path d="M25.1131 13.9917C24.5668 14.8083 23.4915 16.3667 22.4161 17.7239C23.6697 17.8274 24.9003 18.1609 24.0205 20.6049C24.0205 20.6049 22.5713 24.3601 18.3389 28.1555C18.3389 28.1555 25.4869 23.9978 28.0517 18.5289C28.0517 18.5289 31.042 12.7554 25.1131 13.9917Z" fill="#10A035"/>
</g>
<path d="M44.5992 12.2119V11.7979H38.0652V9.96191H53.5452V11.7979H47.0112V12.2119C47.5512 12.3199 48.0432 12.4879 48.4872 12.7159C48.9432 12.9439 49.3452 13.2499 49.6932 13.6339C50.3892 14.3659 50.7372 15.2419 50.7372 16.2619C50.7372 16.8739 50.6052 17.4319 50.3412 17.9359C50.0892 18.4519 49.7412 18.8959 49.2972 19.2679C48.8412 19.6279 48.3132 19.9039 47.7132 20.0959C47.1252 20.2999 46.4892 20.4019 45.8052 20.4019C45.1092 20.4019 44.4612 20.2999 43.8612 20.0959C43.2612 19.9039 42.7452 19.6279 42.3132 19.2679C41.8572 18.8959 41.5032 18.4519 41.2512 17.9359C40.9992 17.4319 40.8732 16.8739 40.8732 16.2619C40.8732 15.2419 41.2212 14.3659 41.9172 13.6339C42.2652 13.2499 42.6612 12.9439 43.1052 12.7159C43.5612 12.4879 44.0592 12.3199 44.5992 12.2119ZM45.8052 14.1019C45.4452 14.1019 45.1092 14.1559 44.7972 14.2639C44.4852 14.3719 44.2152 14.5219 43.9872 14.7139C43.7712 14.9059 43.5972 15.1339 43.4652 15.3979C43.3452 15.6619 43.2852 15.9499 43.2852 16.2619C43.2852 16.9099 43.5192 17.4259 43.9872 17.8099C44.4672 18.2059 45.0732 18.4039 45.8052 18.4039C46.1652 18.4039 46.4952 18.3499 46.7952 18.2419C47.1072 18.1459 47.3772 18.0019 47.6052 17.8099C47.8332 17.6179 48.0072 17.3899 48.1272 17.1259C48.2592 16.8619 48.3252 16.5739 48.3252 16.2619C48.3252 15.9499 48.2592 15.6619 48.1272 15.3979C48.0072 15.1339 47.8332 14.9059 47.6052 14.7139C47.3772 14.5219 47.1072 14.3719 46.7952 14.2639C46.4952 14.1559 46.1652 14.1019 45.8052 14.1019ZM45.8052 7.58591C45.4092 8.14991 44.6532 8.61791 43.5372 8.98991C42.4332 9.34991 40.8852 9.52991 38.8932 9.52991V7.56791C40.1652 7.56791 41.2872 7.45991 42.2592 7.24391C43.2432 7.02791 43.9272 6.64991 44.3112 6.10991H38.8932V4.23791H44.5992V2.92391H47.0112V4.23791H52.7172V6.10991H47.2992C47.4792 6.38591 47.7432 6.61991 48.0912 6.81191C48.4392 6.99191 48.8472 7.14191 49.3152 7.26191C49.7952 7.36991 50.3232 7.44791 50.8992 7.49591C51.4752 7.54391 52.0812 7.56791 52.7172 7.56791V9.52991C50.7252 9.52991 49.1712 9.34991 48.0552 8.98991C46.9392 8.61791 46.1892 8.14991 45.8052 7.58591ZM71.5012 12.6619H69.8272C70.2712 13.0819 70.6132 13.5619 70.8532 14.1019C71.1052 14.6419 71.2312 15.2179 71.2312 15.8299C71.2312 16.5139 71.0812 17.1439 70.7812 17.7199C70.4932 18.3079 70.0792 18.8179 69.5392 19.2499C68.9992 19.6579 68.3692 19.9819 67.6492 20.2219C66.9412 20.4619 66.1552 20.5819 65.2912 20.5819C64.4272 20.5819 63.6352 20.4619 62.9152 20.2219C62.1952 19.9819 61.5652 19.6579 61.0252 19.2499C60.4852 18.8179 60.0712 18.3079 59.7832 17.7199C59.4952 17.1439 59.3512 16.5139 59.3512 15.8299C59.3512 15.2899 59.4412 14.7859 59.6212 14.3179C59.8012 13.8499 60.0592 13.4239 60.3952 13.0399C60.7312 12.6559 61.1332 12.3259 61.6012 12.0499C62.0692 11.7619 62.5912 11.5339 63.1672 11.3659C62.4472 10.9459 61.9312 10.4419 61.6192 9.85391C61.4272 10.1899 61.1692 10.5019 60.8452 10.7899C60.5332 11.0779 60.1732 11.3299 59.7652 11.5459C59.3572 11.7619 58.9012 11.9299 58.3972 12.0499C57.9052 12.1699 57.3832 12.2299 56.8312 12.2299V10.0699C57.4192 10.0099 57.9292 9.87791 58.3612 9.67391C58.7932 9.46991 59.1532 9.20591 59.4412 8.88191C60.0052 8.24591 60.2872 7.47791 60.2872 6.57791H56.9572V4.41791H60.4132V2.92391H62.8432V4.41791H66.2812V6.57791H62.9512C62.9512 7.48991 63.2272 8.25791 63.7792 8.88191C64.0552 9.20591 64.4092 9.46991 64.8412 9.67391C65.2732 9.87791 65.7952 10.0099 66.4072 10.0699V11.1499C66.9232 11.2219 67.3972 11.3419 67.8292 11.5099C68.2732 11.6659 68.6932 11.8639 69.0892 12.1039V9.25991H66.2632V7.09991H69.0892V3.96791H71.5012V12.6619ZM65.2912 13.3819C64.7632 13.3819 64.2952 13.4479 63.8872 13.5799C63.4792 13.6999 63.1312 13.8679 62.8432 14.0839C62.5552 14.2999 62.3332 14.5579 62.1772 14.8579C62.0332 15.1579 61.9612 15.4819 61.9612 15.8299C61.9612 16.5499 62.2492 17.1319 62.8252 17.5759C63.4132 18.0319 64.2352 18.2599 65.2912 18.2599C66.3472 18.2599 67.1632 18.0319 67.7392 17.5759C68.3272 17.1319 68.6212 16.5499 68.6212 15.8299C68.6212 15.1099 68.3272 14.5219 67.7392 14.0659C67.1632 13.6099 66.3472 13.3819 65.2912 13.3819ZM87.4592 11.9239V3.96791H89.8712V6.84791H92.4092V9.00791H89.8712V11.9239H87.4592ZM87.4592 15.1279H79.3052V17.4139H87.4592V15.1279ZM76.8932 17.6659V12.9679H88.5932C88.9892 12.9679 89.3012 13.0939 89.5292 13.3459C89.7572 13.5859 89.8712 13.8859 89.8712 14.2459V19.5739H78.7832C78.1952 19.5739 77.7332 19.3879 77.3972 19.0159C77.0612 18.6559 76.8932 18.2059 76.8932 17.6659ZM76.0652 9.61991V3.96791H78.4772V9.49391H85.8032V11.6539H77.7932C77.5532 11.6539 77.3252 11.6059 77.1092 11.5099C76.9052 11.4019 76.7252 11.2579 76.5692 11.0779C76.4132 10.8859 76.2872 10.6699 76.1912 10.4299C76.1072 10.1779 76.0652 9.90791 76.0652 9.61991ZM95.8932 10.8799V5.82191C95.8932 5.58191 95.9412 5.35391 96.0372 5.13791C96.1332 4.90991 96.2592 4.71191 96.4152 4.54391C96.5832 4.36391 96.7812 4.22591 97.0092 4.12991C97.2372 4.02191 97.4832 3.96791 97.7472 3.96791H109.753V6.12791H98.5932C98.4612 6.12791 98.3772 6.15791 98.3412 6.21791C98.3052 6.27791 98.2872 6.35591 98.2872 6.45191V10.2679C98.2872 10.3759 98.3052 10.4599 98.3412 10.5199C98.3772 10.5679 98.4612 10.5919 98.5932 10.5919H109.753V12.7519H104.011V16.4059H110.509V18.5659H95.1012V16.4059H101.599V12.7519H97.7472C97.4832 12.7519 97.2372 12.7039 97.0092 12.6079C96.7812 12.5119 96.5832 12.3799 96.4152 12.2119C96.2592 12.0319 96.1332 11.8279 96.0372 11.5999C95.9412 11.3719 95.8932 11.1319 95.8932 10.8799ZM126.305 6.12791H114.659V3.96791H126.845C127.109 3.96791 127.355 4.02191 127.583 4.12991C127.811 4.22591 128.009 4.36391 128.177 4.54391C128.345 4.71191 128.477 4.90991 128.573 5.13791C128.669 5.35391 128.717 5.58191 128.717 5.82191V16.4059H129.545V18.5659H114.065V16.4059H116.639V9.90791H119.051V16.4059H121.679V9.90791H124.091V16.4059H126.305V6.12791ZM140.805 3.12191C141.489 3.12191 142.125 3.24191 142.713 3.48191C143.313 3.70991 143.835 4.01591 144.279 4.39991C144.723 4.81991 145.071 5.29391 145.323 5.82191C145.575 6.34991 145.701 6.93791 145.701 7.58591C145.701 8.13791 145.599 8.64191 145.395 9.09791C145.203 9.55391 144.939 9.95591 144.603 10.3039H148.545V12.4639H145.251V13.9399H146.421C146.829 13.9399 147.147 14.0599 147.375 14.2999C147.603 14.5279 147.717 14.8339 147.717 15.2179V19.5739H145.305V16.0999H133.659V13.9399H136.359V12.4639H133.065V10.3039H137.007C136.659 9.95591 136.389 9.55391 136.197 9.09791C136.005 8.64191 135.909 8.13791 135.909 7.58591C135.909 6.93791 136.029 6.34991 136.269 5.82191C136.521 5.29391 136.869 4.81991 137.313 4.39991C137.745 4.01591 138.261 3.70991 138.861 3.48191C139.461 3.24191 140.109 3.12191 140.805 3.12191ZM140.805 5.28191C140.445 5.28191 140.109 5.34191 139.797 5.46191C139.497 5.58191 139.239 5.74391 139.023 5.94791C138.807 6.15191 138.633 6.39791 138.501 6.68591C138.381 6.96191 138.321 7.26191 138.321 7.58591C138.321 7.90991 138.381 8.20991 138.501 8.48591C138.633 8.76191 138.807 9.00791 139.023 9.22391C139.239 9.42791 139.497 9.58991 139.797 9.70991C140.109 9.82991 140.445 9.88991 140.805 9.88991C141.537 9.88991 142.125 9.66791 142.569 9.22391C143.049 8.77991 143.289 8.23391 143.289 7.58591C143.289 7.26191 143.223 6.96191 143.091 6.68591C142.971 6.39791 142.797 6.15191 142.569 5.94791C142.353 5.74391 142.095 5.58191 141.795 5.46191C141.495 5.34191 141.165 5.28191 140.805 5.28191ZM138.771 13.9399H142.839V12.4639H138.771V13.9399ZM166.501 12.6619H164.827C165.271 13.0819 165.613 13.5619 165.853 14.1019C166.105 14.6419 166.231 15.2179 166.231 15.8299C166.231 16.5139 166.081 17.1439 165.781 17.7199C165.493 18.3079 165.079 18.8179 164.539 19.2499C163.999 19.6579 163.369 19.9819 162.649 20.2219C161.941 20.4619 161.155 20.5819 160.291 20.5819C159.427 20.5819 158.635 20.4619 157.915 20.2219C157.195 19.9819 156.565 19.6579 156.025 19.2499C155.485 18.8179 155.071 18.3079 154.783 17.7199C154.495 17.1439 154.351 16.5139 154.351 15.8299C154.351 15.2899 154.441 14.7859 154.621 14.3179C154.801 13.8499 155.059 13.4239 155.395 13.0399C155.731 12.6559 156.133 12.3259 156.601 12.0499C157.069 11.7619 157.591 11.5339 158.167 11.3659C157.447 10.9459 156.931 10.4419 156.619 9.85391C156.427 10.1899 156.169 10.5019 155.845 10.7899C155.533 11.0779 155.173 11.3299 154.765 11.5459C154.357 11.7619 153.901 11.9299 153.397 12.0499C152.905 12.1699 152.383 12.2299 151.831 12.2299V10.0699C152.419 10.0099 152.929 9.87791 153.361 9.67391C153.793 9.46991 154.153 9.20591 154.441 8.88191C155.005 8.24591 155.287 7.47791 155.287 6.57791H151.957V4.41791H155.413V2.92391H157.843V4.41791H161.281V6.57791H157.951C157.951 7.48991 158.227 8.25791 158.779 8.88191C159.055 9.20591 159.409 9.46991 159.841 9.67391C160.273 9.87791 160.795 10.0099 161.407 10.0699V11.1499C161.923 11.2219 162.397 11.3419 162.829 11.5099C163.273 11.6659 163.693 11.8639 164.089 12.1039V9.25991H161.263V7.09991H164.089V3.96791H166.501V12.6619ZM160.291 13.3819C159.763 13.3819 159.295 13.4479 158.887 13.5799C158.479 13.6999 158.131 13.8679 157.843 14.0839C157.555 14.2999 157.333 14.5579 157.177 14.8579C157.033 15.1579 156.961 15.4819 156.961 15.8299C156.961 16.5499 157.249 17.1319 157.825 17.5759C158.413 18.0319 159.235 18.2599 160.291 18.2599C161.347 18.2599 162.163 18.0319 162.739 17.5759C163.327 17.1319 163.621 16.5499 163.621 15.8299C163.621 15.1099 163.327 14.5219 162.739 14.0659C162.163 13.6099 161.347 13.3819 160.291 13.3819Z" fill="#464C53"/>
<path d="M40.3272 27.6219L40.4772 28.2999C40.3252 28.3679 40.1512 28.4199 39.9552 28.4559C39.7632 28.4919 39.5412 28.5099 39.2892 28.5099C38.5972 28.5099 38.0452 28.3059 37.6332 27.8979C37.2252 27.4899 37.0212 26.9339 37.0212 26.2299C37.0212 25.5059 37.2412 24.9299 37.6812 24.5019C38.1172 24.0659 38.6912 23.8479 39.4032 23.8479C39.8712 23.8479 40.2412 23.9179 40.5132 24.0579L40.3212 24.7419C40.0572 24.6219 39.7612 24.5619 39.4332 24.5619C39.1812 24.5619 38.9572 24.6019 38.7612 24.6819C38.5652 24.7579 38.4012 24.8679 38.2692 25.0119C38.1372 25.1519 38.0352 25.3239 37.9632 25.5279C37.8952 25.7279 37.8612 25.9499 37.8612 26.1939C37.8612 26.4339 37.8952 26.6519 37.9632 26.8479C38.0352 27.0439 38.1372 27.2119 38.2692 27.3519C38.4012 27.4879 38.5632 27.5939 38.7552 27.6699C38.9512 27.7459 39.1732 27.7839 39.4212 27.7839C39.7612 27.7839 40.0632 27.7299 40.3272 27.6219ZM41.0401 23.9139H41.8441V25.7139H43.7281V23.9139H44.5381V28.4379H43.7281V26.4579H41.8441V28.4379H41.0401V23.9139ZM45.3461 23.9139H46.1561V26.5179C46.1561 27.3859 46.4601 27.8199 47.0681 27.8199C47.7001 27.8199 48.0161 27.3859 48.0161 26.5179V23.9139H48.8261V26.5179C48.8261 27.1419 48.6821 27.6219 48.3941 27.9579C48.0861 28.3259 47.6341 28.5099 47.0381 28.5099C45.9101 28.5099 45.3461 27.8459 45.3461 26.5179V23.9139ZM50.3733 28.4379H49.6233V23.9139H50.5233L51.7293 25.9059C51.8693 26.1379 51.9973 26.3679 52.1133 26.5959C52.2333 26.8239 52.3433 27.0519 52.4433 27.2799C52.4233 27.0239 52.4093 26.7539 52.4013 26.4699C52.3973 26.1859 52.3953 25.8819 52.3953 25.5579V23.9139H53.1513V28.4379H52.3293L51.1053 26.4099C51.0253 26.2739 50.9473 26.1419 50.8713 26.0139C50.7993 25.8859 50.7293 25.7579 50.6613 25.6299C50.5973 25.5139 50.5373 25.3999 50.4813 25.2879C50.4293 25.1719 50.3773 25.0579 50.3253 24.9459C50.3253 24.9899 50.3253 25.0399 50.3253 25.0959C50.3253 25.1479 50.3273 25.2059 50.3313 25.2699L50.3493 25.8099C50.3573 26.0179 50.3633 26.2019 50.3673 26.3619C50.3713 26.5179 50.3733 26.6479 50.3733 26.7519V28.4379ZM57.5348 25.9239V28.2339C57.0668 28.4019 56.5848 28.4859 56.0888 28.4859C54.9608 28.4859 54.2268 28.0459 53.8868 27.1659C53.7748 26.8899 53.7188 26.5739 53.7188 26.2179C53.7188 25.4819 53.9548 24.9019 54.4268 24.4779C54.8748 24.0699 55.4668 23.8659 56.2028 23.8659C56.6988 23.8659 57.1008 23.9439 57.4088 24.0999L57.2108 24.7779C56.8948 24.6499 56.5548 24.5859 56.1908 24.5859C55.9388 24.5859 55.7128 24.6239 55.5128 24.6999C55.3128 24.7719 55.1408 24.8779 54.9968 25.0179C54.8568 25.1539 54.7488 25.3219 54.6728 25.5219C54.6008 25.7179 54.5648 25.9379 54.5648 26.1819C54.5648 26.6619 54.6988 27.0479 54.9668 27.3399C55.2428 27.6319 55.6268 27.7779 56.1188 27.7779C56.4188 27.7779 56.6268 27.7519 56.7428 27.6999V26.6139H55.9388V25.9239H57.5348ZM61.2842 27.6219L61.4342 28.2999C61.2822 28.3679 61.1082 28.4199 60.9122 28.4559C60.7202 28.4919 60.4982 28.5099 60.2462 28.5099C59.5542 28.5099 59.0022 28.3059 58.5902 27.8979C58.1822 27.4899 57.9782 26.9339 57.9782 26.2299C57.9782 25.5059 58.1982 24.9299 58.6382 24.5019C59.0742 24.0659 59.6482 23.8479 60.3602 23.8479C60.8282 23.8479 61.1982 23.9179 61.4702 24.0579L61.2782 24.7419C61.0142 24.6219 60.7182 24.5619 60.3902 24.5619C60.1382 24.5619 59.9142 24.6019 59.7182 24.6819C59.5222 24.7579 59.3582 24.8679 59.2262 25.0119C59.0942 25.1519 58.9922 25.3239 58.9202 25.5279C58.8522 25.7279 58.8182 25.9499 58.8182 26.1939C58.8182 26.4339 58.8522 26.6519 58.9202 26.8479C58.9922 27.0439 59.0942 27.2119 59.2262 27.3519C59.3582 27.4879 59.5202 27.5939 59.7122 27.6699C59.9082 27.7459 60.1302 27.7839 60.3782 27.7839C60.7182 27.7839 61.0202 27.7299 61.2842 27.6219ZM61.9971 23.9139H62.8011V25.7139H64.6851V23.9139H65.4951V28.4379H64.6851V26.4579H62.8011V28.4379H61.9971V23.9139ZM68.8051 25.7379V26.4399H67.1191V27.7239H69.0031V28.4379H66.3151V23.9139H68.9011V24.6279H67.1191V25.7379H68.8051ZM71.4024 28.5099C70.7584 28.5099 70.2504 28.2859 69.8784 27.8379C69.5184 27.4179 69.3384 26.8759 69.3384 26.2119C69.3384 25.5479 69.5224 24.9899 69.8904 24.5379C70.2784 24.0659 70.8004 23.8299 71.4564 23.8299C72.1044 23.8299 72.6144 24.0499 72.9864 24.4899C73.3544 24.9179 73.5384 25.4659 73.5384 26.1339C73.5384 26.8299 73.3524 27.3959 72.9804 27.8319C72.6004 28.2839 72.0744 28.5099 71.4024 28.5099ZM71.4204 27.8199C71.8404 27.8199 72.1624 27.6399 72.3864 27.2799C72.5784 26.9879 72.6744 26.6139 72.6744 26.1579C72.6744 25.7219 72.5764 25.3579 72.3804 25.0659C72.1564 24.7099 71.8384 24.5319 71.4264 24.5319C71.0024 24.5319 70.6804 24.7139 70.4604 25.0779C70.2724 25.3739 70.1784 25.7459 70.1784 26.1939C70.1784 26.6179 70.2744 26.9819 70.4664 27.2859C70.6904 27.6419 71.0084 27.8199 71.4204 27.8199ZM74.8573 28.4379H74.1073V23.9139H75.0073L76.2133 25.9059C76.3533 26.1379 76.4813 26.3679 76.5973 26.5959C76.7173 26.8239 76.8273 27.0519 76.9273 27.2799C76.9073 27.0239 76.8933 26.7539 76.8853 26.4699C76.8813 26.1859 76.8793 25.8819 76.8793 25.5579V23.9139H77.6353V28.4379H76.8133L75.5893 26.4099C75.5093 26.2739 75.4313 26.1419 75.3553 26.0139C75.2833 25.8859 75.2133 25.7579 75.1453 25.6299C75.0813 25.5139 75.0213 25.3999 74.9653 25.2879C74.9133 25.1719 74.8613 25.0579 74.8093 24.9459C74.8093 24.9899 74.8093 25.0399 74.8093 25.0959C74.8093 25.1479 74.8113 25.2059 74.8153 25.2699L74.8333 25.8099C74.8413 26.0179 74.8473 26.2019 74.8513 26.3619C74.8553 26.5179 74.8573 26.6479 74.8573 26.7519V28.4379ZM82.0188 25.9239V28.2339C81.5508 28.4019 81.0688 28.4859 80.5728 28.4859C79.4448 28.4859 78.7108 28.0459 78.3708 27.1659C78.2588 26.8899 78.2028 26.5739 78.2028 26.2179C78.2028 25.4819 78.4388 24.9019 78.9108 24.4779C79.3588 24.0699 79.9508 23.8659 80.6868 23.8659C81.1828 23.8659 81.5848 23.9439 81.8928 24.0999L81.6948 24.7779C81.3788 24.6499 81.0388 24.5859 80.6748 24.5859C80.4228 24.5859 80.1968 24.6239 79.9968 24.6999C79.7968 24.7719 79.6248 24.8779 79.4808 25.0179C79.3408 25.1539 79.2328 25.3219 79.1568 25.5219C79.0848 25.7179 79.0488 25.9379 79.0488 26.1819C79.0488 26.6619 79.1828 27.0479 79.4508 27.3399C79.7268 27.6319 80.1108 27.7779 80.6028 27.7779C80.9028 27.7779 81.1108 27.7519 81.2268 27.6999V26.6139H80.4228V25.9239H82.0188ZM83.4522 28.4379H82.7022V23.9139H83.6022L84.8082 25.9059C84.9482 26.1379 85.0762 26.3679 85.1922 26.5959C85.3122 26.8239 85.4222 27.0519 85.5222 27.2799C85.5022 27.0239 85.4882 26.7539 85.4802 26.4699C85.4762 26.1859 85.4742 25.8819 85.4742 25.5579V23.9139H86.2302V28.4379H85.4082L84.1842 26.4099C84.1042 26.2739 84.0262 26.1419 83.9502 26.0139C83.8782 25.8859 83.8082 25.7579 83.7402 25.6299C83.6762 25.5139 83.6162 25.3999 83.5602 25.2879C83.5082 25.1719 83.4562 25.0579 83.4042 24.9459C83.4042 24.9899 83.4042 25.0399 83.4042 25.0959C83.4042 25.1479 83.4062 25.2059 83.4102 25.2699L83.4282 25.8099C83.4362 26.0179 83.4422 26.2019 83.4462 26.3619C83.4502 26.5179 83.4522 26.6479 83.4522 26.7519V28.4379ZM89.3417 27.1539H87.9197L87.5177 28.4379H86.6837L88.1537 23.9139H89.1437L90.6377 28.4379H89.7557L89.3417 27.1539ZM88.0817 26.4879H89.1677L88.8257 25.4259C88.7817 25.3059 88.7457 25.1739 88.7177 25.0299L88.6277 24.6639C88.6117 24.7319 88.5857 24.8299 88.5497 24.9579C88.5177 25.0819 88.4737 25.2359 88.4177 25.4199L88.0817 26.4879ZM94.9438 28.4379L94.8358 26.5659V25.8639L94.7938 24.8259C94.7018 25.1139 94.6138 25.3899 94.5298 25.6539C94.4458 25.9139 94.3638 26.1639 94.2838 26.4039L93.5938 28.4019H92.9878L92.3518 26.4279C92.2598 26.1479 92.1798 25.8799 92.1118 25.6239C92.0438 25.3639 91.9818 25.1119 91.9258 24.8679L91.7458 28.4379H90.9838L91.2838 23.9139H92.3098L92.9338 25.7919C93.0138 26.0319 93.0878 26.2739 93.1558 26.5179C93.2238 26.7619 93.2838 27.0099 93.3358 27.2619L93.5218 26.6079C93.5538 26.4919 93.5918 26.3659 93.6358 26.2299C93.6798 26.0939 93.7298 25.9479 93.7858 25.7919L94.4458 23.9139H95.4718L95.7298 28.4379H94.9438ZM96.4295 28.4379V23.9799C96.6335 23.9479 96.8415 23.9239 97.0535 23.9079C97.2695 23.8879 97.4935 23.8779 97.7255 23.8779C98.5215 23.8779 99.1295 24.0519 99.5495 24.3999C100.01 24.7879 100.24 25.3459 100.24 26.0739C100.24 26.8539 100.014 27.4519 99.5615 27.8679C99.1135 28.2799 98.4355 28.4859 97.5275 28.4859C97.3115 28.4859 97.1115 28.4819 96.9275 28.4739C96.7475 28.4699 96.5815 28.4579 96.4295 28.4379ZM97.2335 24.5979V27.7779C97.2855 27.7939 97.4375 27.8019 97.6895 27.8019C98.2575 27.8019 98.6835 27.6579 98.9675 27.3699C99.2515 27.0779 99.3935 26.6539 99.3935 26.0979C99.3935 25.5819 99.2575 25.1979 98.9855 24.9459C98.7175 24.6899 98.3175 24.5619 97.7855 24.5619C97.5975 24.5619 97.4135 24.5739 97.2335 24.5979ZM102.636 28.5099C101.992 28.5099 101.484 28.2859 101.112 27.8379C100.752 27.4179 100.572 26.8759 100.572 26.2119C100.572 25.5479 100.756 24.9899 101.124 24.5379C101.512 24.0659 102.034 23.8299 102.69 23.8299C103.338 23.8299 103.848 24.0499 104.22 24.4899C104.588 24.9179 104.772 25.4659 104.772 26.1339C104.772 26.8299 104.586 27.3959 104.214 27.8319C103.834 28.2839 103.308 28.5099 102.636 28.5099ZM102.654 27.8199C103.074 27.8199 103.396 27.6399 103.62 27.2799C103.812 26.9879 103.908 26.6139 103.908 26.1579C103.908 25.7219 103.81 25.3579 103.614 25.0659C103.39 24.7099 103.072 24.5319 102.66 24.5319C102.236 24.5319 101.914 24.7139 101.694 25.0779C101.506 25.3739 101.412 25.7459 101.412 26.1939C101.412 26.6179 101.508 26.9819 101.7 27.2859C101.924 27.6419 102.242 27.8199 102.654 27.8199ZM108.594 28.5099C107.95 28.5099 107.442 28.2859 107.07 27.8379C106.71 27.4179 106.53 26.8759 106.53 26.2119C106.53 25.5479 106.714 24.9899 107.082 24.5379C107.47 24.0659 107.992 23.8299 108.648 23.8299C109.296 23.8299 109.806 24.0499 110.178 24.4899C110.546 24.9179 110.73 25.4659 110.73 26.1339C110.73 26.8299 110.544 27.3959 110.172 27.8319C109.792 28.2839 109.266 28.5099 108.594 28.5099ZM108.612 27.8199C109.032 27.8199 109.354 27.6399 109.578 27.2799C109.77 26.9879 109.866 26.6139 109.866 26.1579C109.866 25.7219 109.768 25.3579 109.572 25.0659C109.348 24.7099 109.03 24.5319 108.618 24.5319C108.194 24.5319 107.872 24.7139 107.652 25.0779C107.464 25.3739 107.37 25.7459 107.37 26.1939C107.37 26.6179 107.466 26.9819 107.658 27.2859C107.882 27.6419 108.2 27.8199 108.612 27.8199ZM111.299 28.4379V23.9139H113.879V24.6279H112.103V25.8099H113.747V26.5239H112.103V28.4379H111.299ZM114.521 28.4379V23.9139H117.101V24.6279H115.325V25.8099H116.969V26.5239H115.325V28.4379H114.521ZM117.744 23.9139H118.548V28.4379H117.744V23.9139ZM122.426 27.6219L122.576 28.2999C122.424 28.3679 122.25 28.4199 122.054 28.4559C121.862 28.4919 121.64 28.5099 121.388 28.5099C120.696 28.5099 120.144 28.3059 119.732 27.8979C119.324 27.4899 119.12 26.9339 119.12 26.2299C119.12 25.5059 119.34 24.9299 119.78 24.5019C120.216 24.0659 120.79 23.8479 121.502 23.8479C121.97 23.8479 122.34 23.9179 122.612 24.0579L122.42 24.7419C122.156 24.6219 121.86 24.5619 121.532 24.5619C121.28 24.5619 121.056 24.6019 120.86 24.6819C120.664 24.7579 120.5 24.8679 120.368 25.0119C120.236 25.1519 120.134 25.3239 120.062 25.5279C119.994 25.7279 119.96 25.9499 119.96 26.1939C119.96 26.4339 119.994 26.6519 120.062 26.8479C120.134 27.0439 120.236 27.2119 120.368 27.3519C120.5 27.4879 120.662 27.5939 120.854 27.6699C121.05 27.7459 121.272 27.7839 121.52 27.7839C121.86 27.7839 122.162 27.7299 122.426 27.6219ZM125.629 25.7379V26.4399H123.943V27.7239H125.827V28.4379H123.139V23.9139H125.725V24.6279H123.943V25.7379H125.629ZM129.656 28.5099C129.012 28.5099 128.504 28.2859 128.132 27.8379C127.772 27.4179 127.592 26.8759 127.592 26.2119C127.592 25.5479 127.776 24.9899 128.144 24.5379C128.532 24.0659 129.054 23.8299 129.71 23.8299C130.358 23.8299 130.868 24.0499 131.24 24.4899C131.608 24.9179 131.792 25.4659 131.792 26.1339C131.792 26.8299 131.606 27.3959 131.234 27.8319C130.854 28.2839 130.328 28.5099 129.656 28.5099ZM129.674 27.8199C130.094 27.8199 130.416 27.6399 130.64 27.2799C130.832 26.9879 130.928 26.6139 130.928 26.1579C130.928 25.7219 130.83 25.3579 130.634 25.0659C130.41 24.7099 130.092 24.5319 129.68 24.5319C129.256 24.5319 128.934 24.7139 128.714 25.0779C128.526 25.3739 128.432 25.7459 128.432 26.1939C128.432 26.6179 128.528 26.9819 128.72 27.2859C128.944 27.6419 129.262 27.8199 129.674 27.8199ZM132.361 28.4379V23.9139H134.941V24.6279H133.165V25.8099H134.809V26.5239H133.165V28.4379H132.361ZM139.502 25.7379V26.4399H137.816V27.7239H139.7V28.4379H137.012V23.9139H139.598V24.6279H137.816V25.7379H139.502ZM140.276 28.4379V23.9799C140.48 23.9479 140.688 23.9239 140.9 23.9079C141.116 23.8879 141.34 23.8779 141.572 23.8779C142.368 23.8779 142.976 24.0519 143.396 24.3999C143.856 24.7879 144.086 25.3459 144.086 26.0739C144.086 26.8539 143.86 27.4519 143.408 27.8679C142.96 28.2799 142.282 28.4859 141.374 28.4859C141.158 28.4859 140.958 28.4819 140.774 28.4739C140.594 28.4699 140.428 28.4579 140.276 28.4379ZM141.08 24.5979V27.7779C141.132 27.7939 141.284 27.8019 141.536 27.8019C142.104 27.8019 142.53 27.6579 142.814 27.3699C143.098 27.0779 143.24 26.6539 143.24 26.0979C143.24 25.5819 143.104 25.1979 142.832 24.9459C142.564 24.6899 142.164 24.5619 141.632 24.5619C141.444 24.5619 141.26 24.5739 141.08 24.5979ZM144.646 23.9139H145.456V26.5179C145.456 27.3859 145.76 27.8199 146.368 27.8199C147 27.8199 147.316 27.3859 147.316 26.5179V23.9139H148.126V26.5179C148.126 27.1419 147.982 27.6219 147.694 27.9579C147.386 28.3259 146.934 28.5099 146.338 28.5099C145.21 28.5099 144.646 27.8459 144.646 26.5179V23.9139ZM151.989 27.6219L152.139 28.2999C151.987 28.3679 151.813 28.4199 151.617 28.4559C151.425 28.4919 151.203 28.5099 150.951 28.5099C150.259 28.5099 149.707 28.3059 149.295 27.8979C148.887 27.4899 148.683 26.9339 148.683 26.2299C148.683 25.5059 148.903 24.9299 149.343 24.5019C149.779 24.0659 150.353 23.8479 151.065 23.8479C151.533 23.8479 151.903 23.9179 152.175 24.0579L151.983 24.7419C151.719 24.6219 151.423 24.5619 151.095 24.5619C150.843 24.5619 150.619 24.6019 150.423 24.6819C150.227 24.7579 150.063 24.8679 149.931 25.0119C149.799 25.1519 149.697 25.3239 149.625 25.5279C149.557 25.7279 149.523 25.9499 149.523 26.1939C149.523 26.4339 149.557 26.6519 149.625 26.8479C149.697 27.0439 149.799 27.2119 149.931 27.3519C150.063 27.4879 150.225 27.5939 150.417 27.6699C150.613 27.7459 150.835 27.7839 151.083 27.7839C151.423 27.7839 151.725 27.7299 151.989 27.6219ZM155.006 27.1539H153.584L153.182 28.4379H152.348L153.818 23.9139H154.808L156.302 28.4379H155.42L155.006 27.1539ZM153.746 26.4879H154.832L154.49 25.4259C154.446 25.3059 154.41 25.1739 154.382 25.0299L154.292 24.6639C154.276 24.7319 154.25 24.8299 154.214 24.9579C154.182 25.0819 154.138 25.2359 154.082 25.4199L153.746 26.4879ZM157.286 28.4379V24.6279H155.996V23.9139H159.386V24.6279H158.096V28.4379H157.286ZM159.762 23.9139H160.566V28.4379H159.762V23.9139ZM163.203 28.5099C162.559 28.5099 162.051 28.2859 161.679 27.8379C161.319 27.4179 161.139 26.8759 161.139 26.2119C161.139 25.5479 161.323 24.9899 161.691 24.5379C162.079 24.0659 162.601 23.8299 163.257 23.8299C163.905 23.8299 164.415 24.0499 164.787 24.4899C165.155 24.9179 165.339 25.4659 165.339 26.1339C165.339 26.8299 165.153 27.3959 164.781 27.8319C164.401 28.2839 163.875 28.5099 163.203 28.5099ZM163.221 27.8199C163.641 27.8199 163.963 27.6399 164.187 27.2799C164.379 26.9879 164.475 26.6139 164.475 26.1579C164.475 25.7219 164.377 25.3579 164.181 25.0659C163.957 24.7099 163.639 24.5319 163.227 24.5319C162.803 24.5319 162.481 24.7139 162.261 25.0779C162.073 25.3739 161.979 25.7459 161.979 26.1939C161.979 26.6179 162.075 26.9819 162.267 27.2859C162.491 27.6419 162.809 27.8199 163.221 27.8199ZM166.658 28.4379H165.908V23.9139H166.808L168.014 25.9059C168.154 26.1379 168.282 26.3679 168.398 26.5959C168.518 26.8239 168.628 27.0519 168.728 27.2799C168.708 27.0239 168.694 26.7539 168.686 26.4699C168.682 26.1859 168.68 25.8819 168.68 25.5579V23.9139H169.436V28.4379H168.614L167.39 26.4099C167.31 26.2739 167.232 26.1419 167.156 26.0139C167.084 25.8859 167.014 25.7579 166.946 25.6299C166.882 25.5139 166.822 25.3999 166.766 25.2879C166.714 25.1719 166.662 25.0579 166.61 24.9459C166.61 24.9899 166.61 25.0399 166.61 25.0959C166.61 25.1479 166.612 25.2059 166.616 25.2699L166.634 25.8099C166.642 26.0179 166.648 26.2019 166.652 26.3619C166.656 26.5179 166.658 26.6479 166.658 26.7519V28.4379Z" fill="#464C53"/>
</g>
<defs>
<clipPath id="clip0_11663_10928">
<rect width="169" height="33" fill="white"/>
</clipPath>
</defs>
</svg>
