<svg width="32" height="32" viewBox="0 0 32 32" fill="none" xmlns="http://www.w3.org/2000/svg">
<path d="M14.5312 3.2002C20.7905 3.2002 25.8643 8.27495 25.8643 14.5342C25.8642 17.2788 24.8881 19.7949 23.2646 21.7559L27.6885 26.1787C28.105 26.5952 28.1049 27.2709 27.6885 27.6875C27.2719 28.1041 26.5962 28.1041 26.1797 27.6875L21.7568 23.2646C19.7953 24.8898 17.2776 25.8672 14.5312 25.8672C8.27213 25.8672 3.19842 20.7933 3.19824 14.5342C3.19824 8.27495 8.27202 3.2002 14.5312 3.2002ZM14.5312 5.33398C9.45023 5.33398 5.33105 9.45316 5.33105 14.5342C5.33123 19.615 9.45034 23.7334 14.5312 23.7334C16.9532 23.7334 19.155 22.7964 20.7979 21.2666C20.8476 21.1685 20.9131 21.0761 20.9951 20.9941C21.077 20.9123 21.1687 20.8465 21.2666 20.7969C22.7946 19.1544 23.7314 16.9544 23.7314 14.5342C23.7314 9.45316 19.6123 5.33398 14.5312 5.33398Z" fill="white"/>
</svg>
