<svg width="24" height="24" viewBox="0 0 24 24" fill="none" xmlns="http://www.w3.org/2000/svg">
<path d="M11.9941 5.69922C16.5136 5.69922 20.5801 8.18141 21.8506 11.5566C21.975 11.8875 21.993 12.2588 21.8809 12.6133C21.106 15.0612 18.0519 18.2988 11.9941 18.2988C5.91278 18.2987 2.91673 14.7457 2.13086 12.6406C2.00281 12.2975 2.00145 11.9306 2.10742 11.5977C2.65931 9.86411 4.03558 8.39054 5.7793 7.36035C7.53109 6.32543 9.71453 5.6993 11.9941 5.69922ZM11.9941 7.29883C9.99856 7.29891 8.09613 7.84916 6.59277 8.7373C5.08129 9.63029 4.0327 10.8272 3.63281 12.083C3.63249 12.084 3.632 12.0852 3.63184 12.0859C4.20102 13.6032 6.62411 16.699 11.9941 16.6992C17.4285 16.6992 19.8123 13.8455 20.3555 12.1318C20.3554 12.1303 20.3549 12.1264 20.3525 12.1201C19.3732 9.51853 16.0236 7.29883 11.9941 7.29883ZM11.9951 8.19922C14.0937 8.19922 15.7948 9.90043 15.7949 11.999C15.7949 14.0977 14.0938 15.7988 11.9951 15.7988C9.89652 15.7987 8.19531 14.0976 8.19531 11.999C8.19542 9.9005 9.89659 8.19932 11.9951 8.19922ZM11.9951 9.79883C10.7802 9.79893 9.79503 10.7842 9.79492 11.999C9.79492 13.214 10.7802 14.1991 11.9951 14.1992C13.2101 14.1992 14.1953 13.214 14.1953 11.999C14.1952 10.7841 13.2101 9.79883 11.9951 9.79883Z" fill="#6D7882"/>
</svg>
