<svg width="35" height="24" viewBox="0 0 35 24" fill="none" xmlns="http://www.w3.org/2000/svg">
<path d="M12 12C14.7614 12 17 9.76142 17 7C17 4.23858 14.7614 2 12 2C9.23858 2 7 4.23858 7 7C7 9.76142 9.23858 12 12 12Z" stroke="#256EF4" stroke-width="1.5" stroke-linecap="round" stroke-linejoin="round"/>
<path d="M20.5862 22C20.5862 18.13 16.7362 15 11.9962 15C7.25625 15 3.40625 18.13 3.40625 22" stroke="#256EF4" stroke-width="1.5" stroke-linecap="round" stroke-linejoin="round"/>
<path d="M25.375 6C30.3456 6 34.375 10.0294 34.375 15C34.375 19.9706 30.3456 24 25.375 24C23.4748 24 21.7133 23.4095 20.2607 22.4043L17.0391 23.0762C16.6865 23.1496 16.3739 22.837 16.4473 22.4844L17.2148 18.7969C16.677 17.643 16.375 16.357 16.375 15C16.375 10.0294 20.4044 6 25.375 6Z" fill="#256EF4"/>
<path d="M24.4453 15.1719C24.4453 15.7682 24.3333 16.2852 24.1094 16.7227C23.8854 17.1602 23.5768 17.4961 23.1836 17.7305C22.793 17.9622 22.349 18.0781 21.8516 18.0781C21.3542 18.0781 20.9089 17.9622 20.5156 17.7305C20.125 17.4961 19.8177 17.1602 19.5938 16.7227C19.3698 16.2826 19.2578 15.7656 19.2578 15.1719C19.2578 14.5755 19.3698 14.0586 19.5938 13.6211C19.8177 13.1836 20.125 12.849 20.5156 12.6172C20.9089 12.3828 21.3542 12.2656 21.8516 12.2656C22.349 12.2656 22.793 12.3828 23.1836 12.6172C23.5768 12.849 23.8854 13.1836 24.1094 13.6211C24.3333 14.0586 24.4453 14.5755 24.4453 15.1719ZM23.4219 15.1719C23.4219 14.75 23.3555 14.3906 23.2227 14.0938C23.0924 13.7943 22.9089 13.5677 22.6719 13.4141C22.4349 13.2578 22.1615 13.1797 21.8516 13.1797C21.5417 13.1797 21.2682 13.2578 21.0312 13.4141C20.7943 13.5677 20.6094 13.7943 20.4766 14.0938C20.3464 14.3906 20.2812 14.75 20.2812 15.1719C20.2812 15.5938 20.3464 15.9544 20.4766 16.2539C20.6094 16.5508 20.7943 16.7773 21.0312 16.9336C21.2682 17.0872 21.5417 17.1641 21.8516 17.1641C22.1615 17.1641 22.4349 17.0872 22.6719 16.9336C22.9089 16.7773 23.0924 16.5508 23.2227 16.2539C23.3555 15.9544 23.4219 15.5938 23.4219 15.1719ZM30 18H29.0938L26.4141 14.1328H26.3672V18H25.3516V12.3438H26.2734L28.9375 16.2109H28.9922V12.3438H30V18Z" fill="white"/>
</svg>
