<svg width="35" height="24" viewBox="0 0 35 24" fill="none" xmlns="http://www.w3.org/2000/svg">
<path d="M12 12C14.7614 12 17 9.76142 17 7C17 4.23858 14.7614 2 12 2C9.23858 2 7 4.23858 7 7C7 9.76142 9.23858 12 12 12Z" stroke="#B1B8BE" stroke-width="1.5" stroke-linecap="round" stroke-linejoin="round"/>
<path d="M20.5862 22C20.5862 18.13 16.7362 15 11.9962 15C7.25625 15 3.40625 18.13 3.40625 22" stroke="#B1B8BE" stroke-width="1.5" stroke-linecap="round" stroke-linejoin="round"/>
<path d="M25.375 6C30.3456 6 34.375 10.0294 34.375 15C34.375 19.9706 30.3456 24 25.375 24C23.4748 24 21.7133 23.4095 20.2607 22.4043L17.0391 23.0762C16.6865 23.1496 16.3739 22.837 16.4473 22.4844L17.2148 18.7969C16.677 17.643 16.375 16.357 16.375 15C16.375 10.0294 20.4044 6 25.375 6Z" fill="#6D7882"/>
<path d="M23.4453 15.1719C23.4453 15.7682 23.3333 16.2852 23.1094 16.7227C22.8854 17.1602 22.5768 17.4961 22.1836 17.7305C21.793 17.9622 21.349 18.0781 20.8516 18.0781C20.3542 18.0781 19.9089 17.9622 19.5156 17.7305C19.125 17.4961 18.8177 17.1602 18.5938 16.7227C18.3698 16.2826 18.2578 15.7656 18.2578 15.1719C18.2578 14.5755 18.3698 14.0586 18.5938 13.6211C18.8177 13.1836 19.125 12.849 19.5156 12.6172C19.9089 12.3828 20.3542 12.2656 20.8516 12.2656C21.349 12.2656 21.793 12.3828 22.1836 12.6172C22.5768 12.849 22.8854 13.1836 23.1094 13.6211C23.3333 14.0586 23.4453 14.5755 23.4453 15.1719ZM22.4219 15.1719C22.4219 14.75 22.3555 14.3906 22.2227 14.0938C22.0924 13.7943 21.9089 13.5677 21.6719 13.4141C21.4349 13.2578 21.1615 13.1797 20.8516 13.1797C20.5417 13.1797 20.2682 13.2578 20.0312 13.4141C19.7943 13.5677 19.6094 13.7943 19.4766 14.0938C19.3464 14.3906 19.2812 14.75 19.2812 15.1719C19.2812 15.5938 19.3464 15.9544 19.4766 16.2539C19.6094 16.5508 19.7943 16.7773 20.0312 16.9336C20.2682 17.0872 20.5417 17.1641 20.8516 17.1641C21.1615 17.1641 21.4349 17.0872 21.6719 16.9336C21.9089 16.7773 22.0924 16.5508 22.2227 16.2539C22.3555 15.9544 22.4219 15.5938 22.4219 15.1719ZM24.0516 12.3438H27.6766V13.1953H25.0672V14.7422H27.4266V15.5938H25.0672V18H24.0516V12.3438ZM28.2359 12.3438H31.8609V13.1953H29.2516V14.7422H31.6109V15.5938H29.2516V18H28.2359V12.3438Z" fill="white"/>
</svg>
