<svg width="35" height="24" viewBox="0 0 35 24" fill="none" xmlns="http://www.w3.org/2000/svg">
<path d="M12 12C14.7614 12 17 9.76142 17 7C17 4.23858 14.7614 2 12 2C9.23858 2 7 4.23858 7 7C7 9.76142 9.23858 12 12 12Z" stroke="#256EF4" stroke-width="1.5" stroke-linecap="round" stroke-linejoin="round"/>
<path d="M20.5862 22C20.5862 18.13 16.7362 15 11.9962 15C7.25625 15 3.40625 18.13 3.40625 22" stroke="#256EF4" stroke-width="1.5" stroke-linecap="round" stroke-linejoin="round"/>
<path d="M25.375 6C30.3456 6 34.375 10.0294 34.375 15C34.375 19.9706 30.3456 24 25.375 24C23.4748 24 21.7133 23.4095 20.2607 22.4043L17.0391 23.0762C16.6865 23.1496 16.3739 22.837 16.4473 22.4844L17.2148 18.7969C16.677 17.643 16.375 16.357 16.375 15C16.375 10.0294 20.4044 6 25.375 6Z" fill="#256EF4"/>
<path d="M25.4453 15.1719C25.4453 15.7682 25.3333 16.2852 25.1094 16.7227C24.8854 17.1602 24.5768 17.4961 24.1836 17.7305C23.793 17.9622 23.349 18.0781 22.8516 18.0781C22.3542 18.0781 21.9089 17.9622 21.5156 17.7305C21.125 17.4961 20.8177 17.1602 20.5938 16.7227C20.3698 16.2826 20.2578 15.7656 20.2578 15.1719C20.2578 14.5755 20.3698 14.0586 20.5938 13.6211C20.8177 13.1836 21.125 12.849 21.5156 12.6172C21.9089 12.3828 22.3542 12.2656 22.8516 12.2656C23.349 12.2656 23.793 12.3828 24.1836 12.6172C24.5768 12.849 24.8854 13.1836 25.1094 13.6211C25.3333 14.0586 25.4453 14.5755 25.4453 15.1719ZM24.4219 15.1719C24.4219 14.75 24.3555 14.3906 24.2227 14.0938C24.0924 13.7943 23.9089 13.5677 23.6719 13.4141C23.4349 13.2578 23.1615 13.1797 22.8516 13.1797C22.5417 13.1797 22.2682 13.2578 22.0312 13.4141C21.7943 13.5677 21.6094 13.7943 21.4766 14.0938C21.3464 14.3906 21.2812 14.75 21.2812 15.1719C21.2812 15.5938 21.3464 15.9544 21.4766 16.2539C21.6094 16.5508 21.7943 16.7773 22.0312 16.9336C22.2682 17.0872 22.5417 17.1641 22.8516 17.1641C23.1615 17.1641 23.4349 17.0872 23.6719 16.9336C23.9089 16.7773 24.0924 16.5508 24.2227 16.2539C24.3555 15.9544 24.4219 15.5938 24.4219 15.1719ZM30.7 18H29.7937L27.1141 14.1328H27.0672V18H26.0516V12.3438H26.9734L29.6375 16.2109H29.6922V12.3438H30.7V18Z" fill="white"/>
</svg>
