<svg width="20" height="20" viewBox="0 0 20 20" fill="none" xmlns="http://www.w3.org/2000/svg">
<path d="M17.5 18.334H2.5C2.15833 18.334 1.875 18.0507 1.875 17.709C1.875 17.3673 2.15833 17.084 2.5 17.084H17.5C17.8417 17.084 18.125 17.3673 18.125 17.709C18.125 18.0507 17.8417 18.334 17.5 18.334Z" fill="#8A949E"/>
<path d="M15.8534 2.90005C14.2367 1.28338 12.6534 1.24172 10.9951 2.90005L9.98673 3.90838C9.9034 3.99172 9.87007 4.12505 9.9034 4.24172C10.5367 6.45005 12.3034 8.21672 14.5117 8.85005C14.5451 8.85838 14.5784 8.86672 14.6117 8.86672C14.7034 8.86672 14.7867 8.83338 14.8534 8.76672L15.8534 7.75838C16.6784 6.94172 17.0784 6.15005 17.0784 5.35005C17.0867 4.52505 16.6867 3.72505 15.8534 2.90005Z" fill="#8A949E"/>
<path d="M13.0109 9.60964C12.7692 9.49297 12.5359 9.3763 12.3109 9.24297C12.1275 9.13464 11.9525 9.01797 11.7775 8.89297C11.6359 8.8013 11.4692 8.66797 11.3109 8.53464C11.2942 8.5263 11.2359 8.4763 11.1692 8.40964C10.8942 8.1763 10.5859 7.8763 10.3109 7.54297C10.2859 7.5263 10.2442 7.46797 10.1859 7.39297C10.1025 7.29297 9.96088 7.1263 9.83588 6.93464C9.73588 6.80964 9.61921 6.6263 9.51088 6.44297C9.37754 6.21797 9.26088 5.99297 9.14421 5.75964C8.99125 5.43185 8.56103 5.33448 8.30526 5.59025L3.61921 10.2763C3.51088 10.3846 3.41088 10.593 3.38588 10.7346L2.93588 13.9263C2.85254 14.493 3.01088 15.0263 3.36088 15.3846C3.66088 15.6763 4.07754 15.8346 4.52754 15.8346C4.62754 15.8346 4.72754 15.8263 4.82754 15.8096L8.02754 15.3596C8.17754 15.3346 8.38588 15.2346 8.48588 15.1263L13.1797 10.4325C13.4303 10.1819 13.3361 9.75058 13.0109 9.60964Z" fill="#8A949E"/>
</svg>
